<?xml version="1.0" standalone="no"?>
<!DOCTYPE svg PUBLIC "-//W3C//DTD SVG 1.1//EN" "http://www.w3.org/Graphics/SVG/1.1/DTD/svg11.dtd" >
<svg xmlns="http://www.w3.org/2000/svg" xmlns:xlink="http://www.w3.org/1999/xlink" version="1.1">
<metadata>
Created by FontForge 20201107 at Fri Apr 25 12:22:02 2025
 By Unknown
</metadata>
<defs>
<font id="RiiCookieTest-R" horiz-adv-x="1000" vert-adv-y="1000" >
  <font-face 
    font-weight="400"
    font-stretch="normal"
    units-per-em="1000"
    panose-1="2 0 5 3 0 0 0 0 0 0"
    ascent="800"
    descent="-200"
    x-height="543"
    cap-height="757"
    bbox="0 -120 1000 880"
    underline-thickness="50"
    underline-position="-100"
    unicode-range="U+0021-2F920"
  />
<missing-glyph 
 />
    <glyph glyph-name=".notdef" 
 />
    <glyph glyph-name="uni00A0" unicode="&#xa0;" horiz-adv-x="500" 
 />
    <glyph glyph-name="exclam" unicode="!" horiz-adv-x="400" 
d="M191 -31c-22 2 -33 8 -47 14c-19 17 -26 41 -26 66c5 25 16 48 37 66c14 9 34 11 55 11c25 -5 43 -20 54 -46c5 -19 6 -39 0 -56c-3 -19 -13 -35 -32 -49c-12 -6 -25 -7 -41 -6zM142 214c-20 193 -31 422 -34 545c60 8 122 8 184 1c-15 -199 -27 -375 -44 -546h-106z" />
    <glyph glyph-name="quotedbl" unicode="&#x22;" horiz-adv-x="450" 
d="M170 540l-78 -1c-11 71 -21 216 -28 286l137 2c-10 -75 -22 -224 -31 -287zM355 540l-78 -1c-11 71 -21 216 -28 286l137 2c-10 -75 -22 -224 -31 -287z" />
    <glyph glyph-name="numbersign" unicode="#" horiz-adv-x="650" 
d="M216 -3h-118c10 58 19 122 27 191l-68 -2l2 88l91 3l21 174l-86 -3l6 92l102 5c9 73 24 148 40 226l116 -4c-13 -74 -32 -145 -43 -219l90 -3c12 81 29 148 44 220l107 -1c-15 -67 -31 -157 -41 -216l83 -4l-7 -82l-86 -4l-22 -179l76 -5l-6 -78l-95 -1
c-11 -75 -24 -142 -29 -194l-117 -4c5 52 20 122 30 196l-76 -3c-13 -72 -24 -135 -41 -193zM353 278l23 177l-79 2l-33 -179h89z" />
    <glyph glyph-name="dollar" unicode="$" horiz-adv-x="650" 
d="M383 -61l-115 2l-1 75c-34 6 -74 21 -110 35c-37 13 -68 30 -112 86l77 94c40 -35 110 -73 149 -85v163c-42 10 -77 30 -111 58c-23 17 -44 44 -52 77c-10 36 -16 80 -9 128c6 41 37 75 68 103c27 20 57 34 98 44l2 103h120l-2 -95c20 -1 56 -5 78 -10
c34 -8 63 -26 85 -45l-25 -107c-54 17 -88 22 -136 15l-1 -138c34 -9 60 -19 85 -30c27 -12 47 -29 66 -48c15 -16 34 -50 44 -92c9 -32 5 -60 0 -94c-3 -30 -8 -62 -28 -84c-17 -21 -43 -39 -85 -54c-35 -12 -54 -17 -86 -19zM387 157c17 6 45 15 55 27c22 21 18 53 15 69
c-6 21 -24 42 -71 45zM271 457l2 113c-14 -2 -29 -6 -40 -15c-12 -10 -18 -21 -20 -38c2 -29 7 -42 21 -52c15 -9 33 -20 37 -8z" />
    <glyph glyph-name="percent" unicode="%" horiz-adv-x="800" 
d="M166 -43l-116 98c64 74 183 225 302 376c126 158 244 321 294 365l96 -83c-23 -37 -195 -256 -268 -350c-73 -93 -227 -323 -308 -406zM585 -18c-38 4 -72 19 -96 50c-25 39 -37 67 -33 129c2 36 17 69 35 99c21 21 44 42 68 52c18 8 51 8 84 4c38 -4 78 -27 93 -81
c11 -22 16 -58 11 -95c-13 -72 -24 -99 -59 -131c-29 -23 -68 -27 -103 -27zM629 85c20 9 25 27 32 59c3 20 0 50 -10 63c-19 18 -49 30 -81 4c-18 -26 -29 -51 -24 -87c12 -22 24 -41 48 -46c17 -4 27 0 35 7zM181 433c-39 6 -78 26 -109 65c-19 40 -23 89 -23 134
c6 28 13 52 26 69c13 26 42 42 66 55c24 12 52 14 79 14c24 -3 51 -14 67 -38c18 -23 25 -44 33 -69c6 -27 9 -63 7 -91c-11 -41 -19 -71 -48 -104c-26 -25 -56 -39 -98 -35zM222 555c10 12 14 23 15 48c2 26 -5 47 -16 55c-18 12 -31 14 -55 2c-19 -21 -27 -46 -24 -80
c7 -21 22 -41 38 -46c19 -1 29 10 42 21z" />
    <glyph glyph-name="ampersand" unicode="&#x26;" horiz-adv-x="650" 
d="M168 -36c-33 2 -67 20 -88 51c-14 15 -22 33 -25 51c-2 24 -5 37 -2 51c7 28 17 57 30 84c24 48 78 122 97 150c-17 35 -34 55 -52 107c-15 43 -21 69 -21 117c0 37 7 64 19 95c12 29 34 56 53 81c23 19 41 30 64 40c20 9 43 11 69 8c38 0 71 -18 96 -48
c16 -25 25 -52 34 -79c7 -26 7 -57 5 -90c-8 -45 -18 -85 -28 -109c-18 -48 -41 -86 -82 -147c11 -27 50 -67 65 -91c38 58 58 82 92 115l80 -75c-24 -31 -45 -65 -57 -98c19 -28 65 -54 96 -71l-82 -100c-32 16 -97 54 -111 69c-30 -45 -69 -69 -108 -87
c-40 -22 -84 -27 -144 -24zM266 100l49 50c-20 28 -44 56 -72 102c-22 -41 -42 -74 -57 -117c-2 -33 8 -44 16 -53c25 -6 48 7 64 18zM270 419c29 49 57 125 63 178c-3 23 -11 48 -26 66c-9 9 -22 19 -32 10c-15 -6 -25 -23 -36 -43c-17 -33 -19 -67 -8 -106
c12 -39 16 -65 39 -105z" />
    <glyph glyph-name="quotesingle" unicode="'" horiz-adv-x="250" 
d="M136 532l-78 -1c18 83 4 224 4 295l137 2c-9 -82 -29 -225 -63 -296z" />
    <glyph glyph-name="parenleft" unicode="(" horiz-adv-x="500" 
d="M255 -82c-29 25 -46 51 -62 83c-27 54 -47 93 -62 160c-18 64 -19 146 -22 203c2 121 13 185 36 248c23 64 49 137 102 231l144 -1c-34 -93 -62 -170 -87 -243c-26 -77 -47 -158 -42 -242c2 -77 12 -145 32 -213c21 -72 64 -163 96 -224z" />
    <glyph glyph-name="parenright" unicode=")" horiz-adv-x="500" 
d="M245 -82l-135 2c32 61 75 152 96 224c20 68 30 136 32 213c5 84 -16 165 -42 242c-25 73 -53 150 -87 243l144 1c53 -94 79 -167 102 -231c23 -63 34 -127 36 -248c-3 -57 -4 -139 -22 -203c-15 -67 -35 -106 -62 -160c-16 -32 -33 -58 -62 -83z" />
    <glyph glyph-name="asterisk" unicode="*" horiz-adv-x="500" 
d="M160 425l-64 75c24 34 44 63 67 92c-35 13 -76 32 -109 51l34 85c43 -6 71 -15 110 -19c1 37 2 74 7 114l98 5c4 -31 4 -87 7 -116c34 7 75 14 111 21l27 -89c-37 -15 -67 -33 -102 -48c24 -41 43 -68 57 -99l-79 -58c-20 32 -53 71 -70 94c-30 -30 -64 -85 -94 -108z
" />
    <glyph glyph-name="plus" unicode="+" horiz-adv-x="650" 
d="M401 113l-147 -2c-1 68 -4 142 -4 231c-74 1 -130 0 -203 2l-2 127c74 5 131 8 209 11c2 60 1 139 6 218l143 -4c1 -73 -3 -130 -2 -214c65 -4 127 -6 204 -6l-1 -132c-72 -6 -138 -7 -202 -7c2 -83 1 -159 -1 -224z" />
    <glyph glyph-name="comma" unicode="," horiz-adv-x="300" 
d="M148 -102l-53 18l21 71c-32 -2 -46 2 -66 30c-8 16 -13 33 -10 55c2 24 10 45 27 63c18 15 36 21 59 21c28 -3 49 -6 69 -33c14 -18 19 -48 16 -76c-8 -55 -23 -92 -63 -149z" />
    <glyph glyph-name="uni2011" unicode="&#x2011;" horiz-adv-x="500" 
d="M458 302c-141 4 -294 0 -417 -2l-1 151c141 7 281 9 421 7z" />
    <glyph glyph-name="period" unicode="." horiz-adv-x="300" 
d="M112 -26c-21 2 -41 16 -53 32c-10 17 -15 36 -15 55c3 25 13 47 30 66c17 14 38 18 60 22c22 -4 41 -12 57 -27c11 -17 19 -33 21 -53c2 -27 -7 -51 -27 -71c-21 -17 -31 -23 -73 -24z" />
    <glyph glyph-name="slash" unicode="/" horiz-adv-x="500" 
d="M180 -81l-132 11c50 147 97 317 144 467c44 147 93 294 133 445l128 -8c-50 -164 -98 -320 -135 -470c-46 -155 -86 -289 -138 -445z" />
    <glyph glyph-name="zero" unicode="0" horiz-adv-x="550" 
d="M234 -18c-34 8 -68 21 -90 53c-37 57 -56 110 -63 173c-8 63 -16 128 -13 191c2 64 13 127 24 186c12 57 55 132 106 154c46 20 100 26 158 13c33 -5 59 -24 73 -44c26 -37 36 -65 50 -123c14 -57 15 -130 16 -192c-1 -74 -9 -144 -21 -208c-11 -50 -19 -91 -41 -127
c-16 -26 -39 -44 -57 -55c-39 -25 -85 -31 -142 -21zM319 150c17 34 27 72 31 109c11 85 12 165 2 247c-4 33 -9 61 -24 85c-14 23 -37 27 -59 20c-14 -1 -23 -28 -29 -42c-10 -38 -16 -87 -20 -134c-5 -35 -7 -104 -1 -147c8 -63 15 -93 42 -139c12 -15 44 -21 58 1z" />
    <glyph glyph-name="one" unicode="1" horiz-adv-x="450" 
d="M366 0l-150 1c1 175 -5 323 0 558h-120l6 82c34 34 100 89 125 105c53 8 93 4 143 1c-8 -290 2 -524 -4 -747z" />
    <glyph glyph-name="two" unicode="2" horiz-adv-x="550" 
d="M490 -7c-145 0 -285 -5 -432 2l6 137c31 22 77 72 99 94c21 17 42 36 63 62c25 33 45 75 62 114c19 44 23 87 21 135c4 18 -6 39 -18 48c-13 9 -24 15 -51 11c-27 -1 -41 -21 -45 -46l-5 -61h-127c4 94 12 153 45 196c24 31 58 52 93 63c36 10 73 13 108 9
c44 -11 70 -22 92 -48c23 -28 39 -55 50 -88c7 -26 11 -59 8 -99c-5 -55 -18 -110 -34 -158c-11 -38 -36 -83 -79 -140c-17 -23 -34 -46 -53 -79l199 -4z" />
    <glyph glyph-name="three" unicode="3" horiz-adv-x="550" 
d="M283 -3c-43 -1 -87 16 -119 29c-38 14 -54 22 -87 52c-13 12 -27 31 -51 50l93 109c23 -21 46 -44 75 -62c21 -14 46 -26 79 -30c41 -2 61 12 77 38c11 10 15 25 12 42c-2 25 -16 57 -27 76c-39 15 -96 31 -139 41c-13 22 -12 93 0 114c85 11 118 17 160 52
c9 15 13 32 11 48c-4 19 -15 39 -29 47c-35 19 -81 17 -129 5c-24 -9 -49 -16 -77 -23l-27 128c55 24 93 35 119 42c27 7 59 6 84 6l44 -3c42 -4 86 -26 117 -64c26 -39 40 -83 38 -132c-4 -34 -3 -62 -10 -91c-13 -29 -36 -47 -59 -72c19 -19 39 -49 49 -77
c19 -42 28 -86 25 -136c-9 -38 -26 -73 -54 -103c-23 -29 -48 -50 -79 -66c-31 -13 -61 -20 -96 -20z" />
    <glyph glyph-name="four" unicode="4" horiz-adv-x="600" 
d="M450 -4l-136 -2l-3 157c-103 -1 -172 -1 -264 4v136c27 101 47 172 68 248c21 75 45 146 80 219l132 -15c-26 -82 -45 -142 -59 -206c-20 -65 -38 -125 -64 -239l110 -2c2 120 4 224 5 348l135 -5c-2 -128 0 -223 -3 -336c18 -1 63 -2 117 -6l-2 -145
c-59 -1 -96 0 -116 -6v-150z" />
    <glyph glyph-name="five" unicode="5" horiz-adv-x="550" 
d="M297 -18c-40 4 -79 15 -116 25c-36 10 -71 23 -141 96l66 99c41 -28 98 -64 152 -68c44 -2 86 12 114 47c13 16 19 39 17 56c5 29 -9 49 -30 64c-33 20 -72 27 -118 24c-68 -11 -121 -18 -160 -33c-7 130 -10 317 -1 472l135 2l1 -41c100 -1 188 -7 276 -12l4 -138
c-92 0 -178 3 -281 -6l1 -120c34 10 80 8 106 8c60 1 108 -18 135 -59c22 -24 41 -50 51 -83c8 -34 11 -74 7 -111c-5 -60 -19 -111 -59 -152c-20 -23 -49 -35 -74 -49c-27 -14 -55 -21 -85 -21z" />
    <glyph glyph-name="six" unicode="6" horiz-adv-x="550" 
d="M221 -7c-25 3 -47 12 -67 28c-20 15 -39 31 -56 52c-14 27 -28 58 -35 93c-8 30 -15 63 -13 101c7 127 34 198 58 275c24 78 61 149 106 213l147 4c-26 -50 -45 -102 -69 -152c-24 -49 -46 -103 -62 -158c36 13 77 19 111 9c22 -7 49 -17 68 -28c21 -12 41 -27 58 -52
c19 -32 30 -66 35 -105v-81c-9 -55 -21 -94 -56 -130c-28 -31 -66 -44 -102 -53c-40 -13 -80 -19 -123 -16zM339 155c27 21 33 50 30 83c0 25 -10 54 -24 64c-23 16 -52 23 -80 26c-31 -17 -48 -30 -63 -56c-5 -20 -8 -64 3 -88c12 -33 31 -54 75 -50c19 2 41 9 59 21z" />
    <glyph glyph-name="seven" unicode="7" horiz-adv-x="550" 
d="M277 0c14 181 30 275 42 354c12 77 24 170 36 250l-172 -6c-8 -50 -15 -113 -19 -163l-127 1c0 57 6 246 16 299c170 15 327 13 467 6c2 -33 -1 -105 -13 -143c-9 -74 -29 -159 -46 -251c-19 -118 -27 -210 -46 -347h-138z" />
    <glyph glyph-name="eight" unicode="8" horiz-adv-x="550" 
d="M249 -8c-34 -3 -61 4 -92 11c-29 3 -58 26 -85 42c-29 36 -46 79 -42 129c9 42 26 86 53 126c24 40 51 80 78 118c-25 19 -49 41 -68 65c-21 23 -37 50 -54 73l-13 56c4 30 10 59 30 79c30 27 70 42 107 52c35 10 76 17 117 21c36 0 72 -10 102 -27c30 -20 57 -42 85 -73
c25 -30 48 -60 62 -96c-27 -35 -44 -49 -75 -65c-30 -17 -63 -47 -79 -78c38 -51 65 -88 81 -128c17 -44 24 -86 21 -137c0 -43 -16 -82 -50 -115c-23 -16 -50 -30 -81 -36c-28 -10 -66 -14 -97 -17zM322 140c20 19 21 40 16 69c-7 37 -36 99 -64 131
c-35 -21 -49 -50 -67 -90c-14 -32 -21 -62 -11 -76c7 -16 21 -31 38 -41c30 -6 46 -4 88 7zM267 506c36 39 59 61 92 93c-21 18 -53 40 -88 39c-30 0 -71 -8 -91 -34c10 -47 62 -75 87 -98z" />
    <glyph glyph-name="nine" unicode="9" horiz-adv-x="550" 
d="M373 -12l-127 13c12 88 28 167 49 277c-27 -9 -57 -16 -83 -12c-49 7 -84 21 -122 61c-20 29 -37 61 -41 101c-5 35 -9 61 -6 100c6 32 7 65 15 98c9 31 37 77 59 97c41 39 76 44 123 47c31 -3 52 -7 79 -13c23 -6 46 -19 63 -36l12 23l125 -39
c-43 -171 -70 -276 -90 -386c-23 -109 -42 -212 -56 -331zM313 423c8 30 22 63 26 120c-2 18 -9 43 -22 53c-24 23 -57 25 -86 21c-21 -5 -36 -16 -49 -40c-9 -18 -16 -44 -19 -80c4 -19 15 -44 35 -65c14 -13 35 -16 55 -19c27 1 39 2 60 10z" />
    <glyph glyph-name="colon" unicode=":" horiz-adv-x="350" 
d="M160 51c-22 0 -41 9 -56 28c-12 22 -18 43 -15 68c3 21 13 42 28 58c23 18 52 26 80 26c16 -3 33 -9 46 -25c15 -22 22 -47 22 -74c-7 -24 -14 -48 -29 -63c-21 -15 -49 -21 -76 -18zM151 479c-23 6 -45 20 -57 46c-13 16 -9 40 -5 61c9 38 21 53 55 69c20 9 41 10 68 1
c27 -8 46 -27 51 -49l7 -43c-4 -29 -12 -52 -29 -69c-30 -16 -49 -24 -90 -16z" />
    <glyph glyph-name="semicolon" unicode=";" horiz-adv-x="350" 
d="M203 -8l-78 28c9 9 24 43 21 60c-23 0 -38 9 -52 28c-9 16 -12 32 -9 55c7 23 17 40 28 53c17 13 36 23 55 26c29 4 54 -6 73 -26c23 -25 29 -57 26 -95c-9 -41 -25 -73 -64 -129zM169 476c-28 4 -49 16 -63 34c-16 17 -25 40 -22 64c-2 26 8 46 33 71c17 10 38 21 65 20
c23 -3 45 -10 62 -28c16 -20 26 -42 25 -76c-7 -26 -11 -56 -35 -70c-24 -15 -46 -16 -65 -15z" />
    <glyph glyph-name="less" unicode="&#x3c;" horiz-adv-x="500" 
d="M370 -14c-56 40 -79 81 -150 155c-63 67 -114 128 -166 217l3 37c59 78 106 134 154 193c69 85 121 149 157 189l79 -84c-63 -77 -198 -234 -262 -316c56 -89 176 -204 254 -295z" />
    <glyph glyph-name="equal" unicode="=" horiz-adv-x="650" 
d="M53 133l1 123c173 7 349 11 542 13l-3 -124c-195 -8 -371 -12 -540 -12zM594 413c-174 -2 -347 2 -537 2v133c179 3 359 3 541 0z" />
    <glyph glyph-name="greater" unicode="&#x3e;" horiz-adv-x="500" 
d="M131 -15l-69 96c78 91 198 206 254 295c-64 82 -199 239 -262 316l79 84c36 -40 88 -104 157 -189c48 -59 95 -115 154 -193l3 -37c-52 -89 -103 -150 -166 -217c-71 -74 -94 -115 -150 -155z" />
    <glyph glyph-name="question" unicode="?" horiz-adv-x="600" 
d="M276 -14c-25 8 -44 29 -53 55l-2 27c2 21 15 42 33 57c14 12 33 15 55 12c23 -12 39 -29 48 -53l3 -45c-6 -18 -13 -29 -23 -35c-16 -15 -36 -22 -61 -18zM236 199l-3 102c3 37 15 58 36 82c16 12 57 25 82 40c19 15 37 38 47 61l10 59c0 24 -10 53 -27 67
c-21 22 -56 35 -118 25c-19 -6 -39 -24 -50 -40c-21 -32 -24 -69 -19 -136l-134 -4c-5 42 -6 86 0 129c3 25 8 51 18 74c22 49 36 55 55 70c29 22 59 29 91 38s69 12 104 13c42 -4 66 -9 89 -16c33 -10 50 -23 73 -46c25 -37 41 -68 47 -107c7 -43 9 -86 3 -130
c-10 -43 -30 -81 -62 -110c-22 -19 -40 -32 -61 -46c-25 -15 -53 -30 -60 -65v-59z" />
    <glyph glyph-name="at" unicode="@" horiz-adv-x="850" 
d="M402 -58c-43 3 -86 9 -127 24c-40 16 -72 27 -116 66c-34 31 -59 79 -74 122c-10 40 -18 79 -21 122c-5 44 -8 94 0 145s27 109 41 144c21 42 46 86 81 121c47 48 90 84 152 107c60 23 121 25 185 19c49 -5 88 -12 127 -35c26 -13 70 -55 93 -89c24 -44 33 -67 40 -107
c9 -49 11 -104 11 -141c0 -46 -7 -107 -15 -145c-13 -43 -36 -86 -66 -115c-39 -38 -85 -50 -135 -46c-49 18 -78 46 -85 72c-26 -19 -55 -42 -82 -45c-26 -2 -50 -5 -83 1c-20 6 -44 31 -55 44c-12 14 -29 36 -37 66c-7 36 -9 78 -6 113c4 34 15 66 31 92
c14 25 29 52 50 76c44 52 92 69 155 78c51 3 95 -18 128 -63c13 -16 26 -61 26 -88l-93 -37l-12 50c-21 25 -50 34 -86 13c-25 -8 -41 -24 -59 -58c-13 -27 -25 -50 -34 -95c-3 -20 0 -39 12 -58c12 -14 36 -18 54 -9c26 10 51 28 72 54c23 21 31 35 55 85
c16 -10 52 -11 69 -32c-3 -33 -13 -86 -8 -113c6 -9 19 -19 29 -14c15 10 33 27 39 47c21 59 22 112 22 162c-3 35 -1 71 -13 101c-16 39 -36 68 -64 83c-43 24 -97 34 -137 38c-63 -1 -90 -12 -128 -37c-38 -24 -72 -63 -101 -101c-30 -40 -41 -83 -49 -132
c-9 -48 -12 -104 -9 -160c5 -48 21 -97 45 -130c16 -22 52 -50 98 -61c24 -7 56 -10 89 -9c32 1 68 7 106 17c36 10 69 23 113 43l23 -111c-40 -33 -118 -50 -150 -60c-33 -11 -69 -14 -101 -14z" />
    <glyph glyph-name="A" unicode="A" horiz-adv-x="700" 
d="M672 9l-183 -6c-21 58 -38 121 -53 189l-174 -10c-18 -69 -31 -124 -41 -170l-193 -1c35 140 69 261 103 384c36 124 91 236 138 347c56 6 116 7 182 7c36 -89 73 -213 117 -337c40 -124 74 -281 104 -403zM292 328l120 7c-15 67 -34 170 -47 217l-12 -1
c-15 -35 -55 -182 -61 -223z" />
    <glyph glyph-name="B" unicode="B" horiz-adv-x="650" 
d="M196 8c-38 0 -90 0 -133 1c-3 227 -6 475 1 725c36 16 89 18 133 19c93 5 161 3 195 -6c36 -8 68 -20 98 -42c14 -15 25 -29 33 -48c8 -20 10 -45 8 -72c-6 -42 -22 -80 -52 -111l-33 -41c34 -4 46 -14 78 -34c23 -19 43 -45 54 -73c10 -17 15 -52 16 -76
c-3 -33 -5 -65 -12 -97c-6 -33 -19 -60 -38 -84c-25 -25 -51 -44 -84 -50c-32 -8 -68 -10 -100 -17zM400 173c22 5 31 23 37 43l-2 25c-7 38 -42 66 -84 68c-52 3 -101 -1 -150 -4l-1 -149l73 -1c35 6 104 6 127 18zM357 512c21 23 25 55 15 76l-19 20c-26 10 -99 9 -153 -1
l-2 -118l35 -4c40 0 92 3 124 27z" />
    <glyph glyph-name="C" unicode="C" horiz-adv-x="650" 
d="M273 9c-26 5 -49 18 -73 31c-22 16 -41 34 -65 51c-29 31 -52 69 -69 108c-17 38 -24 82 -27 126c3 96 13 136 26 190s34 101 62 143c28 34 65 58 104 72c34 15 77 21 119 21c41 -3 64 -2 106 -13c27 -11 44 -23 64 -40c24 -23 37 -41 51 -78c13 -21 27 -58 39 -90
l-125 -66c-10 22 -33 68 -52 87c-28 15 -57 24 -93 17c-44 -4 -77 -13 -105 -54c-13 -30 -29 -57 -36 -91c-9 -44 -8 -85 -5 -120c6 -22 16 -53 30 -61c14 -16 40 -27 63 -36c23 -11 62 -10 89 -7c26 3 49 17 66 39c25 22 45 40 58 58l119 -102c-16 -35 -54 -79 -81 -109
c-38 -38 -82 -60 -124 -68c-43 -9 -80 -15 -141 -8z" />
    <glyph glyph-name="D" unicode="D" horiz-adv-x="650" 
d="M200 8c-40 -1 -86 1 -143 6c-9 219 -10 503 -2 731c46 5 96 8 138 5c69 -4 136 -12 200 -29c68 -28 109 -57 164 -122c26 -35 38 -77 48 -122c8 -42 12 -86 10 -134c-4 -74 -16 -124 -29 -145c-15 -21 -38 -55 -57 -77c-48 -45 -91 -70 -157 -92
c-40 -14 -83 -17 -172 -21zM377 227c28 22 52 50 71 85c11 31 9 71 6 108c-6 33 -23 63 -48 92c-24 20 -50 34 -83 40c-32 3 -70 14 -117 9c-9 -128 -4 -247 -5 -366c92 -1 133 1 176 32z" />
    <glyph glyph-name="E" unicode="E" horiz-adv-x="600" 
d="M547 17c-165 -10 -329 -10 -490 -9c-2 243 -6 486 7 733c158 12 341 11 482 11l3 -159c-111 -5 -219 -9 -325 -13c-5 -42 -4 -84 -6 -114l256 -1l2 -145l-260 -9c-3 -48 -6 -94 0 -138c127 -1 225 -1 331 3v-159z" />
    <glyph glyph-name="F" unicode="F" horiz-adv-x="600" 
d="M208 3l-158 4c5 241 6 463 15 734c166 4 336 3 501 1l-8 -158c-116 -6 -227 -11 -331 -13c-5 -51 -7 -105 -4 -134c75 0 164 -6 258 -7l-1 -154c-100 -6 -182 -4 -261 -9c-8 -91 -10 -178 -11 -264z" />
    <glyph glyph-name="G" unicode="G" horiz-adv-x="700" 
d="M298 2c-27 5 -49 15 -72 28c-22 11 -47 21 -91 67c-36 38 -65 93 -76 160c-6 39 -10 83 -9 116c2 50 8 110 27 157c19 48 48 98 83 137c39 40 59 53 92 68c20 9 50 17 94 22c57 5 127 6 148 0c51 -8 77 -20 102 -48c18 -18 37 -49 48 -75c15 -36 20 -66 13 -131l-137 -10
c0 34 -6 57 -24 77c-37 39 -81 38 -126 35c-21 0 -59 -14 -80 -26c-29 -17 -47 -46 -57 -73c-13 -33 -23 -62 -24 -99c-5 -34 -4 -58 0 -91c3 -27 11 -51 26 -71c14 -22 28 -43 49 -63c30 -22 68 -27 110 -22c35 0 64 12 86 39c19 17 19 44 22 67l-151 1l-1 125l182 6
c42 4 86 2 126 -7c9 -33 9 -67 5 -102c-5 -38 -14 -78 -22 -114c-12 -39 -34 -78 -62 -108c-20 -21 -50 -37 -78 -49c-29 -14 -64 -14 -96 -20c-42 -8 -74 1 -107 4z" />
    <glyph glyph-name="H" unicode="H" horiz-adv-x="700" 
d="M201 9l-149 -2c3 245 3 489 18 744l152 -5c-1 -87 -4 -173 3 -286c38 2 209 1 260 0c6 105 1 197 4 293l158 -5c-2 -275 1 -520 -7 -734l-161 -4c2 75 4 155 3 290c-96 -2 -189 -4 -269 -5c-5 -130 -10 -218 -12 -286z" />
    <glyph glyph-name="I" unicode="I" horiz-adv-x="400" 
d="M349 7c-103 -5 -206 -8 -305 -2l7 158l75 2c0 144 0 287 5 433l-83 -3l2 156c103 3 203 2 307 -2v-147l-76 3c-11 -160 -9 -279 -13 -448l80 -1z" />
    <glyph glyph-name="J" unicode="J" horiz-adv-x="550" 
d="M219 -5c-28 3 -53 9 -77 22c-23 9 -46 29 -64 53c-16 28 -26 56 -32 91c-5 32 -7 62 -9 97l-2 71l139 6c0 -33 3 -61 11 -104c9 -38 25 -50 42 -60c17 -6 32 -12 53 -4c15 3 31 23 42 46c21 35 27 66 32 179c-2 122 -1 216 -4 356l145 -4c1 -168 -1 -338 -1 -434
c-6 -76 -18 -126 -33 -168c-15 -44 -40 -76 -62 -101c-26 -19 -48 -29 -80 -37c-32 -9 -67 -6 -100 -9z" />
    <glyph glyph-name="K" unicode="K" horiz-adv-x="650" 
d="M211 6l-157 -3c0 216 0 582 6 735l152 2c3 -25 -4 -215 -4 -292c42 52 89 117 132 170c33 42 56 67 89 101l169 -1c-25 -42 -66 -106 -97 -147c-45 -59 -66 -82 -116 -155c29 -50 202 -336 240 -412c-53 0 -110 -1 -161 1c-25 41 -149 236 -173 279
c-34 -35 -55 -53 -78 -86c-3 -63 0 -129 -2 -192z" />
    <glyph glyph-name="L" unicode="L" horiz-adv-x="600" 
d="M572 2c-106 -4 -449 -5 -516 7c-6 323 -1 478 7 729l160 3c3 -178 -9 -371 -2 -556c103 0 236 0 355 2z" />
    <glyph glyph-name="M" unicode="M" horiz-adv-x="800" 
d="M192 2l-145 -2c-3 255 3 501 14 737l140 5c23 -45 51 -114 81 -171c33 -50 67 -138 102 -189l12 -3c35 45 82 139 118 196c48 90 68 129 101 161l133 -4c5 -238 8 -469 8 -719l-152 -6c-2 112 -3 237 -4 369c-38 -53 -143 -211 -168 -247c-25 -8 -45 -8 -60 0
c-47 65 -134 202 -171 249c-3 -140 -6 -265 -9 -376z" />
    <glyph glyph-name="N" unicode="N" horiz-adv-x="700" 
d="M199 14l-146 -4c-5 234 -3 481 0 722l154 5c41 -63 87 -131 136 -199c48 -67 106 -160 161 -246c4 155 2 312 3 450l145 5c-2 -244 -1 -543 -10 -734l-132 4c-36 34 -98 127 -154 207c-48 64 -95 145 -160 244c-3 -179 -2 -332 3 -454z" />
    <glyph glyph-name="O" unicode="O" horiz-adv-x="700" 
d="M295 -3c-42 13 -71 21 -100 37c-31 17 -50 31 -75 62c-34 41 -59 95 -74 144c-13 48 -16 101 -13 157c7 38 11 92 27 127c11 40 30 72 55 105c32 41 61 72 108 96c44 27 77 29 124 32c48 4 90 -6 130 -25c44 -18 74 -35 108 -71c44 -46 64 -112 79 -172
c9 -65 12 -117 5 -195c-4 -45 -23 -104 -38 -146c-22 -38 -48 -74 -83 -102c-35 -24 -69 -37 -116 -45c-44 -9 -79 -11 -137 -4zM378 162c22 0 65 27 81 58c29 47 37 98 35 155c-3 36 -3 73 -16 106c-8 31 -28 60 -56 80c-18 10 -49 26 -74 23c-47 -9 -81 -24 -109 -72
c-20 -44 -34 -89 -35 -131c2 -31 1 -78 13 -107c10 -26 25 -67 49 -81c37 -27 62 -34 112 -31z" />
    <glyph glyph-name="P" unicode="P" horiz-adv-x="650" 
d="M208 9l-157 -2c5 241 12 487 18 737c182 9 252 5 320 -4c68 -10 129 -44 181 -103c16 -35 31 -62 36 -117l1 -35c-3 -56 -18 -89 -49 -119c-48 -41 -101 -68 -155 -81c-60 -15 -112 -16 -182 -18c-5 -95 -9 -177 -13 -258zM404 453c16 12 28 26 35 42c7 17 6 36 -6 52
c-8 17 -16 23 -28 33c-31 11 -142 15 -183 9l-4 -164s79 3 105 6c26 4 61 9 81 22z" />
    <glyph glyph-name="Q" unicode="Q" horiz-adv-x="750" 
d="M594 -31c-14 26 -45 68 -59 88c-27 -19 -63 -37 -90 -48c-28 -9 -72 -24 -150 -10c-32 8 -68 20 -90 31c-33 10 -59 29 -86 54c-27 34 -44 68 -55 110c-12 38 -21 85 -19 200c4 40 8 82 22 125c11 35 31 73 56 106c18 25 40 48 63 69c23 19 51 36 80 48
c43 16 82 19 126 22c38 -3 71 -9 103 -24c32 -17 64 -32 88 -60c30 -35 53 -76 72 -117c22 -40 38 -90 41 -137c-2 -104 -4 -138 -14 -173c-8 -34 -19 -60 -27 -87c19 -34 40 -66 68 -134zM431 207c-24 36 -51 63 -77 96l94 91c23 -15 56 -34 78 -60c9 22 14 71 12 95
c-4 32 -15 51 -22 66c-16 25 -36 50 -57 67c-30 22 -64 25 -105 22c-35 -6 -72 -33 -99 -61c-30 -32 -55 -99 -56 -160c-7 -71 18 -131 45 -160c32 -28 71 -45 120 -32c21 2 45 16 67 36z" />
    <glyph glyph-name="R" unicode="R" horiz-adv-x="700" 
d="M205 7l-155 1c2 251 2 484 10 731c28 3 138 4 190 7c100 -2 155 -3 213 -15c56 -12 88 -34 126 -83c12 -23 22 -47 25 -76s7 -59 4 -88c-5 -40 -18 -81 -45 -116c-26 -33 -53 -55 -81 -72c66 -118 139 -243 158 -279l-178 -10c-44 72 -81 152 -125 267l-132 3zM434 454
c16 17 21 38 18 64c-4 23 -16 46 -35 62c-33 16 -72 27 -195 16l-9 -167l108 -2c34 -4 77 4 113 27z" />
    <glyph glyph-name="S" unicode="S" horiz-adv-x="650" 
d="M339 -13c-39 0 -82 6 -116 20c-36 15 -70 30 -103 61c-24 28 -44 60 -57 95c-13 30 -19 68 -25 114l179 4c4 -40 18 -76 37 -98c30 -23 60 -32 100 -29c21 2 42 15 57 30c10 23 14 46 7 64c-18 32 -38 53 -71 71c-29 11 -57 22 -84 34c-30 14 -59 31 -86 51
c-29 29 -50 54 -60 87c-16 28 -21 63 -20 100c3 38 20 66 51 95c32 29 70 47 110 62c42 11 85 17 130 14c26 -3 55 -9 82 -18c25 -9 50 -22 73 -46c18 -22 33 -45 43 -71c6 -28 13 -46 13 -104l-168 1c-6 53 -20 72 -43 86c-19 11 -41 12 -59 10c-18 -3 -34 -15 -52 -29
c-6 -6 -11 -20 -6 -40c1 -8 10 -24 24 -31c37 -14 63 -24 95 -42c31 -15 62 -32 89 -54c43 -37 72 -73 96 -107c25 -34 29 -77 37 -114c-2 -26 -10 -55 -19 -78c-14 -26 -33 -45 -52 -66c-25 -27 -59 -43 -96 -52c-34 -9 -69 -17 -106 -20z" />
    <glyph glyph-name="T" unicode="T" horiz-adv-x="700" 
d="M434 9l-172 1c2 160 2 338 6 552c-90 2 -178 0 -237 0l6 171c200 9 416 8 633 13v-178c-77 0 -151 -3 -223 -5c-6 -211 -7 -390 -13 -554z" />
    <glyph glyph-name="U" unicode="U" horiz-adv-x="700" 
d="M305 -13c-27 6 -61 13 -87 25s-47 29 -67 53c-34 44 -54 94 -70 146c-14 53 -23 112 -26 170c-9 122 -5 235 0 357l165 1c-11 -297 -3 -351 4 -403c9 -80 21 -114 47 -149c18 -26 67 -32 104 -27c23 5 52 26 60 39c31 34 33 68 44 125c5 40 11 83 14 126
c0 97 -5 183 -7 295l163 -3c3 -54 5 -113 3 -175c1 -107 -5 -197 -18 -289c-7 -55 -15 -107 -36 -139c-23 -39 -52 -74 -86 -97c-26 -21 -49 -33 -77 -42c-29 -9 -62 -10 -130 -13z" />
    <glyph glyph-name="V" unicode="V" horiz-adv-x="650" 
d="M407 2c-73 -14 -123 -15 -185 3c-55 95 -91 221 -120 321c-30 99 -45 193 -82 400l140 14c23 -109 43 -182 61 -270c26 -101 47 -190 92 -284h9c33 94 67 191 91 288c23 96 45 181 67 269l150 -11c-22 -119 -64 -243 -99 -359c-35 -117 -73 -253 -124 -371z" />
    <glyph glyph-name="W" unicode="W" horiz-adv-x="950" 
d="M694 10c-42 -5 -92 -12 -129 0c-21 50 -67 250 -87 371c-24 -95 -82 -300 -118 -373c-47 -10 -106 -6 -147 0c-39 111 -76 239 -100 358c-31 139 -51 256 -68 362l150 11c23 -74 33 -144 54 -216c21 -73 41 -149 63 -252c20 88 86 316 115 373c33 4 77 3 123 1
c12 -70 62 -284 82 -372c30 112 55 181 75 257c20 74 38 129 56 209l142 -4c-16 -124 -47 -232 -86 -351c-39 -120 -78 -259 -125 -374z" />
    <glyph glyph-name="X" unicode="X" horiz-adv-x="700" 
d="M499 -2c-40 60 -106 193 -137 242h-12c-41 -86 -84 -165 -128 -237l-189 2c20 31 73 124 123 212c42 73 81 143 96 168c-24 40 -64 102 -103 166c-44 74 -88 149 -106 193h170c42 -72 98 -152 144 -241c24 49 112 194 136 245l174 -5c-22 -45 -62 -112 -104 -179
c-43 -68 -87 -136 -114 -177c15 -28 54 -97 98 -176c36 -67 76 -142 104 -200z" />
    <glyph glyph-name="Y" unicode="Y" horiz-adv-x="750" 
d="M451 4l-172 -1c0 113 -2 218 -3 340c-33 63 -78 149 -122 206c-44 56 -116 172 -124 193c64 3 126 6 196 -5c49 -83 100 -176 154 -265c30 51 67 112 101 166c30 48 58 89 76 111c59 6 114 -13 163 -31c-30 -42 -80 -108 -127 -177c-51 -73 -102 -150 -135 -210
c-6 -120 -6 -224 -7 -327z" />
    <glyph glyph-name="Z" unicode="Z" horiz-adv-x="700" 
d="M282 7c-66 0 -140 2 -228 2c-8 31 -7 107 -1 144c97 111 180 194 214 236c44 48 120 130 156 195c-127 -6 -228 -8 -333 -7l-3 158c183 1 372 6 552 3c1 -57 -2 -113 -12 -168c-19 -27 -38 -53 -62 -74c-51 -55 -64 -78 -115 -136c-50 -59 -108 -123 -173 -203
c118 3 262 9 371 8l6 -149c-87 -12 -265 -9 -372 -9z" />
    <glyph glyph-name="bracketleft" unicode="[" horiz-adv-x="500" 
d="M402 -75c-39 -9 -265 -12 -294 -2c-6 302 -10 607 1 913c43 12 250 10 294 8l-1 -147l-151 2c-2 -217 -5 -426 -2 -639h149z" />
    <glyph glyph-name="yen" unicode="&#xa5;" horiz-adv-x="550" 
d="M338 -24l-125 -2l-2 140c-44 -4 -79 -4 -117 -4l1 130c40 4 80 8 116 6l-3 78c-57 2 -116 -1 -153 -3v122c43 6 98 11 142 14c-40 75 -126 256 -148 309l121 7c33 -87 72 -163 109 -224c22 51 77 161 107 222l123 -4c-28 -59 -112 -248 -156 -306c33 -4 108 0 143 -1
l-3 -119c-40 -6 -110 -5 -150 -8l-2 -78c37 2 66 0 120 -3v-122c-47 -2 -89 -3 -124 -7z" />
    <glyph glyph-name="bracketright" unicode="]" horiz-adv-x="500" 
d="M99 -75l4 135h149c3 213 0 422 -2 639l-151 -2l-1 147c44 2 251 4 294 -8c11 -306 7 -611 1 -913c-29 -10 -255 -7 -294 2z" />
    <glyph glyph-name="asciicircum" unicode="^" horiz-adv-x="500" 
d="M156 588l-92 49c33 41 148 151 187 182l25 -1c32 -30 107 -105 160 -172l-78 -52c-33 30 -77 79 -100 99c-21 -19 -86 -76 -102 -105z" />
    <glyph glyph-name="uni0332" unicode="&#x332;" horiz-adv-x="500" 
d="M497 -118c-180 6 -331 0 -494 1l2 119c164 6 311 5 493 7z" />
    <glyph glyph-name="gravecomb" unicode="&#x300;" horiz-adv-x="500" 
d="M374 626c-22 4 -74 11 -143 24c-59 11 -115 19 -136 24l31 135c21 -7 70 -24 123 -46c61 -23 123 -49 142 -59z" />
    <glyph glyph-name="a" unicode="a" horiz-adv-x="550" 
d="M359 -19l-8 49c-33 -24 -82 -36 -122 -33c-52 -3 -98 17 -136 60c-25 39 -42 76 -47 119c-8 59 -12 110 1 179c13 47 37 87 71 124c10 18 37 38 65 48s58 14 92 14c19 1 41 -4 61 -18l3 24l139 3c2 -115 19 -422 30 -548zM295 166c18 -1 33 14 47 39c0 47 -1 109 -15 149
c-20 18 -60 20 -87 16c-22 -11 -42 -25 -53 -55c-11 -28 -11 -52 -11 -76c3 -25 11 -43 26 -62c18 -14 38 -21 61 -21z" />
    <glyph glyph-name="b" unicode="b" horiz-adv-x="600" 
d="M215 4l-158 2c-10 233 0 497 1 776h147l-1 -285c54 24 109 30 163 26c35 -10 79 -26 107 -57c27 -29 44 -59 53 -93c10 -37 27 -93 17 -173c-8 -57 -31 -101 -61 -131c-30 -23 -59 -40 -94 -43c-35 -7 -69 -10 -105 -10l-66 12zM366 186c28 35 28 93 18 120
c-2 22 -14 37 -29 50c-12 9 -38 20 -74 15c-28 -5 -53 -14 -73 -40v-154c34 -8 77 -12 131 -7z" />
    <glyph glyph-name="c" unicode="c" horiz-adv-x="550" 
d="M272 -2c-36 2 -70 9 -100 24c-29 14 -55 39 -81 65c-18 21 -26 37 -37 73c-9 29 -15 61 -14 91c2 39 3 75 11 112c8 36 19 67 39 96c25 37 48 60 71 73c33 17 66 24 105 29c29 4 58 1 94 -4c41 -6 72 -18 103 -57c27 -26 39 -64 45 -113l-125 -39c-14 36 -27 34 -42 49
c-25 10 -50 16 -73 5c-18 -9 -44 -25 -54 -42c-22 -31 -33 -86 -24 -117c9 -38 20 -62 42 -72c18 -15 32 -22 55 -18c30 -5 52 9 68 28c11 18 21 39 33 66l123 -32c-11 -53 -16 -76 -33 -106c-17 -29 -37 -61 -66 -85c-26 -20 -94 -29 -140 -26z" />
    <glyph glyph-name="d" unicode="d" horiz-adv-x="600" 
d="M517 9l-150 -5l-4 27c-53 -20 -125 -31 -172 -28c-33 3 -62 21 -86 51c-26 22 -44 55 -56 90c-10 27 -15 74 -11 123c4 80 26 118 50 151c21 33 35 44 59 63c22 17 49 38 118 45c44 1 77 -5 112 -28l1 282l148 6c0 -294 -1 -579 -9 -777zM372 182c5 43 3 101 -1 145
c-13 17 -30 26 -54 38c-28 6 -50 3 -64 1c-23 -6 -44 -29 -63 -47c-7 -14 -11 -42 -8 -79c7 -27 12 -42 22 -51c18 -23 47 -37 71 -33c33 -5 66 8 97 26z" />
    <glyph glyph-name="e" unicode="e" horiz-adv-x="600" 
d="M241 -9c-28 6 -54 14 -75 26c-25 15 -47 34 -64 55c-22 36 -38 71 -47 105c-14 37 -16 75 -12 117c2 39 12 77 28 114c20 44 39 72 71 100c24 22 40 29 68 39c42 11 81 16 113 16c25 0 51 -3 77 -10c36 -17 62 -36 82 -63c16 -26 26 -54 33 -82c4 -32 11 -61 7 -95
c2 -23 -4 -43 -20 -55c-40 -12 -100 -13 -140 -14c-41 -2 -98 -5 -168 -4c-1 -29 10 -50 24 -76c15 -14 41 -31 76 -33c47 -9 81 0 105 28c12 13 18 29 20 49l134 -20c-8 -45 -21 -70 -37 -96c-15 -25 -43 -42 -69 -63c-28 -16 -56 -25 -85 -33c-29 -12 -61 -10 -121 -5z
M391 356c-7 48 -37 67 -47 74c-32 5 -55 3 -78 -6c-23 -12 -45 -21 -60 -70c18 -6 144 -4 185 2z" />
    <glyph glyph-name="f" unicode="f" horiz-adv-x="500" 
d="M306 2l-152 1l-2 392l-110 1l-3 148l117 -5c5 39 8 70 13 100c7 30 19 60 38 83c22 24 51 37 80 40c27 3 56 7 85 7l77 3v-140h-46c-36 5 -62 -5 -76 -19c-8 -10 -18 -57 -16 -74l131 -1l-2 -138l-134 -1v-397z" />
    <glyph glyph-name="g" unicode="g" horiz-adv-x="550" 
d="M360 -103c-24 -7 -82 -8 -110 -8c-27 0 -49 -2 -73 3c-26 5 -55 16 -75 37c-19 20 -27 31 -36 56c-11 30 -15 61 -15 89l131 -2c-1 -20 4 -41 21 -50c10 -5 36 -13 60 -12c38 1 72 21 83 44c12 21 16 47 9 82c-21 -14 -45 -27 -74 -29c-23 -2 -56 -1 -79 4
c-41 9 -72 23 -105 51c-21 24 -32 53 -40 81c-9 28 -15 75 -11 108c2 28 8 53 19 79c11 21 25 43 45 62c23 19 48 34 74 44c25 9 53 12 85 12c31 -1 61 -3 87 -16l-1 30l150 -14c2 -112 3 -234 4 -364c-3 -47 -7 -109 -19 -150s-28 -66 -59 -97c-20 -22 -46 -32 -71 -40z
M355 274l-4 92c-51 15 -68 22 -91 17c-18 -1 -34 -9 -48 -25c-12 -16 -16 -31 -15 -53c5 -34 18 -41 30 -47c17 -5 37 -8 58 -7c24 1 51 4 70 23z" />
    <glyph glyph-name="h" unicode="h" horiz-adv-x="550" 
d="M199 6h-143c-5 256 -5 508 0 772l148 4c-2 -117 -3 -217 0 -295c47 25 94 35 135 35c46 -4 88 -27 122 -66c22 -30 37 -60 46 -94c9 -49 9 -298 7 -359l-143 4c1 46 0 92 4 181c-3 50 -6 88 -27 134c-11 23 -47 35 -63 31c-15 -2 -30 -8 -45 -25c-14 -16 -24 -30 -34 -64
c-4 -71 -9 -182 -7 -258z" />
    <glyph glyph-name="i" unicode="i" horiz-adv-x="300" 
d="M228 4l-152 1c-2 163 -3 309 9 520l151 7c-8 -205 -10 -367 -8 -528zM165 615c-25 0 -50 6 -66 22c-21 24 -30 59 -21 95c8 20 17 36 29 47c23 12 45 18 74 18c12 -3 24 -14 34 -28c16 -23 24 -48 24 -78c-3 -19 -8 -36 -20 -51c-16 -13 -34 -22 -54 -25z" />
    <glyph glyph-name="j" unicode="j" horiz-adv-x="500" 
d="M195 -98c-38 11 -71 32 -101 72c-17 26 -27 50 -37 83c-4 42 -5 61 -4 93l114 3c2 -29 6 -53 22 -82c10 -13 28 -15 39 -10c12 6 19 17 29 38c13 24 15 47 14 70c10 70 0 205 4 360l137 4c-1 -142 1 -204 -1 -265c6 -62 0 -121 -8 -171c-11 -66 -24 -111 -55 -150
c-17 -24 -48 -42 -81 -49c-24 -5 -48 1 -72 4zM352 620c-34 -4 -64 5 -88 30c-8 15 -12 46 -9 67c1 25 13 43 33 61c16 16 41 20 67 17c21 0 33 -13 44 -28c12 -21 19 -49 15 -77c-7 -32 -14 -51 -33 -64z" />
    <glyph glyph-name="k" unicode="k" horiz-adv-x="500" 
d="M183 7l-131 2c0 269 -2 525 6 773h122c3 -126 2 -254 3 -404c55 59 87 98 134 146l149 -5c-22 -36 -87 -131 -133 -194c28 -67 105 -246 143 -321l-133 2c-37 76 -87 159 -114 215l-46 -45c0 -61 3 -124 0 -169z" />
    <glyph glyph-name="l" unicode="l" horiz-adv-x="250" 
d="M204 2l-149 6c-10 262 3 515 1 774h146c-11 -262 3 -519 2 -780z" />
    <glyph glyph-name="m" unicode="m" horiz-adv-x="800" 
d="M56 -1c-5 183 1 320 5 542l154 5l5 -48c44 29 76 42 124 42c26 -4 56 -16 73 -45l12 -25c29 35 59 55 89 64c23 7 54 10 80 10c40 0 76 -21 104 -62c27 -47 40 -102 44 -175c3 -60 4 -206 0 -302l-129 -3c1 80 3 150 -3 244c-1 27 0 55 -15 77c-18 22 -38 28 -58 25
c-18 -5 -28 -12 -38 -31c-9 -17 -16 -46 -20 -85c0 -80 2 -152 5 -227l-143 -2c2 87 3 173 4 265c0 25 -9 52 -25 71l-10 12c-20 9 -38 10 -53 5c-19 -5 -33 -18 -42 -30c-16 -44 -13 -108 -16 -159c1 -56 -7 -114 -5 -161z" />
    <glyph glyph-name="n" unicode="n" horiz-adv-x="600" 
d="M210 4h-160c-5 181 -3 363 -3 533l155 5l4 -41c57 34 100 38 151 34s99 -13 138 -56c28 -32 46 -54 51 -131c5 -58 5 -113 6 -163l-2 -184l-163 6c1 66 1 133 3 206c-4 44 -6 87 -27 125c-19 19 -47 29 -73 25c-38 -5 -58 -25 -70 -49c-16 -45 -10 -258 -10 -310z" />
    <glyph glyph-name="o" unicode="o" horiz-adv-x="600" 
d="M295 -12c-41 4 -74 16 -107 30c-36 16 -67 41 -97 68c-21 30 -40 61 -49 95c-8 37 -16 79 -9 121c4 31 12 60 24 90s27 56 49 80c22 23 45 41 70 57c25 17 48 26 74 30c43 7 64 5 109 -1c31 -3 61 -17 88 -33c26 -17 51 -40 73 -70c18 -23 30 -52 36 -80
c7 -39 19 -122 -4 -202c-14 -37 -32 -70 -55 -100c-27 -29 -59 -49 -91 -59c-36 -14 -73 -26 -111 -26zM356 166c30 16 51 37 55 80s0 96 -31 119c-22 16 -54 23 -82 20c-33 -1 -64 -23 -82 -47c-13 -16 -15 -43 -19 -67c2 -40 12 -64 33 -88c29 -22 60 -26 90 -26z" />
    <glyph glyph-name="p" unicode="p" horiz-adv-x="600" 
d="M211 -111l-158 1c-5 222 3 437 13 651l165 6v-26c33 20 82 31 121 35c27 -4 56 -3 79 -17c26 -15 46 -29 67 -49c30 -29 58 -97 62 -172c-3 -82 -10 -120 -21 -149c-10 -31 -26 -59 -53 -82c-41 -33 -89 -56 -143 -52c-43 -4 -93 -2 -131 15zM399 221c16 37 24 78 6 120
c-9 30 -27 59 -55 64c-33 8 -93 -9 -127 -31c-7 -61 -8 -134 0 -164c26 -18 81 -29 119 -24c34 5 47 15 57 35z" />
    <glyph glyph-name="q" unicode="q" horiz-adv-x="600" 
d="M537 -114l-150 -1c-1 59 3 119 0 172c-33 -29 -107 -47 -175 -31c-48 12 -86 41 -120 76c-21 24 -38 48 -44 78c-8 30 -12 62 -10 106c2 75 17 110 33 137c15 27 35 54 61 75c25 21 54 35 84 44c28 9 58 13 92 13c31 -6 52 -15 77 -32l2 38l159 -5
c-1 -229 4 -456 -9 -670zM382 216c3 52 1 91 -3 158c-31 21 -66 31 -99 27c-22 -4 -47 -10 -63 -28c-22 -15 -39 -59 -37 -97c2 -40 12 -72 58 -92c22 -8 49 -20 90 -3c15 7 34 20 54 35z" />
    <glyph glyph-name="r" unicode="r" horiz-adv-x="500" 
d="M50 8c-2 187 -1 366 6 545l140 1c2 -30 5 -62 3 -93c27 19 61 42 98 53c86 24 141 21 158 13l-2 -158c-76 4 -117 -23 -149 -43c-32 -18 -65 -41 -91 -72c-3 -65 -8 -154 -7 -246h-156z" />
    <glyph glyph-name="s" unicode="s" horiz-adv-x="550" 
d="M238 -1c-33 4 -83 13 -108 23c-32 13 -70 28 -106 69l68 116l67 -37c32 -15 72 -22 121 -26c36 2 61 7 80 22c7 12 5 31 -13 41c-39 13 -83 24 -120 35c-39 12 -74 34 -104 68c-24 26 -32 58 -27 98c10 39 30 72 63 100c44 34 79 48 125 55c41 7 76 9 123 4
c35 -4 68 -13 103 -35l-41 -135c-14 10 -31 18 -52 23c-42 12 -65 13 -99 8c-33 -9 -51 -32 -54 -54c5 -11 16 -16 35 -16c40 -13 61 -13 96 -24c35 -14 66 -26 93 -58c19 -25 32 -51 35 -82c3 -26 1 -59 -5 -85c-7 -25 -24 -47 -48 -65c-25 -18 -54 -29 -88 -33
c-51 -7 -90 -18 -144 -12z" />
    <glyph glyph-name="t" unicode="t" horiz-adv-x="500" 
d="M306 1c-32 6 -64 13 -95 38c-20 16 -45 52 -52 83c-7 37 -10 164 -4 254l-117 3v167h117l3 146l152 -4l-6 -141l143 -4l-3 -154l-144 -8c-8 -105 -8 -157 17 -187c29 -20 77 -22 129 -22l-6 -165c-42 -7 -95 -14 -134 -6z" />
    <glyph glyph-name="u" unicode="u" horiz-adv-x="650" 
d="M221 2c-37 3 -71 23 -101 57c-24 31 -39 60 -49 111c-7 40 -10 89 -11 133c-1 64 1 139 3 236l141 5c3 -134 3 -197 6 -265c3 -69 29 -98 71 -120c31 -16 73 3 90 24c22 24 38 51 39 106c0 78 -1 158 -7 249l152 8l-1 -156c2 -57 7 -110 11 -163c4 -57 28 -129 43 -179
l-118 -56c-21 26 -31 49 -41 77c-37 -35 -71 -56 -103 -66c-40 -12 -86 -4 -125 -1z" />
    <glyph glyph-name="v" unicode="v" horiz-adv-x="600" 
d="M399 14c-61 -16 -103 -17 -166 -1c-50 75 -84 166 -116 243c-31 77 -58 199 -83 278l157 12c14 -74 80 -275 109 -358l8 -3c37 91 105 310 117 361l142 -4c-23 -102 -46 -183 -66 -260c-22 -77 -74 -201 -102 -268z" />
    <glyph glyph-name="w" unicode="w" horiz-adv-x="800" 
d="M303 13c-54 -6 -104 -14 -156 -3c-26 77 -49 170 -65 246c-16 77 -29 154 -43 284l147 -3c7 -39 18 -86 24 -130c6 -43 19 -91 41 -176c35 108 86 230 102 267c21 11 53 11 79 3c18 -28 34 -141 67 -281c35 78 65 156 80 205c16 43 27 75 41 116l140 2
c-26 -111 -56 -191 -84 -274c-29 -84 -58 -171 -84 -256c-29 -8 -83 -8 -126 0c-9 25 -21 52 -31 82c-9 26 -22 53 -35 82l-16 3c-18 -29 -31 -55 -44 -82c-15 -30 -28 -57 -37 -85z" />
    <glyph glyph-name="x" unicode="x" horiz-adv-x="600" 
d="M216 13l-172 -5c28 66 101 211 142 270c-36 46 -120 191 -156 263l155 6l100 -159c27 43 74 105 102 153l153 -3c-32 -51 -124 -215 -142 -257c31 -45 144 -223 173 -276l-157 1c-25 33 -79 110 -111 162c-45 -74 -61 -111 -87 -155z" />
    <glyph glyph-name="y" unicode="y" horiz-adv-x="600" 
d="M252 -109l-166 4l108 235c-38 100 -158 367 -174 406l148 11c17 -44 85 -186 117 -257c31 56 112 212 131 254h164c-74 -160 -125 -246 -171 -332c-48 -88 -94 -169 -157 -321z" />
    <glyph glyph-name="z" unicode="z" horiz-adv-x="550" 
d="M510 6c-161 0 -318 1 -468 -4c-1 52 3 91 8 138c80 95 179 187 259 266l-230 2l-3 129c137 4 282 7 426 10c4 -50 1 -85 0 -135c-33 -41 -222 -230 -254 -270c80 4 181 11 262 12v-148z" />
    <glyph glyph-name="braceleft" unicode="{" horiz-adv-x="500" 
d="M404 -80c-60 -8 -100 -5 -137 0c-30 9 -58 26 -82 54c-26 36 -35 80 -31 129c3 115 -3 158 -15 206l-44 15c-3 39 -2 79 9 117l51 26c12 35 11 73 20 147c10 74 10 139 55 195c17 21 46 33 85 36c30 4 67 0 93 -3l-1 -102c-37 4 -59 -2 -80 -12c-30 -38 -29 -97 -39 -152
c-2 -34 -1 -61 -4 -123c-4 -23 -14 -45 -28 -60l-28 -15c14 -13 22 -27 25 -35c9 -28 16 -70 13 -98l-2 -67c-9 -70 4 -113 36 -145c12 -11 29 -15 45 -15l63 4z" />
    <glyph glyph-name="brokenbar" unicode="&#xa6;" horiz-adv-x="350" 
d="M232 -84l-116 1c2 308 -1 609 2 927l118 -2c-7 -311 0 -618 -4 -926z" />
    <glyph glyph-name="braceright" unicode="}" horiz-adv-x="500" 
d="M96 -80l-4 102l63 -4c16 0 33 4 45 15c32 32 45 75 36 145l-2 67c-3 28 4 70 13 98c3 8 11 22 25 35l-28 15c-14 15 -24 37 -28 60c-3 62 -2 89 -4 123c-10 55 -9 114 -39 152c-21 10 -43 16 -80 12l-1 102c26 3 63 7 93 3c39 -3 68 -15 85 -36c45 -56 45 -121 55 -195
c9 -74 8 -112 20 -147l51 -26c11 -38 12 -78 9 -117l-44 -15c-12 -48 -18 -91 -15 -206c4 -49 -5 -93 -31 -129c-24 -28 -52 -45 -82 -54c-37 -5 -77 -8 -137 0z" />
    <glyph glyph-name="tilde" unicode="&#x2dc;" horiz-adv-x="499" 
d="M298 632c-23 1 -52 11 -71 24c-18 12 -36 20 -51 18c-31 -15 -71 -44 -96 -61l-47 96c41 41 66 62 124 90c20 7 52 8 70 -2c29 -9 46 -20 68 -30c18 -2 39 6 46 11c20 13 34 27 59 49l65 -88c-25 -32 -50 -52 -76 -73c-23 -20 -64 -35 -91 -34z" />
    <glyph glyph-name="afii57929" unicode="&#x2bc;" horiz-adv-x="300" 
d="M180 548l-72 13l28 93c-36 -4 -52 2 -73 32c-10 17 -14 36 -11 56c2 26 11 50 30 69c20 17 39 23 65 23c38 -4 62 -7 84 -38c15 -19 21 -53 18 -83c-9 -61 -26 -101 -69 -165z" />
    <glyph glyph-name="backslash" unicode="\" horiz-adv-x="500" 
d="M321 -81c-52 156 -92 290 -138 445c-37 150 -85 306 -135 470l128 8c40 -151 89 -298 133 -445c47 -150 94 -320 144 -467z" />
    <glyph glyph-name="uni02BB" unicode="&#x2bb;" horiz-adv-x="300" 
d="M121 834l72 -13l-28 -93c36 4 52 -2 73 -32c10 -17 14 -36 11 -56c-2 -26 -11 -50 -30 -69c-20 -17 -39 -23 -65 -23c-38 4 -62 7 -84 38c-15 19 -21 53 -18 83c9 61 26 101 69 165z" />
    <glyph glyph-name="bar" unicode="|" horiz-adv-x="500" 
 />
    <glyph glyph-name="asciitilde" unicode="~" horiz-adv-x="500" 
 />
    <glyph glyph-name="exclamdown" unicode="&#xa1;" horiz-adv-x="500" 
 />
    <glyph glyph-name="cent" unicode="&#xa2;" horiz-adv-x="500" 
 />
    <glyph glyph-name="sterling" unicode="&#xa3;" horiz-adv-x="500" 
 />
    <glyph glyph-name="fraction" unicode="&#x2044;" horiz-adv-x="500" 
 />
    <glyph glyph-name="florin" unicode="&#x192;" horiz-adv-x="500" 
 />
    <glyph glyph-name="Japan1.106" horiz-adv-x="500" 
 />
    <glyph glyph-name="currency" unicode="&#xa4;" horiz-adv-x="500" 
 />
    <glyph glyph-name="quotedblleft" unicode="&#x201c;" horiz-adv-x="500" 
 />
    <glyph glyph-name="guillemotleft" unicode="&#xab;" horiz-adv-x="500" 
 />
    <glyph glyph-name="guilsinglleft" unicode="&#x2039;" horiz-adv-x="500" 
 />
    <glyph glyph-name="guilsinglright" unicode="&#x203a;" horiz-adv-x="500" 
 />
    <glyph glyph-name="uniFB01" unicode="&#xfb01;" horiz-adv-x="500" 
 />
    <glyph glyph-name="uniFB02" unicode="&#xfb02;" horiz-adv-x="500" 
 />
    <glyph glyph-name="figuredash" unicode="&#x2012;" horiz-adv-x="500" 
 />
    <glyph glyph-name="Japan1.115" horiz-adv-x="500" 
 />
    <glyph glyph-name="Japan1.116" horiz-adv-x="500" 
 />
    <glyph glyph-name="periodcentered" unicode="&#xb7;" horiz-adv-x="500" 
 />
    <glyph glyph-name="Japan1.118" horiz-adv-x="500" 
 />
    <glyph glyph-name="bullet" unicode="&#x2022;" horiz-adv-x="500" 
 />
    <glyph glyph-name="quotesinglbase" unicode="&#x201a;" horiz-adv-x="500" 
 />
    <glyph glyph-name="quotedblbase" unicode="&#x201e;" horiz-adv-x="500" 
 />
    <glyph glyph-name="quotedblright" unicode="&#x201d;" horiz-adv-x="500" 
 />
    <glyph glyph-name="guillemotright" unicode="&#xbb;" horiz-adv-x="500" 
 />
    <glyph glyph-name="ellipsis" unicode="&#x2026;" horiz-adv-x="500" 
 />
    <glyph glyph-name="Japan1.125" horiz-adv-x="500" 
 />
    <glyph glyph-name="questiondown" unicode="&#xbf;" horiz-adv-x="500" 
 />
    <glyph glyph-name="acutecomb" unicode="&#x301;" horiz-adv-x="500" 
 />
    <glyph glyph-name="uni0302" unicode="&#x302;" horiz-adv-x="500" 
 />
    <glyph glyph-name="macron" unicode="&#xaf;" horiz-adv-x="500" 
 />
    <glyph glyph-name="uni0306" unicode="&#x306;" horiz-adv-x="500" 
 />
    <glyph glyph-name="uni0307" unicode="&#x307;" horiz-adv-x="500" 
 />
    <glyph glyph-name="uni0308" unicode="&#x308;" horiz-adv-x="500" 
 />
    <glyph glyph-name="uni030A" unicode="&#x30a;" horiz-adv-x="500" 
 />
    <glyph glyph-name="cedilla" unicode="&#xb8;" horiz-adv-x="500" 
 />
    <glyph glyph-name="uni030B" unicode="&#x30b;" horiz-adv-x="500" 
 />
    <glyph glyph-name="uni0328" unicode="&#x328;" horiz-adv-x="500" 
 />
    <glyph glyph-name="uni030C" unicode="&#x30c;" horiz-adv-x="500" 
 />
    <glyph glyph-name="uni0336" unicode="&#x336;" 
d="M0 320v132h1000v-132h-1000z" />
    <glyph glyph-name="AE" unicode="&#xc6;" horiz-adv-x="500" 
 />
    <glyph glyph-name="ordfeminine" unicode="&#xaa;" horiz-adv-x="500" 
 />
    <glyph glyph-name="Lslash" unicode="&#x141;" horiz-adv-x="500" 
 />
    <glyph glyph-name="Oslash" unicode="&#xd8;" horiz-adv-x="500" 
 />
    <glyph glyph-name="OE" unicode="&#x152;" horiz-adv-x="500" 
 />
    <glyph glyph-name="ordmasculine" unicode="&#xba;" horiz-adv-x="500" 
 />
    <glyph glyph-name="ae" unicode="&#xe6;" horiz-adv-x="500" 
 />
    <glyph glyph-name="dotlessi" unicode="&#x131;" horiz-adv-x="500" 
 />
    <glyph glyph-name="lslash" unicode="&#x142;" horiz-adv-x="500" 
 />
    <glyph glyph-name="oslash" unicode="&#xf8;" horiz-adv-x="500" 
 />
    <glyph glyph-name="oe" unicode="&#x153;" horiz-adv-x="500" 
 />
    <glyph glyph-name="germandbls" unicode="&#xdf;" horiz-adv-x="500" 
 />
    <glyph glyph-name="uni00AD" unicode="&#xad;" horiz-adv-x="500" 
 />
    <glyph glyph-name="copyright" unicode="&#xa9;" horiz-adv-x="500" 
 />
    <glyph glyph-name="logicalnot" unicode="&#xac;" horiz-adv-x="500" 
 />
    <glyph glyph-name="registered" unicode="&#xae;" horiz-adv-x="500" 
 />
    <glyph glyph-name="Japan1.155" horiz-adv-x="500" 
 />
    <glyph glyph-name="Japan1.156" horiz-adv-x="500" 
 />
    <glyph glyph-name="uni00B2" unicode="&#xb2;" horiz-adv-x="500" 
 />
    <glyph glyph-name="uni00B3" unicode="&#xb3;" horiz-adv-x="500" 
 />
    <glyph glyph-name="mu" unicode="&#xb5;" horiz-adv-x="500" 
 />
    <glyph glyph-name="uni00B9" unicode="&#xb9;" horiz-adv-x="500" 
 />
    <glyph glyph-name="onequarter" unicode="&#xbc;" horiz-adv-x="500" 
 />
    <glyph glyph-name="onehalf" unicode="&#xbd;" horiz-adv-x="500" 
 />
    <glyph glyph-name="threequarters" unicode="&#xbe;" horiz-adv-x="500" 
 />
    <glyph glyph-name="Agrave" unicode="&#xc0;" horiz-adv-x="500" 
 />
    <glyph glyph-name="Aacute" unicode="&#xc1;" horiz-adv-x="500" 
 />
    <glyph glyph-name="Acircumflex" unicode="&#xc2;" horiz-adv-x="500" 
 />
    <glyph glyph-name="Atilde" unicode="&#xc3;" horiz-adv-x="500" 
 />
    <glyph glyph-name="Adieresis" unicode="&#xc4;" horiz-adv-x="500" 
 />
    <glyph glyph-name="Aring" unicode="&#xc5;" horiz-adv-x="500" 
 />
    <glyph glyph-name="Ccedilla" unicode="&#xc7;" horiz-adv-x="500" 
 />
    <glyph glyph-name="Egrave" unicode="&#xc8;" horiz-adv-x="500" 
 />
    <glyph glyph-name="Eacute" unicode="&#xc9;" horiz-adv-x="500" 
 />
    <glyph glyph-name="Ecircumflex" unicode="&#xca;" horiz-adv-x="500" 
 />
    <glyph glyph-name="Edieresis" unicode="&#xcb;" horiz-adv-x="500" 
 />
    <glyph glyph-name="Igrave" unicode="&#xcc;" horiz-adv-x="500" 
 />
    <glyph glyph-name="Iacute" unicode="&#xcd;" horiz-adv-x="500" 
 />
    <glyph glyph-name="Icircumflex" unicode="&#xce;" horiz-adv-x="500" 
 />
    <glyph glyph-name="Idieresis" unicode="&#xcf;" horiz-adv-x="500" 
 />
    <glyph glyph-name="Eth" unicode="&#xd0;" horiz-adv-x="500" 
 />
    <glyph glyph-name="Ntilde" unicode="&#xd1;" horiz-adv-x="500" 
 />
    <glyph glyph-name="Ograve" unicode="&#xd2;" horiz-adv-x="500" 
 />
    <glyph glyph-name="Oacute" unicode="&#xd3;" horiz-adv-x="500" 
 />
    <glyph glyph-name="Ocircumflex" unicode="&#xd4;" horiz-adv-x="500" 
 />
    <glyph glyph-name="Otilde" unicode="&#xd5;" horiz-adv-x="500" 
 />
    <glyph glyph-name="Odieresis" unicode="&#xd6;" horiz-adv-x="500" 
 />
    <glyph glyph-name="Japan1.186" horiz-adv-x="500" 
 />
    <glyph glyph-name="Ugrave" unicode="&#xd9;" horiz-adv-x="500" 
 />
    <glyph glyph-name="Uacute" unicode="&#xda;" horiz-adv-x="500" 
 />
    <glyph glyph-name="Ucircumflex" unicode="&#xdb;" horiz-adv-x="500" 
 />
    <glyph glyph-name="Udieresis" unicode="&#xdc;" horiz-adv-x="500" 
 />
    <glyph glyph-name="Yacute" unicode="&#xdd;" horiz-adv-x="500" 
 />
    <glyph glyph-name="Thorn" unicode="&#xde;" horiz-adv-x="500" 
 />
    <glyph glyph-name="agrave" unicode="&#xe0;" horiz-adv-x="500" 
 />
    <glyph glyph-name="aacute" unicode="&#xe1;" horiz-adv-x="500" 
 />
    <glyph glyph-name="acircumflex" unicode="&#xe2;" horiz-adv-x="500" 
 />
    <glyph glyph-name="atilde" unicode="&#xe3;" horiz-adv-x="500" 
 />
    <glyph glyph-name="adieresis" unicode="&#xe4;" horiz-adv-x="500" 
 />
    <glyph glyph-name="aring" unicode="&#xe5;" horiz-adv-x="500" 
 />
    <glyph glyph-name="ccedilla" unicode="&#xe7;" horiz-adv-x="500" 
 />
    <glyph glyph-name="egrave" unicode="&#xe8;" horiz-adv-x="500" 
 />
    <glyph glyph-name="eacute" unicode="&#xe9;" horiz-adv-x="500" 
 />
    <glyph glyph-name="ecircumflex" unicode="&#xea;" horiz-adv-x="500" 
 />
    <glyph glyph-name="edieresis" unicode="&#xeb;" horiz-adv-x="500" 
 />
    <glyph glyph-name="igrave" unicode="&#xec;" horiz-adv-x="500" 
 />
    <glyph glyph-name="iacute" unicode="&#xed;" horiz-adv-x="500" 
 />
    <glyph glyph-name="icircumflex" unicode="&#xee;" horiz-adv-x="500" 
 />
    <glyph glyph-name="idieresis" unicode="&#xef;" horiz-adv-x="500" 
 />
    <glyph glyph-name="eth" unicode="&#xf0;" horiz-adv-x="500" 
 />
    <glyph glyph-name="ntilde" unicode="&#xf1;" horiz-adv-x="500" 
 />
    <glyph glyph-name="ograve" unicode="&#xf2;" horiz-adv-x="500" 
 />
    <glyph glyph-name="oacute" unicode="&#xf3;" horiz-adv-x="500" 
 />
    <glyph glyph-name="ocircumflex" unicode="&#xf4;" horiz-adv-x="500" 
 />
    <glyph glyph-name="otilde" unicode="&#xf5;" horiz-adv-x="500" 
 />
    <glyph glyph-name="odieresis" unicode="&#xf6;" horiz-adv-x="500" 
 />
    <glyph glyph-name="Japan1.215" horiz-adv-x="500" 
 />
    <glyph glyph-name="ugrave" unicode="&#xf9;" horiz-adv-x="500" 
 />
    <glyph glyph-name="uacute" unicode="&#xfa;" horiz-adv-x="500" 
 />
    <glyph glyph-name="ucircumflex" unicode="&#xfb;" horiz-adv-x="500" 
 />
    <glyph glyph-name="udieresis" unicode="&#xfc;" horiz-adv-x="500" 
 />
    <glyph glyph-name="yacute" unicode="&#xfd;" horiz-adv-x="500" 
 />
    <glyph glyph-name="thorn" unicode="&#xfe;" horiz-adv-x="500" 
 />
    <glyph glyph-name="ydieresis" unicode="&#xff;" horiz-adv-x="500" 
 />
    <glyph glyph-name="Scaron" unicode="&#x160;" horiz-adv-x="500" 
 />
    <glyph glyph-name="Ydieresis" unicode="&#x178;" horiz-adv-x="500" 
 />
    <glyph glyph-name="Zcaron" unicode="&#x17d;" horiz-adv-x="500" 
 />
    <glyph glyph-name="uni0305" unicode="&#x305;" horiz-adv-x="500" 
 />
    <glyph glyph-name="scaron" unicode="&#x161;" horiz-adv-x="500" 
 />
    <glyph glyph-name="trademark" unicode="&#x2122;" horiz-adv-x="500" 
 />
    <glyph glyph-name="zcaron" unicode="&#x17e;" horiz-adv-x="500" 
 />
    <glyph glyph-name="Japan1.230" horiz-adv-x="500" 
 />
    <glyph glyph-name="uni2002" unicode="&#x2002;" horiz-adv-x="500" 
 />
    <glyph glyph-name="uni0021.hw" horiz-adv-x="500" 
 />
    <glyph glyph-name="uni0022.hw" horiz-adv-x="500" 
 />
    <glyph glyph-name="uni0023.hw" horiz-adv-x="500" 
 />
    <glyph glyph-name="uni0024.hw" horiz-adv-x="500" 
 />
    <glyph glyph-name="uni0025.hw" horiz-adv-x="500" 
 />
    <glyph glyph-name="uni0026.hw" horiz-adv-x="500" 
 />
    <glyph glyph-name="uni0027.hw" horiz-adv-x="500" 
 />
    <glyph glyph-name="uni0028.hw" horiz-adv-x="500" 
 />
    <glyph glyph-name="uni0029.hw" horiz-adv-x="500" 
 />
    <glyph glyph-name="uni002A.hw" horiz-adv-x="500" 
 />
    <glyph glyph-name="uni002B.hw" horiz-adv-x="500" 
 />
    <glyph glyph-name="uni002C.hw" horiz-adv-x="500" 
 />
    <glyph glyph-name="uni002D.hw" horiz-adv-x="500" 
 />
    <glyph glyph-name="uni002E.hw" horiz-adv-x="500" 
 />
    <glyph glyph-name="uni002F.hw" horiz-adv-x="500" 
 />
    <glyph glyph-name="uni0030.hw" horiz-adv-x="500" 
 />
    <glyph glyph-name="uni0031.hw" horiz-adv-x="500" 
 />
    <glyph glyph-name="uni0032.hw" horiz-adv-x="500" 
 />
    <glyph glyph-name="uni0033.hw" horiz-adv-x="500" 
 />
    <glyph glyph-name="uni0034.hw" horiz-adv-x="500" 
 />
    <glyph glyph-name="uni0035.hw" horiz-adv-x="500" 
 />
    <glyph glyph-name="uni0036.hw" horiz-adv-x="500" 
 />
    <glyph glyph-name="uni0037.hw" horiz-adv-x="500" 
 />
    <glyph glyph-name="uni0038.hw" horiz-adv-x="500" 
 />
    <glyph glyph-name="uni0039.hw" horiz-adv-x="500" 
 />
    <glyph glyph-name="uni003A.hw" horiz-adv-x="500" 
 />
    <glyph glyph-name="uni003B.hw" horiz-adv-x="500" 
 />
    <glyph glyph-name="uni003C.hw" horiz-adv-x="500" 
 />
    <glyph glyph-name="uni003D.hw" horiz-adv-x="500" 
 />
    <glyph glyph-name="uni003E.hw" horiz-adv-x="500" 
 />
    <glyph glyph-name="uni003F.hw" horiz-adv-x="500" 
 />
    <glyph glyph-name="uni0040.hw" horiz-adv-x="500" 
 />
    <glyph glyph-name="uni0041.hw" horiz-adv-x="500" 
 />
    <glyph glyph-name="uni0042.hw" horiz-adv-x="500" 
 />
    <glyph glyph-name="uni0043.hw" horiz-adv-x="500" 
 />
    <glyph glyph-name="uni0044.hw" horiz-adv-x="500" 
 />
    <glyph glyph-name="uni0045.hw" horiz-adv-x="500" 
 />
    <glyph glyph-name="uni0046.hw" horiz-adv-x="500" 
 />
    <glyph glyph-name="uni0047.hw" horiz-adv-x="500" 
 />
    <glyph glyph-name="uni0048.hw" horiz-adv-x="500" 
 />
    <glyph glyph-name="uni0049.hw" horiz-adv-x="500" 
 />
    <glyph glyph-name="uni004A.hw" horiz-adv-x="500" 
 />
    <glyph glyph-name="uni004B.hw" horiz-adv-x="500" 
 />
    <glyph glyph-name="uni004C.hw" horiz-adv-x="500" 
 />
    <glyph glyph-name="uni004D.hw" horiz-adv-x="500" 
 />
    <glyph glyph-name="uni004E.hw" horiz-adv-x="500" 
 />
    <glyph glyph-name="uni004F.hw" horiz-adv-x="500" 
 />
    <glyph glyph-name="uni0050.hw" horiz-adv-x="500" 
 />
    <glyph glyph-name="uni0051.hw" horiz-adv-x="500" 
 />
    <glyph glyph-name="uni0052.hw" horiz-adv-x="500" 
 />
    <glyph glyph-name="uni0053.hw" horiz-adv-x="500" 
 />
    <glyph glyph-name="uni0054.hw" horiz-adv-x="500" 
 />
    <glyph glyph-name="uni0055.hw" horiz-adv-x="500" 
 />
    <glyph glyph-name="uni0056.hw" horiz-adv-x="500" 
 />
    <glyph glyph-name="uni0057.hw" horiz-adv-x="500" 
 />
    <glyph glyph-name="uni0058.hw" horiz-adv-x="500" 
 />
    <glyph glyph-name="uni0059.hw" horiz-adv-x="500" 
 />
    <glyph glyph-name="uni005A.hw" horiz-adv-x="500" 
 />
    <glyph glyph-name="uni005B.hw" horiz-adv-x="500" 
 />
    <glyph glyph-name="uni00A5.hw" horiz-adv-x="500" 
 />
    <glyph glyph-name="uni005D.hw" horiz-adv-x="500" 
 />
    <glyph glyph-name="uni005E.hw" horiz-adv-x="500" 
 />
    <glyph glyph-name="uni005F.hw" horiz-adv-x="500" 
 />
    <glyph glyph-name="uni0060.hw" horiz-adv-x="500" 
 />
    <glyph glyph-name="uni0061.hw" horiz-adv-x="500" 
 />
    <glyph glyph-name="uni0062.hw" horiz-adv-x="500" 
 />
    <glyph glyph-name="uni0063.hw" horiz-adv-x="500" 
 />
    <glyph glyph-name="uni0064.hw" horiz-adv-x="500" 
 />
    <glyph glyph-name="uni0065.hw" horiz-adv-x="500" 
 />
    <glyph glyph-name="uni0066.hw" horiz-adv-x="500" 
 />
    <glyph glyph-name="uni0067.hw" horiz-adv-x="500" 
 />
    <glyph glyph-name="uni0068.hw" horiz-adv-x="500" 
 />
    <glyph glyph-name="uni0069.hw" horiz-adv-x="500" 
 />
    <glyph glyph-name="uni006A.hw" horiz-adv-x="500" 
 />
    <glyph glyph-name="uni006B.hw" horiz-adv-x="500" 
 />
    <glyph glyph-name="uni006C.hw" horiz-adv-x="500" 
 />
    <glyph glyph-name="uni006D.hw" horiz-adv-x="500" 
 />
    <glyph glyph-name="uni006E.hw" horiz-adv-x="500" 
 />
    <glyph glyph-name="uni006F.hw" horiz-adv-x="500" 
 />
    <glyph glyph-name="uni0070.hw" horiz-adv-x="500" 
 />
    <glyph glyph-name="uni0071.hw" horiz-adv-x="500" 
 />
    <glyph glyph-name="uni0072.hw" horiz-adv-x="500" 
 />
    <glyph glyph-name="uni0073.hw" horiz-adv-x="500" 
 />
    <glyph glyph-name="uni0074.hw" horiz-adv-x="500" 
 />
    <glyph glyph-name="uni0075.hw" horiz-adv-x="500" 
 />
    <glyph glyph-name="uni0076.hw" horiz-adv-x="500" 
 />
    <glyph glyph-name="uni0077.hw" horiz-adv-x="500" 
 />
    <glyph glyph-name="uni0078.hw" horiz-adv-x="500" 
 />
    <glyph glyph-name="uni0079.hw" horiz-adv-x="500" 
 />
    <glyph glyph-name="uni007A.hw" horiz-adv-x="500" 
 />
    <glyph glyph-name="uni007B.hw" horiz-adv-x="500" 
 />
    <glyph glyph-name="uniFFE8.hw" unicode="&#xffe8;" horiz-adv-x="500" 
 />
    <glyph glyph-name="uni007D.hw" horiz-adv-x="500" 
 />
    <glyph glyph-name="uni203E.hw" unicode="&#x203e;" horiz-adv-x="500" 
 />
    <glyph glyph-name="Japan1.326.hw" horiz-adv-x="500" 
 />
    <glyph glyph-name="uniFF61" unicode="&#xff61;" horiz-adv-x="500" 
d="M183 -69c-39 3 -71 21 -99 52c-15 17 -24 38 -24 65c0 49 21 94 47 115c21 18 64 30 98 27c23 -3 49 -10 70 -25c29 -27 43 -75 35 -137c-6 -28 -21 -52 -45 -73c-24 -15 -51 -24 -82 -24zM187 10c27 1 41 20 48 45c-7 38 -28 45 -58 45c-21 -8 -33 -36 -33 -57
c13 -23 24 -32 43 -33z" />
    <glyph glyph-name="uniFF62" unicode="&#xff62;" horiz-adv-x="500" 
d="M322 322l-135 -6c-3 180 -1 356 5 530c80 3 225 8 278 2l-1 -161c-48 -7 -97 -4 -144 -11c-5 -120 -3 -248 -3 -354z" />
    <glyph glyph-name="uniFF63" unicode="&#xff63;" horiz-adv-x="500" 
d="M183 446l136 3c3 -180 1 -356 -6 -530c-85 -3 -221 -8 -277 -2l1 165c52 7 93 7 144 14c4 120 3 244 2 350z" />
    <glyph glyph-name="uniFF64" unicode="&#xff64;" horiz-adv-x="500" 
d="M148 -53c-21 49 -93 162 -105 188l94 70c20 -28 91 -145 107 -181z" />
    <glyph glyph-name="uniFF65" unicode="&#xff65;" horiz-adv-x="500" 
d="M241 293c-22 2 -39 12 -57 30s-22 52 -19 82c7 21 19 36 34 47c20 14 45 18 73 16c17 -6 34 -11 44 -22c19 -22 26 -55 23 -85c-6 -17 -10 -36 -24 -46c-17 -19 -47 -25 -74 -22z" />
    <glyph glyph-name="uniFF66" unicode="&#xff66;" horiz-adv-x="500" 
d="M246 -51l-112 75c18 40 54 121 69 153c16 33 33 76 41 113c-48 -2 -77 -3 -158 -1l4 146c60 7 130 9 202 5c14 35 25 98 29 147c-86 5 -188 -7 -276 -9l-2 145c88 6 278 19 417 18c2 -38 0 -112 -9 -186c-11 -86 -30 -151 -52 -230c-24 -88 -63 -190 -97 -270
c-20 -46 -40 -74 -56 -106z" />
    <glyph glyph-name="uniFF67" unicode="&#xff67;" horiz-adv-x="500" 
d="M201 -37l-105 29c13 47 27 104 33 150c6 48 10 117 11 216l117 7c-4 -87 -10 -152 -19 -216c-7 -64 -20 -130 -37 -186zM330 208l-73 84c28 46 62 121 67 133c-48 1 -179 -18 -275 -36l-3 132c48 10 128 25 183 30c114 11 180 9 213 4l2 -105c-15 -51 -56 -152 -114 -242
z" />
    <glyph glyph-name="uniFF68" unicode="&#xff68;" horiz-adv-x="500" 
d="M229 -47c0 99 2 195 -1 284c-28 -31 -99 -97 -123 -123l-63 109c83 81 129 132 186 202c49 59 106 131 150 201l89 -75c-35 -63 -89 -132 -124 -186l3 -17c-1 -70 1 -330 -3 -393z" />
    <glyph glyph-name="uniFF69" unicode="&#xff69;" horiz-adv-x="500" 
d="M303 -44l-93 73c32 52 55 98 82 167c20 50 33 102 47 159c-50 6 -124 3 -182 -6c0 -39 -1 -78 1 -122l-110 -5c-5 75 -6 155 -3 245c25 5 123 7 149 10l6 109l111 2l3 -109c23 -2 86 -6 106 -6l41 -3s4 -41 -3 -99c-6 -67 -26 -131 -39 -176c-26 -83 -66 -167 -116 -239z
" />
    <glyph glyph-name="uniFF6A" unicode="&#xff6a;" horiz-adv-x="500" 
d="M43 11l1 127c49 4 113 8 150 7v217c-40 0 -73 -1 -127 -2l5 140c123 6 246 4 372 -3l-3 -132c-44 0 -82 -1 -128 -1l-1 -217c57 -3 102 0 147 -2l1 -134c-140 -1 -277 -2 -417 0z" />
    <glyph glyph-name="uniFF6B" unicode="&#xff6b;" horiz-adv-x="500" 
d="M370 -44l-115 2c-1 63 -2 126 -1 189c-31 -36 -123 -148 -150 -174l-76 108c46 41 144 160 195 231l35 -37l2 53c-75 -4 -140 -4 -201 -4l-2 131l202 7v137l110 3v-137l89 -1l2 -139h-89c-2 -129 -1 -251 -1 -369z" />
    <glyph glyph-name="uniFF6C" unicode="&#xff6c;" horiz-adv-x="500" 
d="M286 -18l-112 -16c-14 94 -34 257 -43 322l-69 -18l-15 122c21 10 48 20 65 25c-5 32 -12 98 -17 143l110 28l20 -135c56 18 76 28 111 38c33 9 63 19 97 17c13 -42 23 -102 29 -161c-18 -39 -37 -76 -59 -110c-21 -33 -34 -58 -59 -94l-69 85c13 23 59 106 72 136
l-104 -42c10 -98 29 -202 43 -340z" />
    <glyph glyph-name="uniFF6D" unicode="&#xff6d;" horiz-adv-x="500" 
d="M455 11c-132 -2 -291 -6 -411 0l3 133c74 11 123 7 190 12c4 47 6 136 6 199c-57 1 -93 0 -151 -1l-1 136c26 7 215 6 273 2c3 -49 1 -73 -1 -136c-2 -93 -8 -198 -8 -198l97 -10z" />
    <glyph glyph-name="uniFF6E" unicode="&#xff6e;" horiz-adv-x="500" 
d="M424 -17c-132 0 -259 0 -377 1l6 129c83 0 161 -4 254 -1l5 82c-71 1 -134 3 -212 5l7 114c73 8 139 8 210 7l3 71c-89 6 -167 -1 -261 0l1 132c129 0 321 7 389 -3c2 -45 0 -88 -2 -133c-3 -113 -15 -348 -23 -404z" />
    <glyph glyph-name="uniFF6F" unicode="&#xff6f;" horiz-adv-x="500" 
d="M316 -38l-99 54c31 95 63 196 87 278c23 82 46 174 67 268l100 -40c-19 -112 -48 -199 -72 -286s-56 -187 -83 -274zM176 303l-96 -31c-7 55 -31 203 -33 244l97 36c7 -57 26 -187 32 -249zM210 314c-8 58 -23 140 -36 229l97 31c3 -45 23 -150 32 -223z" />
    <glyph glyph-name="uniFF70" unicode="&#xff70;" horiz-adv-x="500" 
d="M26 294l3 145c70 20 140 35 211 39c71 3 141 7 214 6l-3 -150c-70 -7 -149 -15 -217 -21c-67 -7 -143 -14 -208 -19z" />
    <glyph glyph-name="uniFF71" unicode="&#xff71;" horiz-adv-x="500" 
d="M214 -39l-110 31c14 70 29 153 35 217c7 64 15 158 16 286l117 6c-5 -112 -10 -198 -19 -284c-8 -86 -20 -173 -39 -256zM366 318l-90 67c22 63 56 204 63 228c-52 1 -185 -25 -281 -48l-3 146c47 13 128 33 184 40c115 15 174 12 205 6l11 -137
c-16 -65 -37 -183 -89 -302z" />
    <glyph glyph-name="uniFF72" unicode="&#xff72;" horiz-adv-x="500" 
d="M222 -49c0 120 3 252 0 375c-34 -45 -107 -121 -130 -152l-68 127c85 100 134 167 194 254c51 77 114 162 156 246l91 -90c-29 -77 -86 -165 -123 -234l3 -23c0 -88 3 -420 -1 -495z" />
    <glyph glyph-name="uniFF73" unicode="&#xff73;" horiz-adv-x="500" 
d="M310 -48l-107 67c28 66 60 157 84 251c19 69 32 159 47 247c-52 8 -111 4 -168 -8c0 -59 -1 -132 1 -187l-111 -6c-4 97 -5 199 -2 318c21 7 113 9 150 13l6 150l99 3l2 -150c26 -3 91 -8 110 -8l35 -4s3 -44 -2 -123c-6 -93 -26 -178 -38 -240
c-25 -114 -62 -230 -106 -323z" />
    <glyph glyph-name="uniFF74" unicode="&#xff74;" horiz-adv-x="500" 
d="M30 55l1 139c49 5 116 11 158 10l1 324c-46 0 -96 -1 -134 -2l5 149c128 9 260 6 392 -4l-3 -138c-44 -1 -84 -2 -135 -2l-1 -325c64 -4 110 0 155 -3l1 -148c-146 -2 -293 -3 -440 0z" />
    <glyph glyph-name="uniFF75" unicode="&#xff75;" horiz-adv-x="500" 
d="M366 -51l-119 2c-1 81 -2 166 -1 263c-33 -58 -108 -169 -133 -203l-81 95c45 53 131 200 181 290l36 -10l3 65c-76 -5 -124 -6 -183 -7l-2 153l184 12v188l121 4l-3 -188l92 -1l1 -155l-91 -5c-2 -173 -4 -349 -5 -503z" />
    <glyph glyph-name="uniFF76" unicode="&#xff76;" horiz-adv-x="500" 
d="M378 -32l-105 45c10 62 20 130 28 191c10 71 19 163 23 230l-87 -4c-7 -83 -13 -152 -21 -233c-10 -71 -16 -149 -27 -215l-115 8c12 88 20 159 26 222c7 69 13 140 20 211l-87 -9l2 150l98 13c6 65 10 151 10 215h115c-2 -64 -4 -139 -10 -205c17 0 60 -2 103 -4
c46 -2 82 -5 99 -8c0 0 5 -69 -3 -140c-8 -77 -14 -147 -23 -200c-14 -86 -26 -171 -46 -267z" />
    <glyph glyph-name="uniFF77" unicode="&#xff77;" horiz-adv-x="500" 
d="M391 4l-112 -46c-13 82 -28 143 -42 231c-69 -27 -114 -42 -162 -58l-22 164c19 8 129 45 153 49l-17 119c-51 -8 -109 -30 -137 -37l-18 129c42 24 79 33 128 50c-7 51 -11 119 -19 183l120 27c6 -56 19 -114 24 -164l128 28l16 -146c-31 -7 -78 -25 -121 -38l19 -107
c40 12 86 31 115 35l23 -143c-39 -17 -76 -29 -111 -42c9 -43 25 -183 35 -234z" />
    <glyph glyph-name="uniFF78" unicode="&#xff78;" horiz-adv-x="500" 
d="M329 -19l-112 50c21 73 50 179 65 256c19 82 36 172 42 252c-27 2 -85 -4 -127 -15c-13 -53 -44 -199 -54 -229l-107 28c15 89 33 155 48 229c14 70 30 137 47 211l111 -6c-2 -14 -5 -34 -10 -61c78 4 150 6 233 9c0 -54 -4 -102 -12 -158c-14 -75 -24 -144 -45 -241
c-23 -108 -42 -228 -79 -325z" />
    <glyph glyph-name="uniFF79" unicode="&#xff79;" horiz-adv-x="500" 
d="M308 -17l-110 23c12 65 30 174 42 250c12 69 22 142 29 217h-106c-6 -27 -22 -159 -27 -184l-109 10c7 72 19 202 26 266c9 80 15 133 24 200l116 4c-2 -57 -9 -117 -12 -144c98 4 178 7 284 6l-3 -145l-76 -6c-8 -84 -17 -167 -30 -248s-27 -172 -48 -249z" />
    <glyph glyph-name="uniFF7A" unicode="&#xff7a;" horiz-adv-x="500" 
d="M40 27l10 139l257 7c10 118 18 257 14 392l-268 -5l2 141l395 1c-1 -128 -2 -275 -7 -344c-5 -98 -14 -237 -20 -323c-62 -7 -212 -9 -383 -8z" />
    <glyph glyph-name="uniFF7B" unicode="&#xff7b;" horiz-adv-x="500" 
d="M332 -2l-102 16c9 71 18 131 31 229c8 65 13 126 15 199l-70 -1l-4 -180l-103 -1v169l-60 -5l-1 153l58 11l1 169l104 3l1 -168h84c2 38 6 91 7 152l105 1c0 -44 -1 -90 -3 -141l68 -4l-1 -143l-73 -9c-6 -78 -13 -159 -21 -229c-9 -75 -21 -150 -36 -221z" />
    <glyph glyph-name="uniFF7C" unicode="&#xff7c;" horiz-adv-x="500" 
d="M173 -43l-68 121c51 63 97 138 153 213c52 71 92 118 137 191l76 -109c-44 -83 -95 -159 -146 -221c-50 -65 -101 -132 -152 -195zM220 344c-26 0 -140 22 -166 36l9 129c39 0 149 -26 167 -39zM243 575c-40 4 -141 30 -173 37l14 131c35 5 140 -17 169 -42z" />
    <glyph glyph-name="uniFF7D" unicode="&#xff7d;" horiz-adv-x="500" 
d="M104 -14l-74 101c35 65 79 163 119 244c34 75 73 163 112 255l-192 -6l3 158l319 8l-2 -138c-13 -52 -61 -190 -81 -234c21 -38 43 -83 67 -118c23 -33 76 -138 96 -161l-70 -108c-24 28 -67 87 -90 124c-24 38 -48 76 -71 120c-24 -53 -44 -94 -67 -135
c-26 -41 -47 -78 -69 -110z" />
    <glyph glyph-name="uniFF7E" unicode="&#xff7e;" horiz-adv-x="500" 
d="M249 -11c-23 4 -56 2 -75 17c-20 14 -33 31 -51 67c-10 25 -19 59 -21 91c-3 30 -5 61 -5 96l4 164l-65 -22l2 154c23 14 40 18 65 28c-1 48 5 139 9 180l110 9c-4 -54 -4 -125 -5 -167c34 4 70 6 112 8c61 2 109 -3 132 -3l4 -141c-28 -77 -41 -115 -77 -208l-84 49
c11 48 30 105 47 157c-38 -4 -119 -10 -140 -16c-2 -58 -4 -108 -4 -151c2 -41 0 -110 18 -137c10 -21 25 -33 59 -28c47 10 89 20 141 28l-2 -144c-55 -22 -119 -28 -174 -31z" />
    <glyph glyph-name="uniFF7F" unicode="&#xff7f;" horiz-adv-x="500" 
d="M291 -26l-108 53c33 109 71 222 108 370c29 117 49 230 71 349l107 -32c-22 -141 -51 -269 -79 -396c-30 -127 -60 -234 -99 -344zM197 410l-99 -58c-15 46 -51 280 -62 335l101 59c16 -99 50 -263 60 -336z" />
    <glyph glyph-name="uniFF80" unicode="&#xff80;" horiz-adv-x="500" 
d="M314 -42l-119 43c14 31 63 221 71 265c-27 7 -57 32 -87 50l34 142l88 -32c9 40 18 74 23 139c-17 4 -106 4 -126 4c-13 -44 -45 -174 -72 -242l-96 85c16 55 41 150 59 211c14 47 23 109 32 167l113 -30l-4 -39c73 -6 186 -4 232 -14c-1 -36 -4 -76 -9 -114
c-11 -81 -26 -189 -45 -284c-29 -133 -57 -241 -94 -351z" />
    <glyph glyph-name="uniFF81" unicode="&#xff81;" horiz-adv-x="500" 
d="M265 -42l-118 45c13 35 43 207 49 250c-60 0 -102 -5 -157 -2l3 153c59 5 105 9 173 12c6 42 11 98 10 146c-46 -16 -107 -42 -131 -52l-30 121c46 33 114 72 163 99c47 26 85 43 161 74l34 -145l-74 -45c-1 -63 -3 -124 -8 -184c42 -2 96 1 126 1l1 -166
c-57 -3 -107 -7 -144 -10c-17 -124 -26 -179 -58 -297z" />
    <glyph glyph-name="uniFF82" unicode="&#xff82;" horiz-adv-x="500" 
d="M323 -19l-106 52c31 119 61 245 86 351c24 106 46 211 66 334l107 -35c-20 -141 -50 -252 -75 -365s-49 -227 -78 -337zM164 403l-97 -28c-7 70 -32 265 -34 313l97 31c7 -72 27 -240 34 -316zM203 425c-7 73 -24 186 -37 298l101 28c3 -56 24 -192 33 -286z" />
    <glyph glyph-name="uniFF83" unicode="&#xff83;" horiz-adv-x="500" 
d="M255 -38l-125 27c12 47 28 110 36 153c10 40 18 100 27 165h-159l4 134c141 11 282 17 422 25l-5 -143l-129 -12c-9 -75 -20 -139 -34 -193c-13 -67 -25 -98 -37 -156zM94 618l-4 136c99 13 201 18 303 18l4 -134c-104 -15 -204 -9 -303 -20z" />
    <glyph glyph-name="uniFF84" unicode="&#xff84;" horiz-adv-x="500" 
d="M266 -15l-130 -7c4 266 2 534 8 797l127 8c1 -110 2 -212 4 -294c41 -8 135 -57 176 -86c1 -56 -4 -111 -6 -161c-46 13 -127 47 -174 53c-2 -139 -5 -225 -5 -310z" />
    <glyph glyph-name="uniFF85" unicode="&#xff85;" horiz-adv-x="500" 
d="M260 -44l-126 35c13 81 28 161 38 228c13 80 19 165 20 199c-51 -3 -133 -3 -154 -3l2 152c38 3 120 11 164 12c7 68 9 151 11 225h130c0 -76 -4 -170 -8 -218c0 0 96 1 127 1v-158c-44 -5 -82 -3 -136 -7c-3 -69 -18 -176 -27 -250c-10 -76 -18 -132 -41 -216z" />
    <glyph glyph-name="uniFF86" unicode="&#xff86;" horiz-adv-x="500" 
d="M40 72l-3 160c126 10 279 7 418 13l-1 -169c-141 -7 -280 -9 -414 -4zM396 545c-97 -4 -199 -10 -288 -15v149c97 18 193 18 287 17z" />
    <glyph glyph-name="uniFF87" unicode="&#xff87;" horiz-adv-x="500" 
d="M197 -33l-94 103c18 38 80 142 87 174c-26 16 -75 63 -98 91l64 132c33 -25 70 -51 100 -68c13 44 46 136 55 178l-261 -10l-1 162l406 13c2 -41 7 -104 0 -152c-15 -61 -63 -195 -87 -277c29 -32 66 -72 90 -91l-63 -137c-24 25 -58 53 -87 69c-21 -39 -33 -65 -52 -99
c-19 -36 -35 -53 -59 -88z" />
    <glyph glyph-name="uniFF88" unicode="&#xff88;" horiz-adv-x="500" 
d="M292 -57l-108 -3l3 179c-25 -33 -52 -60 -92 -110l-62 117c38 51 68 91 109 146c31 42 70 96 101 149c-74 -8 -129 -14 -186 -16l-2 150c110 13 237 20 346 22c6 -56 2 -93 -4 -144c-30 -52 -74 -111 -102 -160c-2 -112 -2 -224 -3 -330zM430 57c-60 45 -90 65 -128 91
l55 143c38 -21 85 -60 122 -87zM261 609c-30 28 -87 57 -136 94l68 128c17 -10 118 -71 134 -88z" />
    <glyph glyph-name="uniFF89" unicode="&#xff89;" horiz-adv-x="500" 
d="M151 -31l-106 84c29 55 70 151 90 194c39 83 81 186 113 281c30 86 65 159 91 257l115 -47c-37 -154 -82 -290 -128 -409c-50 -125 -103 -234 -175 -360z" />
    <glyph glyph-name="uniFF8A" unicode="&#xff8a;" horiz-adv-x="500" 
d="M470 95l-107 -60c-15 112 -33 216 -47 321c-13 106 -38 270 -48 382l110 21c14 -120 33 -207 47 -319c13 -116 30 -223 45 -345zM143 23l-112 42c14 126 34 278 43 383c7 105 21 195 32 302l118 -22c-9 -126 -28 -248 -39 -357c-12 -107 -25 -209 -42 -348z" />
    <glyph glyph-name="uniFF8B" unicode="&#xff8b;" horiz-adv-x="500" 
d="M251 -11c-31 0 -58 8 -89 22c-29 13 -54 37 -73 70c-21 32 -33 64 -37 135c-4 193 -3 376 2 550l119 11l2 -179c97 1 179 -3 247 -3l-5 -127c-65 -6 -147 -11 -245 -11c0 -81 2 -159 4 -195s11 -65 25 -91c28 -27 65 -34 105 -26c24 4 44 7 67 14c21 2 41 9 63 12
l24 -127c-35 -19 -68 -29 -103 -39c-36 -9 -71 -16 -106 -16z" />
    <glyph glyph-name="uniFF8C" unicode="&#xff8c;" horiz-adv-x="500" 
d="M259 -14l-107 70c27 67 70 177 98 251c28 76 61 174 78 247c-108 -4 -194 -12 -279 -18l1 162c70 13 141 16 210 19c66 3 131 3 194 3c3 -59 5 -109 0 -172c-26 -103 -52 -208 -84 -305c-33 -97 -72 -172 -111 -257z" />
    <glyph glyph-name="uniFF8D" unicode="&#xff8d;" horiz-adv-x="500" 
d="M391 39c-62 131 -151 322 -176 385c-19 -51 -68 -190 -95 -257l-95 82c21 81 51 163 74 234c25 71 47 144 82 193c7 7 25 10 38 4c48 -74 92 -176 135 -256c43 -79 95 -199 135 -298z" />
    <glyph glyph-name="uniFF8E" unicode="&#xff8e;" horiz-adv-x="500" 
d="M187 -34c0 69 1 417 1 514c-25 4 -111 -1 -141 -2l2 158c51 3 87 0 141 2c-1 51 -2 111 -1 168l116 4c3 -52 4 -120 3 -176c54 -1 85 -1 125 -5l2 -144c-45 -1 -84 -1 -127 -1c2 -96 0 -420 -1 -512zM128 42l-99 25c5 70 28 264 37 305l97 -27c-10 -76 -27 -248 -35 -303
zM474 112l-98 -45c-7 37 -42 239 -48 283l91 42c14 -63 42 -197 55 -280z" />
    <glyph glyph-name="uniFF8F" unicode="&#xff8f;" horiz-adv-x="500" 
d="M281 -27c-33 57 -145 297 -179 360l81 100c10 -15 28 -41 46 -83c17 35 37 78 49 104c17 37 36 79 51 115c-100 3 -193 -17 -291 -21l2 159c143 20 286 27 425 25c4 -58 4 -106 0 -164c-21 -59 -49 -135 -73 -185c-23 -53 -53 -108 -82 -162c20 -40 49 -114 61 -145z" />
    <glyph glyph-name="uniFF90" unicode="&#xff90;" horiz-adv-x="500" 
d="M427 -10c-117 -8 -179 4 -230 25c-59 27 -126 67 -170 95l54 148c54 -28 111 -67 167 -88c70 -25 116 -33 177 -40zM372 233c-54 17 -219 92 -274 120l33 135c42 -15 81 -30 135 -57c38 -17 94 -43 131 -73zM434 481c-84 27 -271 119 -317 149l53 142
c47 -25 251 -117 295 -151z" />
    <glyph glyph-name="uniFF91" unicode="&#xff91;" horiz-adv-x="500" 
d="M368 15c-9 56 -17 86 -21 113c-61 -24 -102 -34 -147 -50c-48 -17 -99 -30 -147 -47c-13 50 -21 104 -24 161c30 90 60 184 89 277c28 94 68 206 98 296l112 -38c-30 -90 -57 -171 -77 -245c-23 -77 -52 -184 -75 -254c38 10 87 29 148 49l-17 121l112 43
c19 -124 41 -259 59 -384z" />
    <glyph glyph-name="uniFF92" unicode="&#xff92;" horiz-adv-x="500" 
d="M116 -40l-92 81c25 42 59 110 81 157c22 48 46 90 68 138c-20 15 -95 80 -124 106l70 141c29 -18 85 -66 111 -81c21 50 43 109 62 158c19 47 33 82 47 137l112 -43c-14 -54 -38 -132 -54 -179c-18 -51 -42 -100 -58 -151c29 -27 101 -77 132 -106l-70 -137
c-27 18 -98 61 -126 77c-30 -61 -46 -115 -73 -162c-27 -46 -54 -95 -86 -136z" />
    <glyph glyph-name="uniFF93" unicode="&#xff93;" horiz-adv-x="500" 
d="M313 -22c-21 1 -50 14 -65 23c-16 10 -27 29 -37 49c-12 23 -14 57 -20 85c-5 29 -9 57 -8 152c-54 -5 -96 -8 -143 -9l2 149c46 6 87 15 142 22c2 39 3 108 6 150l-106 1l4 153c111 6 227 13 344 16l-2 -160l-129 -3c-2 -53 -3 -109 -2 -144c50 -3 101 0 157 3l-2 -148
c-59 -8 -104 -14 -154 -17l1 -94c0 -26 3 -57 15 -67c16 -19 35 -11 60 -9c21 5 52 8 71 15l2 -146c-46 -17 -94 -19 -136 -21z" />
    <glyph glyph-name="uniFF94" unicode="&#xff94;" horiz-adv-x="500" 
d="M284 -5l-117 -23c-14 121 -35 345 -45 443l-61 -26l-26 156c20 10 47 24 66 31c-5 51 -12 142 -18 196l115 39l21 -185c66 24 80 37 117 51c35 13 67 26 101 24c12 -54 22 -133 29 -213c-20 -50 -35 -94 -57 -141c-20 -43 -33 -65 -54 -97l-77 74c12 27 12 45 36 100
c11 27 21 56 31 86l-106 -52c11 -139 31 -282 45 -463z" />
    <glyph glyph-name="uniFF95" unicode="&#xff95;" horiz-adv-x="500" 
d="M470 52c-139 -4 -312 -9 -438 0l4 153c75 15 126 10 203 17c5 91 8 230 8 321c-67 2 -104 1 -162 -1l-2 151c24 10 229 9 288 3c3 -57 1 -87 -1 -160c-3 -122 -8 -312 -8 -312l105 -13z" />
    <glyph glyph-name="uniFF96" unicode="&#xff96;" horiz-adv-x="500" 
d="M431 15c-134 0 -268 0 -388 2l6 153c84 0 157 -5 261 -2l6 132c-82 1 -140 4 -217 7l6 129c73 11 135 11 215 10l4 123c-100 9 -174 -1 -268 0l1 154c131 0 333 9 400 -5c2 -52 0 -106 -2 -166c-4 -152 -15 -469 -24 -537z" />
    <glyph glyph-name="uniFF97" unicode="&#xff97;" horiz-adv-x="500" 
d="M318 -34l-115 68c25 57 53 139 66 173c18 51 41 111 61 169c-93 1 -199 -13 -287 -28l-5 150c138 25 268 34 418 40c7 -50 8 -107 7 -163c-20 -74 -34 -121 -55 -182c-26 -78 -59 -156 -90 -227zM410 615c-113 5 -222 2 -328 -5v152c109 10 218 12 327 10z" />
    <glyph glyph-name="uniFF98" unicode="&#xff98;" horiz-adv-x="500" 
d="M379 -32l-117 26c21 141 36 261 47 382c12 117 17 253 11 400l127 5c6 -87 1 -263 -13 -440c-10 -125 -27 -249 -55 -373zM70 260c-1 75 -5 150 -4 241c0 89 5 186 9 256l124 9c-2 -51 -4 -160 -5 -264c-1 -81 3 -152 3 -221z" />
    <glyph glyph-name="uniFF99" unicode="&#xff99;" horiz-adv-x="500" 
d="M137 -17l-114 15c15 111 29 272 37 396c8 116 9 215 17 351l110 -1c-4 -126 -6 -249 -12 -378c-7 -131 -19 -259 -38 -383zM338 -11c-30 -2 -73 -5 -98 5c-7 133 -3 296 -3 422c0 119 1 236 3 352l114 11c-3 -110 -5 -203 -5 -301c1 -84 -3 -211 -3 -285
c24 25 62 71 90 98l49 -126c-18 -26 -99 -133 -147 -176z" />
    <glyph glyph-name="uniFF9A" unicode="&#xff9a;" horiz-adv-x="500" 
d="M198 -10c-44 -4 -92 -5 -128 4c-3 138 -8 269 -9 412c0 125 2 247 6 360l131 5c-2 -103 0 -215 -3 -322c-3 -117 -1 -208 -1 -275c47 27 70 49 110 77c43 34 76 52 113 79l57 -135c-31 -28 -81 -80 -132 -115c-49 -33 -82 -64 -144 -90z" />
    <glyph glyph-name="uniFF9B" unicode="&#xff9b;" horiz-adv-x="500" 
d="M433 32c-43 -4 -115 -10 -186 -9c-71 2 -146 5 -194 13c-2 122 -2 237 -2 341c0 108 -2 232 3 317c47 7 114 10 182 15c105 9 208 5 228 1c1 -44 2 -87 -1 -139c-3 -53 -8 -199 -12 -287c-8 -133 -12 -206 -18 -252zM331 180c7 111 9 257 10 391c-70 -3 -105 -5 -173 -14
c-3 -127 2 -260 5 -373c67 -7 95 -7 158 -4z" />
    <glyph glyph-name="uniFF9C" unicode="&#xff9c;" horiz-adv-x="500" 
d="M341 -7l-119 58c26 83 57 179 69 249c14 80 30 193 38 280l-164 -12c-1 -40 1 -150 0 -208l-123 -4c-3 57 -5 326 -3 364c137 11 278 15 418 15c5 -34 5 -107 3 -162c-14 -157 -6 -103 -24 -230c-23 -133 -50 -241 -95 -350z" />
    <glyph glyph-name="uniFF9D" unicode="&#xff9d;" horiz-adv-x="500" 
d="M110 -48l-65 138c44 47 86 99 115 132s71 96 100 138c57 83 88 129 119 178l90 -84c-37 -75 -92 -162 -134 -240c-44 -78 -86 -129 -155 -196c-25 -24 -52 -56 -70 -66zM251 532c-67 13 -138 20 -199 35l19 155c65 -9 128 -24 194 -36z" />
    <glyph glyph-name="uniFF9E" unicode="&#xff9e;" horiz-adv-x="500" 
d="M58 635c-10 56 -26 123 -39 167l62 35c11 -39 34 -135 38 -178zM147 674c-8 61 -31 134 -42 163l63 33c17 -46 34 -116 38 -169z" />
    <glyph glyph-name="uniFF9F" unicode="&#xff9f;" horiz-adv-x="500" 
d="M58 635c-10 56 -26 123 -39 167l62 35c11 -39 34 -135 38 -178zM147 674c-8 61 -31 134 -42 163l63 33c17 -46 34 -116 38 -169z" />
    <glyph glyph-name="Japan1.646.hw" horiz-adv-x="500" 
 />
    <glyph glyph-name="Japan1.1004.hw" horiz-adv-x="500" 
 />
    <glyph glyph-name="Japan1.1005.hw" horiz-adv-x="500" 
 />
    <glyph glyph-name="Japan1.1002.hw" horiz-adv-x="500" 
 />
    <glyph glyph-name="Japan1.1009.hw" horiz-adv-x="500" 
 />
    <glyph glyph-name="Japan1.1010.hw" horiz-adv-x="500" 
 />
    <glyph glyph-name="Japan1.1008.hw" horiz-adv-x="500" 
 />
    <glyph glyph-name="Japan1.936.hw" horiz-adv-x="500" 
 />
    <glyph glyph-name="Japan1.938.hw" horiz-adv-x="500" 
 />
    <glyph glyph-name="Japan1.940.hw" horiz-adv-x="500" 
 />
    <glyph glyph-name="Japan1.942.hw" horiz-adv-x="500" 
 />
    <glyph glyph-name="Japan1.944.hw" horiz-adv-x="500" 
 />
    <glyph glyph-name="Japan1.946.hw" horiz-adv-x="500" 
 />
    <glyph glyph-name="Japan1.948.hw" horiz-adv-x="500" 
 />
    <glyph glyph-name="Japan1.950.hw" horiz-adv-x="500" 
 />
    <glyph glyph-name="Japan1.952.hw" horiz-adv-x="500" 
 />
    <glyph glyph-name="Japan1.954.hw" horiz-adv-x="500" 
 />
    <glyph glyph-name="Japan1.956.hw" horiz-adv-x="500" 
 />
    <glyph glyph-name="Japan1.958.hw" horiz-adv-x="500" 
 />
    <glyph glyph-name="Japan1.961.hw" horiz-adv-x="500" 
 />
    <glyph glyph-name="Japan1.963.hw" horiz-adv-x="500" 
 />
    <glyph glyph-name="Japan1.965.hw" horiz-adv-x="500" 
 />
    <glyph glyph-name="Japan1.972.hw" horiz-adv-x="500" 
 />
    <glyph glyph-name="Japan1.973.hw" horiz-adv-x="500" 
 />
    <glyph glyph-name="Japan1.975.hw" horiz-adv-x="500" 
 />
    <glyph glyph-name="Japan1.976.hw" horiz-adv-x="500" 
 />
    <glyph glyph-name="Japan1.978.hw" horiz-adv-x="500" 
 />
    <glyph glyph-name="Japan1.979.hw" horiz-adv-x="500" 
 />
    <glyph glyph-name="Japan1.981.hw" horiz-adv-x="500" 
 />
    <glyph glyph-name="Japan1.982.hw" horiz-adv-x="500" 
 />
    <glyph glyph-name="Japan1.984.hw" horiz-adv-x="500" 
 />
    <glyph glyph-name="Japan1.421.hw" horiz-adv-x="500" 
 />
    <glyph glyph-name="Japan1.422.hw" horiz-adv-x="500" 
 />
    <glyph glyph-name="Japan1.423.hw" horiz-adv-x="500" 
 />
    <glyph glyph-name="Japan1.424.hw" horiz-adv-x="500" 
 />
    <glyph glyph-name="uni2500.hw" horiz-adv-x="500" 
 />
    <glyph glyph-name="uni2501.hw" horiz-adv-x="500" 
 />
    <glyph glyph-name="uni2502.hw" horiz-adv-x="500" 
 />
    <glyph glyph-name="uni2503.hw" horiz-adv-x="500" 
 />
    <glyph glyph-name="uni2504.hw" horiz-adv-x="500" 
 />
    <glyph glyph-name="uni2505.hw" horiz-adv-x="500" 
 />
    <glyph glyph-name="uni2506.hw" horiz-adv-x="500" 
 />
    <glyph glyph-name="uni2507.hw" horiz-adv-x="500" 
 />
    <glyph glyph-name="uni2508.hw" horiz-adv-x="500" 
 />
    <glyph glyph-name="uni2509.hw" horiz-adv-x="500" 
 />
    <glyph glyph-name="uni250A.hw" horiz-adv-x="500" 
 />
    <glyph glyph-name="uni250B.hw" horiz-adv-x="500" 
 />
    <glyph glyph-name="uni250C.hw" horiz-adv-x="500" 
 />
    <glyph glyph-name="uni250D.hw" horiz-adv-x="500" 
 />
    <glyph glyph-name="uni250E.hw" horiz-adv-x="500" 
 />
    <glyph glyph-name="uni250F.hw" horiz-adv-x="500" 
 />
    <glyph glyph-name="uni2510.hw" horiz-adv-x="500" 
 />
    <glyph glyph-name="uni2511.hw" horiz-adv-x="500" 
 />
    <glyph glyph-name="uni2512.hw" horiz-adv-x="500" 
 />
    <glyph glyph-name="uni2513.hw" horiz-adv-x="500" 
 />
    <glyph glyph-name="uni2514.hw" horiz-adv-x="500" 
 />
    <glyph glyph-name="uni2515.hw" horiz-adv-x="500" 
 />
    <glyph glyph-name="uni2516.hw" horiz-adv-x="500" 
 />
    <glyph glyph-name="uni2517.hw" horiz-adv-x="500" 
 />
    <glyph glyph-name="uni2518.hw" horiz-adv-x="500" 
 />
    <glyph glyph-name="uni2519.hw" horiz-adv-x="500" 
 />
    <glyph glyph-name="uni251A.hw" horiz-adv-x="500" 
 />
    <glyph glyph-name="uni251B.hw" horiz-adv-x="500" 
 />
    <glyph glyph-name="uni251C.hw" horiz-adv-x="500" 
 />
    <glyph glyph-name="uni251D.hw" horiz-adv-x="500" 
 />
    <glyph glyph-name="uni251E.hw" horiz-adv-x="500" 
 />
    <glyph glyph-name="uni251F.hw" horiz-adv-x="500" 
 />
    <glyph glyph-name="uni2520.hw" horiz-adv-x="500" 
 />
    <glyph glyph-name="uni2521.hw" horiz-adv-x="500" 
 />
    <glyph glyph-name="uni2522.hw" horiz-adv-x="500" 
 />
    <glyph glyph-name="uni2523.hw" horiz-adv-x="500" 
 />
    <glyph glyph-name="uni2524.hw" horiz-adv-x="500" 
 />
    <glyph glyph-name="uni2525.hw" horiz-adv-x="500" 
 />
    <glyph glyph-name="uni2526.hw" horiz-adv-x="500" 
 />
    <glyph glyph-name="uni2527.hw" horiz-adv-x="500" 
 />
    <glyph glyph-name="uni2528.hw" horiz-adv-x="500" 
 />
    <glyph glyph-name="uni2529.hw" horiz-adv-x="500" 
 />
    <glyph glyph-name="uni252A.hw" horiz-adv-x="500" 
 />
    <glyph glyph-name="uni252B.hw" horiz-adv-x="500" 
 />
    <glyph glyph-name="uni252C.hw" horiz-adv-x="500" 
 />
    <glyph glyph-name="uni252D.hw" horiz-adv-x="500" 
 />
    <glyph glyph-name="uni252E.hw" horiz-adv-x="500" 
 />
    <glyph glyph-name="uni252F.hw" horiz-adv-x="500" 
 />
    <glyph glyph-name="uni2530.hw" horiz-adv-x="500" 
 />
    <glyph glyph-name="uni2531.hw" horiz-adv-x="500" 
 />
    <glyph glyph-name="uni2532.hw" horiz-adv-x="500" 
 />
    <glyph glyph-name="uni2533.hw" horiz-adv-x="500" 
 />
    <glyph glyph-name="uni2534.hw" horiz-adv-x="500" 
 />
    <glyph glyph-name="uni2535.hw" horiz-adv-x="500" 
 />
    <glyph glyph-name="uni2536.hw" horiz-adv-x="500" 
 />
    <glyph glyph-name="uni2537.hw" horiz-adv-x="500" 
 />
    <glyph glyph-name="uni2538.hw" horiz-adv-x="500" 
 />
    <glyph glyph-name="uni2539.hw" horiz-adv-x="500" 
 />
    <glyph glyph-name="uni253A.hw" horiz-adv-x="500" 
 />
    <glyph glyph-name="uni253B.hw" horiz-adv-x="500" 
 />
    <glyph glyph-name="uni253C.hw" horiz-adv-x="500" 
 />
    <glyph glyph-name="uni253D.hw" horiz-adv-x="500" 
 />
    <glyph glyph-name="uni253E.hw" horiz-adv-x="500" 
 />
    <glyph glyph-name="uni253F.hw" horiz-adv-x="500" 
 />
    <glyph glyph-name="uni2540.hw" horiz-adv-x="500" 
 />
    <glyph glyph-name="uni2541.hw" horiz-adv-x="500" 
 />
    <glyph glyph-name="uni2542.hw" horiz-adv-x="500" 
 />
    <glyph glyph-name="uni2543.hw" horiz-adv-x="500" 
 />
    <glyph glyph-name="uni2544.hw" horiz-adv-x="500" 
 />
    <glyph glyph-name="uni2545.hw" horiz-adv-x="500" 
 />
    <glyph glyph-name="uni2546.hw" horiz-adv-x="500" 
 />
    <glyph glyph-name="uni2547.hw" horiz-adv-x="500" 
 />
    <glyph glyph-name="uni2548.hw" horiz-adv-x="500" 
 />
    <glyph glyph-name="uni2549.hw" horiz-adv-x="500" 
 />
    <glyph glyph-name="uni254A.hw" horiz-adv-x="500" 
 />
    <glyph glyph-name="uni254B.hw" horiz-adv-x="500" 
 />
    <glyph glyph-name="Japan1.645.hw" horiz-adv-x="500" 
 />
    <glyph glyph-name="Japan1.647.hw" horiz-adv-x="500" 
 />
    <glyph glyph-name="Japan1.672.hw" horiz-adv-x="500" 
 />
    <glyph glyph-name="uni3014.hw" horiz-adv-x="500" 
 />
    <glyph glyph-name="uni3015.hw" horiz-adv-x="500" 
 />
    <glyph glyph-name="uni3008.hw" horiz-adv-x="500" 
 />
    <glyph glyph-name="uni3009.hw" horiz-adv-x="500" 
 />
    <glyph glyph-name="uni300A.hw" horiz-adv-x="500" 
 />
    <glyph glyph-name="uni300B.hw" horiz-adv-x="500" 
 />
    <glyph glyph-name="uni300C.hw" horiz-adv-x="500" 
 />
    <glyph glyph-name="uni300D.hw" horiz-adv-x="500" 
 />
    <glyph glyph-name="uni300E.hw" horiz-adv-x="500" 
 />
    <glyph glyph-name="uni300F.hw" horiz-adv-x="500" 
 />
    <glyph glyph-name="Japan1.514.hw" horiz-adv-x="500" 
 />
    <glyph glyph-name="Japan1.515.hw" horiz-adv-x="500" 
 />
    <glyph glyph-name="Japan1.923.hw" horiz-adv-x="500" 
 />
    <glyph glyph-name="Japan1.842.hw" horiz-adv-x="500" 
 />
    <glyph glyph-name="Japan1.844.hw" horiz-adv-x="500" 
 />
    <glyph glyph-name="Japan1.846.hw" horiz-adv-x="500" 
 />
    <glyph glyph-name="Japan1.848.hw" horiz-adv-x="500" 
 />
    <glyph glyph-name="Japan1.850.hw" horiz-adv-x="500" 
 />
    <glyph glyph-name="Japan1.908.hw" horiz-adv-x="500" 
 />
    <glyph glyph-name="Japan1.910.hw" horiz-adv-x="500" 
 />
    <glyph glyph-name="Japan1.912.hw" horiz-adv-x="500" 
 />
    <glyph glyph-name="Japan1.876.hw" horiz-adv-x="500" 
 />
    <glyph glyph-name="Japan1.843.hw" horiz-adv-x="500" 
 />
    <glyph glyph-name="Japan1.845.hw" horiz-adv-x="500" 
 />
    <glyph glyph-name="Japan1.847.hw" horiz-adv-x="500" 
 />
    <glyph glyph-name="Japan1.849.hw" horiz-adv-x="500" 
 />
    <glyph glyph-name="Japan1.851.hw" horiz-adv-x="500" 
 />
    <glyph glyph-name="Japan1.852.hw" horiz-adv-x="500" 
 />
    <glyph glyph-name="Japan1.854.hw" horiz-adv-x="500" 
 />
    <glyph glyph-name="Japan1.856.hw" horiz-adv-x="500" 
 />
    <glyph glyph-name="Japan1.858.hw" horiz-adv-x="500" 
 />
    <glyph glyph-name="Japan1.860.hw" horiz-adv-x="500" 
 />
    <glyph glyph-name="Japan1.862.hw" horiz-adv-x="500" 
 />
    <glyph glyph-name="Japan1.864.hw" horiz-adv-x="500" 
 />
    <glyph glyph-name="Japan1.866.hw" horiz-adv-x="500" 
 />
    <glyph glyph-name="Japan1.868.hw" horiz-adv-x="500" 
 />
    <glyph glyph-name="Japan1.870.hw" horiz-adv-x="500" 
 />
    <glyph glyph-name="Japan1.872.hw" horiz-adv-x="500" 
 />
    <glyph glyph-name="Japan1.874.hw" horiz-adv-x="500" 
 />
    <glyph glyph-name="Japan1.877.hw" horiz-adv-x="500" 
 />
    <glyph glyph-name="Japan1.879.hw" horiz-adv-x="500" 
 />
    <glyph glyph-name="Japan1.881.hw" horiz-adv-x="500" 
 />
    <glyph glyph-name="Japan1.883.hw" horiz-adv-x="500" 
 />
    <glyph glyph-name="Japan1.884.hw" horiz-adv-x="500" 
 />
    <glyph glyph-name="Japan1.885.hw" horiz-adv-x="500" 
 />
    <glyph glyph-name="Japan1.886.hw" horiz-adv-x="500" 
 />
    <glyph glyph-name="Japan1.887.hw" horiz-adv-x="500" 
 />
    <glyph glyph-name="Japan1.888.hw" horiz-adv-x="500" 
 />
    <glyph glyph-name="Japan1.891.hw" horiz-adv-x="500" 
 />
    <glyph glyph-name="Japan1.894.hw" horiz-adv-x="500" 
 />
    <glyph glyph-name="Japan1.897.hw" horiz-adv-x="500" 
 />
    <glyph glyph-name="Japan1.900.hw" horiz-adv-x="500" 
 />
    <glyph glyph-name="Japan1.903.hw" horiz-adv-x="500" 
 />
    <glyph glyph-name="Japan1.904.hw" horiz-adv-x="500" 
 />
    <glyph glyph-name="Japan1.905.hw" horiz-adv-x="500" 
 />
    <glyph glyph-name="Japan1.906.hw" horiz-adv-x="500" 
 />
    <glyph glyph-name="Japan1.907.hw" horiz-adv-x="500" 
 />
    <glyph glyph-name="Japan1.909.hw" horiz-adv-x="500" 
 />
    <glyph glyph-name="Japan1.911.hw" horiz-adv-x="500" 
 />
    <glyph glyph-name="Japan1.913.hw" horiz-adv-x="500" 
 />
    <glyph glyph-name="Japan1.914.hw" horiz-adv-x="500" 
 />
    <glyph glyph-name="Japan1.915.hw" horiz-adv-x="500" 
 />
    <glyph glyph-name="Japan1.916.hw" horiz-adv-x="500" 
 />
    <glyph glyph-name="Japan1.917.hw" horiz-adv-x="500" 
 />
    <glyph glyph-name="Japan1.918.hw" horiz-adv-x="500" 
 />
    <glyph glyph-name="Japan1.920.hw" horiz-adv-x="500" 
 />
    <glyph glyph-name="Japan1.924.hw" horiz-adv-x="500" 
 />
    <glyph glyph-name="Japan1.921.hw" horiz-adv-x="500" 
 />
    <glyph glyph-name="Japan1.922.hw" horiz-adv-x="500" 
 />
    <glyph glyph-name="Japan1.919.hw" horiz-adv-x="500" 
 />
    <glyph glyph-name="Japan1.853.hw" horiz-adv-x="500" 
 />
    <glyph glyph-name="Japan1.855.hw" horiz-adv-x="500" 
 />
    <glyph glyph-name="Japan1.857.hw" horiz-adv-x="500" 
 />
    <glyph glyph-name="Japan1.859.hw" horiz-adv-x="500" 
 />
    <glyph glyph-name="Japan1.861.hw" horiz-adv-x="500" 
 />
    <glyph glyph-name="Japan1.863.hw" horiz-adv-x="500" 
 />
    <glyph glyph-name="Japan1.865.hw" horiz-adv-x="500" 
 />
    <glyph glyph-name="Japan1.867.hw" horiz-adv-x="500" 
 />
    <glyph glyph-name="Japan1.869.hw" horiz-adv-x="500" 
 />
    <glyph glyph-name="Japan1.871.hw" horiz-adv-x="500" 
 />
    <glyph glyph-name="Japan1.873.hw" horiz-adv-x="500" 
 />
    <glyph glyph-name="Japan1.875.hw" horiz-adv-x="500" 
 />
    <glyph glyph-name="Japan1.878.hw" horiz-adv-x="500" 
 />
    <glyph glyph-name="Japan1.880.hw" horiz-adv-x="500" 
 />
    <glyph glyph-name="Japan1.882.hw" horiz-adv-x="500" 
 />
    <glyph glyph-name="Japan1.889.hw" horiz-adv-x="500" 
 />
    <glyph glyph-name="Japan1.890.hw" horiz-adv-x="500" 
 />
    <glyph glyph-name="Japan1.892.hw" horiz-adv-x="500" 
 />
    <glyph glyph-name="Japan1.893.hw" horiz-adv-x="500" 
 />
    <glyph glyph-name="Japan1.895.hw" horiz-adv-x="500" 
 />
    <glyph glyph-name="Japan1.896.hw" horiz-adv-x="500" 
 />
    <glyph glyph-name="Japan1.898.hw" horiz-adv-x="500" 
 />
    <glyph glyph-name="Japan1.899.hw" horiz-adv-x="500" 
 />
    <glyph glyph-name="Japan1.901.hw" horiz-adv-x="500" 
 />
    <glyph glyph-name="Japan1.902.hw" horiz-adv-x="500" 
 />
    <glyph glyph-name="uni00C4.hw" horiz-adv-x="500" 
 />
    <glyph glyph-name="uni00F9.hw" horiz-adv-x="500" 
 />
    <glyph glyph-name="uni00E9.hw" horiz-adv-x="500" 
 />
    <glyph glyph-name="uni00ED.hw" horiz-adv-x="500" 
 />
    <glyph glyph-name="uni00DF.hw" horiz-adv-x="500" 
 />
    <glyph glyph-name="uni00E7.hw" horiz-adv-x="500" 
 />
    <glyph glyph-name="uni00C7.hw" horiz-adv-x="500" 
 />
    <glyph glyph-name="uni00D1.hw" horiz-adv-x="500" 
 />
    <glyph glyph-name="uni00F1.hw" horiz-adv-x="500" 
 />
    <glyph glyph-name="uni00A2.hw" horiz-adv-x="500" 
 />
    <glyph glyph-name="uni00A3.hw" horiz-adv-x="500" 
 />
    <glyph glyph-name="uni00F3.hw" horiz-adv-x="500" 
 />
    <glyph glyph-name="uni00FA.hw" horiz-adv-x="500" 
 />
    <glyph glyph-name="uni00A1.hw" horiz-adv-x="500" 
 />
    <glyph glyph-name="uni00BF.hw" horiz-adv-x="500" 
 />
    <glyph glyph-name="uni00BD.hw" horiz-adv-x="500" 
 />
    <glyph glyph-name="uni00D6.hw" horiz-adv-x="500" 
 />
    <glyph glyph-name="uni00DC.hw" horiz-adv-x="500" 
 />
    <glyph glyph-name="uni00E4.hw" horiz-adv-x="500" 
 />
    <glyph glyph-name="uni00EB.hw" horiz-adv-x="500" 
 />
    <glyph glyph-name="uni00EF.hw" horiz-adv-x="500" 
 />
    <glyph glyph-name="uni00F6.hw" horiz-adv-x="500" 
 />
    <glyph glyph-name="uni00FC.hw" horiz-adv-x="500" 
 />
    <glyph glyph-name="uni00E2.hw" horiz-adv-x="500" 
 />
    <glyph glyph-name="uni00EA.hw" horiz-adv-x="500" 
 />
    <glyph glyph-name="uni00EE.hw" horiz-adv-x="500" 
 />
    <glyph glyph-name="uni00F4.hw" horiz-adv-x="500" 
 />
    <glyph glyph-name="uni00FB.hw" horiz-adv-x="500" 
 />
    <glyph glyph-name="uni00E0.hw" horiz-adv-x="500" 
 />
    <glyph glyph-name="uni00E8.hw" horiz-adv-x="500" 
 />
    <glyph glyph-name="Japan1.629.hw" horiz-adv-x="500" 
 />
    <glyph glyph-name="uni00E1.hw" horiz-adv-x="500" 
 />
    <glyph glyph-name="Japan1.631.hw" horiz-adv-x="500" 
 />
    <glyph glyph-name="uni00D8.hw" horiz-adv-x="500" 
 />
    <glyph glyph-name="uni2003" unicode="&#x2003;" 
 />
    <glyph glyph-name="uni3001" unicode="&#x3001;" 
d="M172 -53c-27 53 -111 162 -126 190l112 89c23 -30 115 -141 135 -179z" />
    <glyph glyph-name="uni3002" unicode="&#x3002;" 
d="M203 -69c-45 3 -83 24 -115 60c-18 20 -28 44 -28 76c0 57 24 109 54 133c26 21 76 35 114 32c28 -4 58 -12 82 -30c34 -31 50 -86 41 -159c-7 -32 -25 -60 -52 -84c-29 -18 -60 -28 -96 -28zM208 23c31 1 47 23 55 52c-8 44 -32 52 -67 52c-25 -9 -38 -42 -38 -66
c15 -27 27 -37 50 -38z" />
    <glyph glyph-name="uniFF0C" unicode="&#xff0c;" 
d="M152 -102l-64 20l26 77c-40 -3 -57 2 -81 32c-10 17 -15 36 -12 60c3 26 12 49 33 68c22 17 43 23 71 23c33 -3 59 -6 83 -36c16 -19 23 -52 20 -82c-10 -60 -29 -100 -76 -162z" />
    <glyph glyph-name="uniFF0E" unicode="&#xff0e;" 
d="M101 -89c-25 2 -48 19 -62 39c-11 20 -17 43 -17 67c3 30 14 57 36 80c18 17 43 23 69 27c25 -4 47 -14 65 -34c14 -20 22 -40 25 -63c2 -33 -9 -63 -33 -87c-23 -20 -42 -26 -83 -29z" />
    <glyph glyph-name="uni30FB" unicode="&#x30fb;" 
d="M487 273c-27 3 -49 15 -71 37s-26 64 -23 101c9 25 23 44 42 57c24 17 55 23 89 20c21 -7 42 -13 55 -27c23 -27 32 -67 28 -104c-7 -21 -13 -44 -30 -57c-20 -23 -57 -30 -90 -27z" />
    <glyph glyph-name="uniFF1A" unicode="&#xff1a;" 
d="M484 59c-23 0 -42 10 -58 29c-13 23 -19 45 -16 71c3 22 14 44 30 60c23 19 54 27 83 27c17 -3 34 -9 48 -26c16 -22 23 -48 23 -77c-8 -25 -15 -50 -30 -65c-22 -16 -51 -22 -80 -19zM475 504c-24 7 -47 21 -59 48c-14 17 -10 42 -6 64c10 39 22 55 58 72
c21 9 42 10 71 1c28 -9 47 -28 53 -51l7 -45c-4 -30 -13 -54 -30 -72c-32 -17 -51 -25 -94 -17z" />
    <glyph glyph-name="uniFF1B" unicode="&#xff1b;" 
d="M529 -8l-82 29c10 10 25 46 22 63c-24 0 -40 10 -54 30c-10 16 -13 33 -10 57c7 25 18 42 30 56c17 14 37 24 57 27c30 4 57 -6 77 -27c24 -26 30 -60 27 -100c-10 -43 -26 -76 -67 -135zM493 500c-29 4 -51 16 -66 35c-17 18 -26 42 -23 68c-2 27 9 48 35 74
c17 10 39 22 68 21c24 -3 47 -11 65 -29c16 -21 27 -45 26 -80c-7 -27 -12 -59 -37 -74s-48 -16 -68 -15z" />
    <glyph glyph-name="uniFF1F" unicode="&#xff1f;" 
d="M467 -29c-30 9 -54 34 -64 64l-3 29c3 24 17 47 41 65c16 13 39 16 67 13c26 -13 46 -33 57 -61c4 -15 7 -30 3 -49c-6 -21 -17 -33 -28 -41c-19 -16 -44 -24 -73 -20zM410 197l-4 106c3 39 16 60 41 85c17 13 68 25 94 40c21 13 38 36 49 59l10 57c0 24 -10 51 -27 64
c-22 21 -57 34 -124 24c-18 -6 -38 -22 -49 -38c-22 -32 -26 -67 -20 -138l-153 -4c-5 46 -6 90 0 133c4 25 9 53 20 76c24 50 40 57 61 72c31 22 66 29 99 38c35 9 74 12 112 13c45 -4 70 -9 97 -16c36 -10 55 -23 81 -48c27 -37 42 -63 51 -109c8 -39 9 -86 3 -130
c-11 -45 -33 -83 -69 -113c-23 -20 -43 -33 -66 -47c-20 -14 -47 -27 -55 -60v-63z" />
    <glyph glyph-name="uniFF01" unicode="&#xff01;" 
d="M491 -39c-25 2 -37 8 -52 15c-22 19 -29 46 -29 73c5 28 17 53 41 74c15 9 38 12 60 12c28 -6 49 -23 61 -51c5 -22 6 -43 0 -62c-4 -21 -16 -39 -36 -55c-13 -6 -28 -7 -45 -6zM431 212c-23 195 -36 424 -39 549c71 8 143 8 216 1c-17 -201 -31 -377 -51 -550h-126z" />
    <glyph glyph-name="uni309B" unicode="&#x309b;" 
d="M74 635c-13 56 -36 123 -55 167l88 35c16 -39 49 -135 55 -178zM202 674c-11 61 -44 134 -60 163l90 33c24 -46 49 -116 54 -169z" />
    <glyph glyph-name="uni309C" unicode="&#x309c;" 
d="M95 657c-27 4 -54 23 -68 45c-9 14 -15 40 -15 61c0 47 17 69 49 89c17 11 41 14 59 17c35 0 69 -8 86 -27c18 -18 33 -60 23 -104c-3 -23 -16 -43 -33 -61c-30 -17 -61 -26 -101 -20zM146 732c17 34 10 57 -19 68c-10 -1 -20 -5 -30 -10c-8 -13 -13 -32 -11 -44
c5 -18 33 -25 60 -14z" />
    <glyph glyph-name="acute" unicode="&#xb4;" 
d="M347 685l-20 78c23 10 97 36 169 59c64 22 124 40 150 47l27 -130c-25 -5 -94 -17 -164 -29c-69 -11 -136 -21 -162 -25z" />
    <glyph glyph-name="uniFF40" unicode="&#xff40;" 
d="M656 685c-26 4 -88 11 -171 24c-70 11 -136 21 -161 26l33 134c26 -7 86 -25 150 -47c72 -23 146 -49 169 -59z" />
    <glyph glyph-name="dieresis" unicode="&#xa8;" 
d="M614 708c-29 9 -48 31 -58 52v26c3 28 17 51 39 67l32 13c26 -3 47 -12 64 -26c15 -23 19 -51 15 -86c-12 -35 -51 -51 -92 -46zM362 704l-37 16c-23 16 -34 41 -30 70c5 17 11 34 26 47c15 17 31 26 53 26c23 -3 45 -12 61 -29c13 -13 17 -30 19 -47
c-4 -19 -5 -39 -22 -55c-19 -19 -42 -28 -70 -28z" />
    <glyph glyph-name="uniFF3E" unicode="&#xff3e;" 
d="M625 606c-40 37 -83 72 -121 96c-50 -26 -85 -67 -119 -95l-102 70c15 13 63 72 108 109c41 34 74 57 112 66c35 -3 79 -35 118 -64c42 -31 73 -56 98 -80z" />
    <glyph glyph-name="uniFFE3" unicode="&#xffe3;" 
d="M999 876l-1 -127c-366 2 -661 1 -991 7l-4 119z" />
    <glyph glyph-name="uniFF3F" unicode="&#xff3f;" 
d="M995 -118l-992 1l4 119c330 6 625 5 991 7z" />
    <glyph glyph-name="uni30FD" unicode="&#x30fd;" 
d="M748 166l-181 -70c-31 78 -95 181 -138 253c-45 73 -96 143 -173 239l157 102c52 -45 105 -103 148 -159c39 -55 79 -111 106 -168c18 -32 65 -132 81 -197z" />
    <glyph glyph-name="uni30FE" unicode="&#x30fe;" 
d="M730 160l-181 -70c-31 78 -95 181 -138 253c-45 73 -96 143 -173 239l157 102c52 -45 105 -103 148 -159c39 -55 79 -111 106 -168c18 -32 65 -132 81 -197zM611 488c-11 56 -30 123 -47 167l75 35c14 -39 42 -135 47 -178zM726 522c-9 61 -37 134 -51 163l77 33
c20 -46 41 -116 46 -169z" />
    <glyph glyph-name="uni309D" unicode="&#x309d;" 
d="M732 127c-57 -26 -122 -53 -218 -65c-85 -10 -144 -14 -184 -14l2 148c63 -6 176 14 255 43c-51 93 -130 154 -187 211c-56 57 -107 108 -157 158l129 104c113 -112 183 -174 240 -250c61 -83 102 -139 146 -215c-3 -34 -2 -79 -26 -120z" />
    <glyph glyph-name="uni309E" unicode="&#x309e;" 
d="M732 127c-57 -26 -122 -53 -218 -65c-85 -10 -144 -14 -184 -14l2 148c63 -6 176 14 255 43c-51 93 -130 154 -187 211c-56 57 -107 108 -157 158l129 104c113 -112 183 -174 240 -250c61 -83 102 -139 146 -215c-3 -34 -2 -79 -26 -120zM628 514c-11 56 -30 123 -47 167
l75 35c14 -39 42 -135 47 -178zM760 553c-9 61 -37 134 -51 163l77 33c20 -46 41 -116 46 -169z" />
    <glyph glyph-name="uni3003" unicode="&#x3003;" 
d="M318 106l-145 53c37 63 70 150 93 221c20 70 37 147 48 274h170c-7 -109 -20 -204 -40 -288c-24 -83 -76 -187 -126 -260zM651 105l-153 39c33 70 62 152 82 226c17 70 27 147 37 281h165c5 -53 -18 -218 -35 -301c-16 -84 -48 -173 -96 -245z" />
    <glyph glyph-name="uni4EDD" unicode="&#x4edd;" 
d="M756 -44c-173 -1 -345 0 -502 1l3 137l171 -1c6 30 2 73 9 115l-115 4l7 132c122 6 242 5 365 0l1 -138l-114 -1c-1 -31 2 -79 -3 -109l179 -3zM202 204l-139 97c76 94 135 170 196 254c65 89 123 171 198 256l135 -62l-14 -29c72 -59 158 -127 222 -188
c63 -61 119 -104 157 -138l-87 -127c-67 51 -105 75 -168 129c-64 54 -133 126 -210 187c-50 -61 -100 -133 -150 -191c-48 -63 -93 -128 -140 -188z" />
    <glyph glyph-name="uni3005" unicode="&#x3005;" 
d="M703 -10c-98 44 -314 126 -352 151l63 129l98 -37c22 36 38 70 54 103c17 33 30 65 49 106c-46 12 -85 28 -154 50c-28 -44 -99 -168 -163 -273l-152 60c41 78 92 166 128 241s80 165 114 237l163 -66l-14 -42c88 -28 270 -68 307 -89c-28 -91 -48 -141 -78 -196
c-29 -56 -63 -109 -103 -186l99 -39z" />
    <glyph glyph-name="uni3006" unicode="&#x3006;" 
d="M325 -27l-99 33c-23 22 -45 46 -60 68c-25 58 -30 126 -30 153c4 66 17 118 32 171c17 53 35 101 58 151c15 37 76 111 101 123l74 -1c59 -11 128 -31 169 -53c21 33 71 126 95 169l147 -64c-10 -27 -36 -79 -89 -174c35 -31 84 -71 142 -163l-105 -112
c-25 38 -67 90 -109 115c-39 -76 -93 -158 -128 -217c-34 -58 -133 -167 -198 -199zM306 143c44 27 86 108 102 143c21 47 72 137 89 176c-42 25 -100 43 -155 40c-27 -51 -45 -98 -59 -145c-15 -46 -19 -98 -12 -154c3 -21 26 -45 35 -60z" />
    <glyph glyph-name="uni3007" unicode="&#x3007;" 
d="M419 18c-39 4 -80 24 -111 47c-33 20 -65 45 -93 75c-23 29 -41 65 -55 102c-15 36 -24 74 -21 116c-3 56 6 108 27 155c20 45 49 88 86 124c29 25 65 50 100 70c51 30 126 41 202 40c58 -12 90 -28 136 -55c42 -25 82 -59 116 -101c20 -29 34 -59 43 -91
c9 -37 12 -72 15 -108c-3 -49 -9 -109 -28 -153c-20 -48 -38 -88 -75 -120c-46 -40 -86 -63 -146 -81c-55 -22 -116 -29 -196 -20zM621 226c26 15 42 53 57 102c10 32 5 67 -2 105c-6 32 -19 62 -39 88c-23 29 -50 44 -106 66c-40 -8 -73 -13 -97 -25
c-35 -17 -67 -44 -86 -67c-36 -45 -44 -137 -27 -185c8 -24 19 -48 36 -67c40 -32 85 -46 145 -47c48 1 83 12 119 30z" />
    <glyph glyph-name="uni30FC" unicode="&#x30fc;" 
d="M114 287l6 168c125 20 253 35 381 39c127 3 254 7 386 6l-6 -173c-126 -7 -268 -15 -391 -21c-122 -7 -258 -14 -376 -19z" />
    <glyph glyph-name="afii00208" unicode="&#x2015;" 
d="M0 320v132h1000v-132h-1000z" />
    <glyph glyph-name="uni2010" unicode="&#x2010;" 
d="M719 304c-149 4 -310 0 -439 -2l-1 151c148 7 296 9 443 7z" />
    <glyph glyph-name="uniFF0F" unicode="&#xff0f;" 
d="M152 -105l-114 104c200 203 335 353 457 482c122 127 244 256 362 385l106 -86c-111 -124 -309 -356 -404 -453c-107 -108 -237 -263 -407 -432z" />
    <glyph glyph-name="uniFF3C" unicode="&#xff3c;" 
d="M849 -105c-170 169 -300 324 -407 432c-95 97 -293 329 -404 453l106 86c118 -129 240 -258 362 -385c122 -129 257 -279 457 -482z" />
    <glyph glyph-name="uni301C" unicode="&#x301c;" 
d="M619 224c-53 6 -102 22 -145 53c-45 26 -104 69 -149 74c-39 4 -84 -18 -117 -32c-37 -16 -79 -43 -112 -57l-63 137c60 39 101 63 148 85c51 29 111 44 163 33c43 -10 86 -42 129 -61c44 -24 93 -50 148 -61c55 -2 94 18 138 40c38 20 77 66 121 106l88 -138
c-53 -49 -105 -87 -158 -128c-30 -21 -61 -34 -91 -42c-30 -9 -64 -13 -100 -9z" />
    <glyph glyph-name="uni2016" unicode="&#x2016;" 
d="M322 -67c-4 303 3 594 6 896l114 3c-4 -313 -13 -603 -13 -901zM677 -71l-114 3c-7 330 3 609 5 898h107c8 -299 0 -572 2 -901z" />
    <glyph glyph-name="uniFF5C" unicode="&#xff5c;" 
d="M556 -71l-120 1c2 300 -1 591 2 901l122 -2c-7 -303 0 -600 -4 -900z" />
    <glyph glyph-name="uni2026.dup2" unicode="&#x2026;" 
d="M847 291c-33 -1 -60 9 -83 24c-16 18 -25 43 -22 71c-1 26 11 46 24 65c27 21 57 26 104 23l26 -16c26 -27 36 -56 29 -94c-6 -21 -11 -39 -30 -57c-10 -9 -27 -16 -48 -16zM457 292c-16 10 -29 22 -39 39c-9 17 -13 34 -10 52c5 33 15 48 31 68c23 16 48 21 84 24
c37 -12 58 -32 68 -68l4 -38c0 -20 -9 -44 -22 -58c-28 -26 -64 -29 -116 -19zM130 285c-14 2 -31 15 -43 30c-11 20 -15 49 -12 82c8 45 21 66 53 72c19 8 56 4 78 -1c17 -6 29 -19 36 -35c10 -24 13 -42 10 -72c-6 -24 -13 -44 -28 -57c-24 -23 -57 -22 -94 -19z" />
    <glyph glyph-name="twodotenleader" unicode="&#x2025;" 
d="M737 284c-28 4 -51 13 -67 27c-13 17 -21 38 -20 73c0 27 6 52 24 66c36 23 64 26 98 22c16 -3 34 -10 50 -20c15 -15 22 -41 22 -71c-5 -37 -9 -55 -32 -77c-25 -19 -38 -19 -75 -20zM256 277c-26 0 -47 10 -64 27c-16 23 -27 51 -27 81c12 57 24 77 70 89
c23 10 54 7 75 1c24 -10 41 -23 54 -40l8 -39c-1 -47 -9 -71 -33 -95c-23 -14 -56 -24 -83 -24z" />
    <glyph glyph-name="quoteleft" unicode="&#x2018;" 
d="M811 846l84 -13l-33 -97c42 4 60 -2 85 -33c11 -18 16 -38 13 -58c-3 -27 -13 -52 -35 -72c-23 -18 -45 -24 -75 -24c-45 4 -72 7 -98 39c-17 20 -24 55 -21 87c11 63 31 105 80 171z" />
    <glyph glyph-name="quoteright" unicode="&#x2019;" 
d="M191 548l-84 13l33 97c-42 -4 -60 2 -85 33c-11 18 -16 38 -13 58c3 27 13 52 35 72c23 18 45 24 75 24c45 -4 72 -7 98 -39c17 -20 24 -55 21 -87c-11 -63 -31 -105 -80 -171z" />
    <glyph glyph-name="uni201C.dup2" unicode="&#x201c;" 
d="M839 846l68 -13l-27 -97c35 4 50 -2 70 -33c9 -18 13 -38 11 -58c-3 -27 -11 -52 -29 -72c-19 -18 -37 -24 -61 -24c-37 4 -59 7 -80 39c-14 20 -20 55 -18 87c9 63 26 105 66 171zM622 846l68 -13l-27 -97c35 4 50 -2 70 -33c9 -18 13 -38 11 -58
c-3 -27 -11 -52 -29 -72c-19 -18 -37 -24 -61 -24c-37 4 -59 7 -80 39c-14 20 -20 55 -18 87c9 63 26 105 66 171z" />
    <glyph glyph-name="uni201D.dup2" unicode="&#x201d;" 
d="M163 548l-68 13l27 97c-35 -4 -50 2 -70 33c-9 18 -13 38 -11 58c3 27 11 52 29 72c19 18 37 24 61 24c37 -4 59 -7 80 -39c14 -20 20 -55 18 -87c-9 -63 -26 -105 -66 -171zM380 548l-68 13l27 97c-35 -4 -50 2 -70 33c-9 18 -13 38 -11 58c3 27 11 52 29 72
c19 18 37 24 61 24c37 -4 59 -7 80 -39c14 -20 20 -55 18 -87c-9 -63 -26 -105 -66 -171z" />
    <glyph glyph-name="uniFF08" unicode="&#xff08;" 
d="M788 -82c-34 25 -54 51 -73 83c-32 54 -55 93 -73 160c-21 64 -23 146 -26 203c2 121 15 185 42 248c27 64 58 137 121 231l169 -1c-40 -93 -73 -170 -103 -243c-30 -77 -55 -158 -49 -242c3 -77 14 -145 38 -213c25 -72 75 -163 113 -224z" />
    <glyph glyph-name="uniFF09" unicode="&#xff09;" 
d="M215 -82l-159 2c38 61 88 152 113 224c24 68 35 136 38 213c6 84 -19 165 -49 242c-30 73 -63 150 -103 243l169 1c63 -94 94 -167 121 -231c27 -63 40 -127 42 -248c-3 -57 -5 -139 -26 -203c-18 -67 -41 -106 -73 -160c-19 -32 -39 -58 -73 -83z" />
    <glyph glyph-name="uni3014" unicode="&#x3014;" 
d="M922 -85c-84 24 -132 48 -176 74c-43 23 -83 49 -120 86c-10 55 -8 485 -1 596c42 43 100 71 147 100c43 26 91 52 155 76l-4 -180c-50 -21 -101 -49 -138 -72c-16 -26 -16 -326 1 -437c37 -30 93 -64 138 -80z" />
    <glyph glyph-name="uni3015" unicode="&#x3015;" 
d="M70 -85l-2 163c45 16 101 50 138 80c17 111 17 411 1 437c-37 23 -88 51 -138 72l-4 180c64 -24 112 -50 155 -76c47 -29 105 -57 147 -100c7 -111 9 -541 -1 -596c-37 -37 -77 -63 -120 -86c-44 -26 -92 -50 -176 -74z" />
    <glyph glyph-name="uniFF3B" unicode="&#xff3b;" 
d="M937 -79c-43 -9 -289 -12 -322 0c-6 304 -10 609 1 919c47 12 274 10 322 8l-1 -155l-171 2c-2 -213 -5 -422 -2 -631h169z" />
    <glyph glyph-name="uniFF3D" unicode="&#xff3d;" 
d="M67 -79l4 143h169c3 209 0 418 -2 631l-171 -2l-1 155c48 2 275 4 322 -8c11 -310 7 -615 1 -919c-33 -12 -279 -9 -322 0z" />
    <glyph glyph-name="uniFF5B" unicode="&#xff5b;" 
d="M942 -82c-67 -8 -109 -5 -149 0c-33 9 -63 26 -90 55c-27 36 -37 81 -33 130c4 115 -3 158 -16 204l-47 16c-3 40 -2 80 10 119l54 26c13 34 12 72 22 146s10 140 59 196c19 22 51 34 92 37c33 4 72 0 102 -3l-1 -106c-42 4 -64 -2 -87 -12c-31 -37 -30 -95 -40 -150
c-2 -34 -1 -61 -5 -123c-4 -24 -14 -46 -30 -62l-28 -13c14 -12 22 -26 25 -34c10 -29 17 -71 14 -99l-2 -67c-10 -70 4 -112 37 -144c13 -10 30 -14 47 -14l70 4z" />
    <glyph glyph-name="uniFF5D" unicode="&#xff5d;" 
d="M59 -82l-4 106l70 -4c17 0 34 4 47 14c33 32 47 74 37 144l-2 67c-3 28 4 70 14 99c3 8 11 22 25 34l-28 13c-16 16 -26 38 -30 62c-4 62 -3 89 -5 123c-10 55 -9 113 -40 150c-23 10 -45 16 -87 12l-1 106c30 3 69 7 102 3c41 -3 73 -15 92 -37c49 -56 49 -122 59 -196
s9 -112 22 -146l54 -26c12 -39 13 -79 10 -119l-47 -16c-13 -46 -20 -89 -16 -204c4 -49 -6 -94 -33 -130c-27 -29 -57 -46 -90 -55c-40 -5 -82 -8 -149 0z" />
    <glyph glyph-name="uni3008" unicode="&#x3008;" 
d="M928 -67l-138 -4c-26 43 -78 145 -116 235c-23 56 -54 154 -80 226c31 73 61 147 96 220c35 71 71 151 109 221l141 -2c-31 -77 -48 -123 -83 -203c-33 -73 -75 -169 -98 -236c41 -131 125 -354 169 -457z" />
    <glyph glyph-name="uni3009" unicode="&#x3009;" 
d="M72 -67c44 103 128 326 169 457c-23 67 -65 163 -98 236c-35 80 -52 126 -83 203l141 2c38 -70 74 -150 109 -221c35 -73 65 -147 96 -220c-26 -72 -57 -170 -80 -226c-38 -90 -90 -192 -116 -235z" />
    <glyph glyph-name="uni300A" unicode="&#x300a;" 
d="M947 -70h-125s-54 162 -77 239c-24 77 -47 157 -70 237c16 69 36 136 60 206c20 70 50 143 68 218l139 -4c-22 -79 -42 -144 -67 -221c-28 -78 -45 -131 -59 -203c47 -172 89 -325 131 -472zM746 -68l-123 -6c-34 90 -64 177 -94 261s-42 120 -63 211
c29 100 53 206 72 263c20 53 34 116 54 173l127 -2c-23 -99 -43 -165 -63 -226c-20 -76 -42 -142 -56 -205c24 -82 46 -143 66 -216c27 -82 56 -171 80 -253z" />
    <glyph glyph-name="uni300B" unicode="&#x300b;" 
d="M54 -70c42 147 84 300 131 472c-14 72 -31 125 -59 203c-25 77 -45 142 -67 221l139 4c18 -75 48 -148 68 -218c24 -70 44 -137 60 -206c-23 -80 -46 -160 -70 -237c-23 -77 -77 -239 -77 -239h-125zM255 -68c24 82 53 171 80 253c20 73 42 134 66 216
c-14 63 -36 129 -56 205c-20 61 -40 127 -63 226l127 2c20 -57 34 -120 54 -173c19 -57 43 -163 72 -263c-21 -91 -33 -127 -63 -211s-60 -171 -94 -261z" />
    <glyph glyph-name="uni300C" unicode="&#x300c;" 
d="M771 311l-176 -3c-4 180 -1 356 7 530c110 3 286 8 359 2l-1 -177c-67 -7 -120 -7 -186 -14c-6 -120 -4 -232 -3 -338z" />
    <glyph glyph-name="uni300D" unicode="&#x300d;" 
d="M226 446l176 3c4 -180 1 -356 -7 -530c-110 -3 -286 -8 -359 -2l1 177c67 7 120 7 186 14c6 120 4 232 3 338z" />
    <glyph glyph-name="uni300E" unicode="&#x300e;" 
d="M800 257c-105 -8 -199 -11 -300 -3c-2 164 9 468 16 587c131 11 308 6 433 4c5 -48 8 -234 0 -302l-144 -4zM695 369l11 271c40 7 67 2 142 7v65c-87 2 -166 2 -233 -5c-7 -62 -8 -257 -10 -339z" />
    <glyph glyph-name="uni300F" unicode="&#x300f;" 
d="M200 501c105 8 199 11 300 3c2 -164 -9 -468 -16 -587c-131 -11 -308 -6 -433 -4c-5 48 -8 234 0 302l144 4zM305 389l-11 -271c-40 -7 -67 -2 -142 -7v-65c87 -2 166 -2 233 5c7 62 8 257 10 339z" />
    <glyph glyph-name="uni3010" unicode="&#x3010;" 
d="M935 -85c-122 0 -204 -2 -308 2c2 307 2 611 1 926c120 4 199 4 314 2c-34 -41 -47 -72 -74 -134c-21 -49 -33 -116 -43 -171s-14 -114 -14 -171c4 -80 14 -159 37 -231c20 -76 54 -142 87 -223z" />
    <glyph glyph-name="uni3011" unicode="&#x3011;" 
d="M64 -85c33 81 67 147 87 223c23 72 33 151 37 231c0 57 -4 116 -14 171s-22 122 -43 171c-27 62 -40 93 -74 134c115 2 194 2 314 -2c-1 -315 -1 -619 1 -926c-104 -4 -186 -2 -308 -2z" />
    <glyph glyph-name="uniFF0B" unicode="&#xff0b;" 
d="M587 32l-172 -2c-1 80 -5 167 -5 272c-87 1 -153 0 -239 2l-2 150c87 6 155 9 246 12c2 72 1 164 7 257l168 -5c2 -86 -4 -153 -3 -252c77 -4 150 -6 241 -6l3 -156c-89 -7 -167 -8 -243 -8c4 -98 3 -187 -1 -264z" />
    <glyph glyph-name="minus" unicode="&#x2212;" 
d="M166 297l-3 161c241 4 447 6 661 11l4 -166c-209 -7 -419 -9 -662 -6z" />
    <glyph glyph-name="plusminus" unicode="&#xb1;" 
d="M815 -17c-214 -3 -425 -6 -632 -9l6 149c68 5 495 6 628 6zM583 228l-173 -2l-3 215l-214 2l3 145l216 4l7 193l168 1l1 -191l216 1l1 -143l-217 -6z" />
    <glyph glyph-name="multiply" unicode="&#xd7;" 
d="M740 23c-47 40 -183 176 -237 227c-47 -56 -155 -194 -214 -258l-128 99c46 58 185 236 233 296c-44 49 -181 207 -239 278l115 103c41 -39 179 -211 231 -260c36 46 170 204 211 244l117 -106c-75 -87 -150 -176 -218 -264c41 -53 191 -201 234 -253z" />
    <glyph glyph-name="divide" unicode="&#xf7;" 
d="M473 20c-21 6 -41 17 -56 38l-9 47c3 33 16 58 35 72c19 12 36 20 50 17c35 -5 67 -9 90 -41c6 -21 9 -42 6 -65c-5 -15 -13 -30 -27 -42c-26 -20 -55 -29 -89 -26zM861 319c-248 -2 -501 -4 -722 1l4 139c236 3 473 8 716 10zM494 575c-34 1 -54 11 -59 22
c-23 24 -25 57 -25 87l16 30c24 17 45 30 75 26c22 0 46 -11 67 -33c13 -17 20 -37 23 -60c-7 -20 -15 -36 -23 -47c-24 -14 -47 -25 -74 -25z" />
    <glyph glyph-name="uniFF1D" unicode="&#xff1d;" 
d="M144 135l1 148c228 8 456 12 709 15l-5 -149c-255 -9 -483 -14 -705 -14zM851 460c-229 -2 -453 3 -702 3l1 158c235 4 468 4 706 0z" />
    <glyph glyph-name="notequal" unicode="&#x2260;" 
d="M443 -22l-161 4c22 60 38 92 69 164c-65 1 -129 2 -193 3l2 143c76 6 161 0 240 0l60 155c-98 -1 -199 2 -291 3l6 139c107 7 214 6 328 10c28 57 56 120 83 183l161 -30c-22 -53 -47 -102 -63 -155l152 -1l3 -139c-71 -4 -134 -7 -199 -6l-60 -151c88 5 172 1 259 0
l2 -148c-119 -4 -221 -5 -323 -6c-30 -73 -47 -115 -75 -168z" />
    <glyph glyph-name="uniFF1C" unicode="&#xff1c;" 
d="M816 -21c-123 39 -205 77 -344 148c-110 56 -249 142 -339 219l2 36c117 92 207 155 316 221c140 85 231 138 302 178l88 -110c-131 -80 -371 -222 -471 -296v-19c108 -69 305 -163 497 -253z" />
    <glyph glyph-name="uniFF1E" unicode="&#xff1e;" 
d="M184 -21l-51 124c192 90 389 184 497 253v19c-100 74 -340 216 -471 296l88 110c71 -40 162 -93 302 -178c109 -66 199 -129 316 -221l2 -36c-90 -77 -229 -163 -339 -219c-139 -71 -221 -109 -344 -148z" />
    <glyph glyph-name="uni2266" unicode="&#x2266;" 
d="M144 -36l5 106c227 2 464 8 706 10l2 -103c-240 -2 -480 -8 -713 -13zM846 163c-242 -7 -481 -4 -698 -2l3 101c222 2 464 1 697 -6zM814 304c-83 14 -222 46 -322 75c-97 22 -187 57 -320 112l-1 71c101 39 185 64 275 100c122 37 239 84 359 119l26 -111
c-70 -22 -143 -45 -221 -67c-83 -23 -148 -45 -226 -70c79 -22 160 -43 237 -66c74 -21 151 -43 209 -57z" />
    <glyph glyph-name="uni2267" unicode="&#x2267;" 
d="M857 -36c-233 5 -473 11 -713 13l2 103c242 -2 479 -8 706 -10zM155 163l-2 93c233 7 475 8 697 6l3 -101c-217 -2 -456 -5 -698 2zM187 304l-16 106c58 14 135 36 209 57c77 23 158 44 237 66c-78 25 -143 47 -226 70c-78 22 -151 45 -221 67l26 111
c120 -35 237 -82 359 -119c90 -36 174 -61 275 -100l-1 -71c-133 -55 -223 -90 -320 -112c-100 -29 -239 -61 -322 -75z" />
    <glyph glyph-name="infinity" unicode="&#x221e;" 
d="M220 157c-44 4 -82 20 -116 50c-22 27 -38 57 -44 87c-5 21 -8 57 -7 80c2 55 9 102 46 143c22 23 53 43 82 53c25 10 56 13 86 13c81 0 127 -14 155 -28c28 -13 52 -22 80 -38c28 23 61 42 95 55c35 10 69 22 104 27c34 5 68 0 100 -10c31 -10 73 -23 94 -47
c24 -28 37 -70 45 -106c8 -37 2 -83 -8 -125c-11 -44 -24 -74 -52 -101c-40 -30 -70 -39 -120 -39c-50 10 -97 26 -140 50c-47 23 -78 35 -127 66c-36 -43 -88 -74 -130 -93c-43 -19 -77 -31 -143 -37zM318 320c37 22 68 40 103 74c-34 31 -106 60 -160 59
c-35 -3 -66 -12 -85 -48c-8 -17 -13 -34 -7 -50c3 -29 22 -47 56 -57c41 1 69 11 93 22zM813 331c15 14 16 39 16 64c-5 13 -6 25 -19 37c-27 26 -55 34 -90 30c-46 -10 -113 -36 -154 -64c35 -25 68 -49 106 -64c28 -16 65 -21 97 -19z" />
    <glyph glyph-name="therefore" unicode="&#x2234;" 
d="M762 32c-19 2 -43 16 -54 24c-14 22 -23 44 -19 74c2 29 18 56 37 74c24 20 44 27 79 29c43 -9 70 -34 82 -81c2 -20 0 -58 -15 -78c-18 -30 -54 -43 -110 -42zM233 36c-44 -4 -74 10 -102 30c-10 17 -16 35 -16 58c-4 35 9 56 34 75c24 19 44 30 74 30
c31 -2 58 -9 84 -37c12 -22 14 -43 12 -70c-6 -32 -10 -47 -29 -60c-12 -12 -28 -22 -57 -26zM466 567c-17 4 -34 10 -44 21c-17 24 -20 48 -17 81c2 26 9 54 22 62c32 21 56 26 93 26c18 0 37 -17 52 -30c10 -17 21 -34 23 -51c3 -30 -4 -60 -18 -80
c-30 -24 -58 -33 -111 -29z" />
    <glyph glyph-name="male" unicode="&#x2642;" 
d="M410 -17c-38 -2 -80 9 -113 24c-36 15 -64 45 -91 74c-30 39 -42 84 -46 131c1 33 1 69 16 102c12 33 29 63 56 89c35 26 59 42 92 54c32 9 68 14 132 8c37 47 75 80 130 149l-223 -54l-17 133c69 31 303 75 409 86c33 -11 56 -30 65 -50c12 -56 14 -113 21 -373l-130 -6
l-11 197s-99 -139 -108 -165c32 -35 43 -75 45 -117v-59c-6 -30 -15 -59 -27 -86c-12 -28 -27 -54 -45 -77c-20 -22 -44 -33 -71 -42s-54 -15 -84 -18zM443 147c18 14 42 38 45 62c4 41 -14 73 -44 94c-28 10 -47 10 -66 8c-24 -9 -47 -19 -65 -41c-12 -22 -16 -43 -16 -64
c6 -21 18 -39 36 -54c21 -14 42 -20 68 -20z" />
    <glyph glyph-name="female" unicode="&#x2640;" 
d="M572 -51l-150 -3c2 60 3 117 4 181c-93 -4 -153 2 -224 3l7 112c68 4 126 12 215 9l3 75c-51 7 -107 31 -135 65c-24 29 -38 46 -49 104c-11 60 -10 114 5 155c14 38 40 73 63 97c21 24 50 40 79 52c28 11 63 13 117 15c74 -4 111 -27 137 -41c31 -18 47 -43 67 -66
c15 -25 24 -52 29 -77c7 -26 9 -55 7 -87c2 -40 -3 -80 -23 -117c-12 -22 -29 -44 -55 -63c-27 -14 -54 -29 -96 -36l2 -76c79 2 152 5 224 6l-4 -118c-79 -7 -149 -6 -219 -5c-1 -73 -2 -135 -4 -185zM570 472c36 37 45 65 40 102c-3 23 -12 43 -30 58
c-22 18 -42 22 -63 28c-61 1 -95 -11 -121 -51c-15 -23 -23 -53 -18 -75c7 -24 18 -43 36 -54c28 -24 61 -36 100 -33c15 3 39 8 56 25z" />
    <glyph glyph-name="degree" unicode="&#xb0;" 
d="M163 547c-47 8 -83 29 -110 62c-17 31 -20 65 -17 101c10 34 17 63 42 92c12 17 35 35 69 43c33 9 64 11 92 4c25 -6 56 -22 76 -41c21 -31 31 -75 26 -120c-5 -36 -19 -73 -46 -101c-38 -32 -82 -43 -132 -40zM229 652c8 8 15 18 23 33c4 27 -5 47 -21 62
c-35 14 -68 13 -95 -16c-7 -15 -16 -52 10 -75c29 -14 55 -17 83 -4z" />
    <glyph glyph-name="minute" unicode="&#x2032;" 
d="M135 541l-105 34c33 59 73 161 130 284l153 -49c-66 -129 -141 -223 -178 -269z" />
    <glyph glyph-name="second" unicode="&#x2033;" 
d="M133 540l-97 24c40 95 84 200 112 288l128 -26c-42 -98 -89 -192 -143 -286zM305 525l-87 25c32 79 76 173 119 287l133 -23c-47 -101 -132 -223 -165 -289z" />
    <glyph glyph-name="uni2103" unicode="&#x2103;" 
d="M558 -39c-37 10 -71 20 -104 36c-34 17 -65 39 -91 69c-27 33 -45 75 -55 115c-14 37 -17 76 -20 119c3 57 5 107 20 169c12 57 31 92 60 137c33 51 76 83 127 105c49 22 105 29 164 29c77 0 148 -18 191 -65c20 -22 35 -54 44 -91c9 -44 10 -86 4 -107l-159 -5
c2 29 -8 52 -30 81c-17 24 -58 34 -97 33c-37 -7 -67 -24 -97 -50c-20 -37 -32 -77 -40 -120c-7 -39 -9 -75 -10 -125c0 -25 12 -65 33 -101c19 -31 43 -60 82 -69c25 -13 46 -12 69 -5c40 20 59 49 76 93l16 53l171 -13c-7 -64 -20 -90 -30 -121c-13 -30 -30 -56 -50 -80
c-37 -37 -74 -62 -127 -73c-46 -10 -97 -14 -147 -14zM174 532c-34 0 -60 14 -84 37c-26 33 -36 74 -33 117c7 43 24 72 55 99c29 20 69 34 113 34c44 -11 80 -34 92 -65c11 -24 16 -58 16 -88c-3 -37 -16 -67 -42 -96c-30 -30 -74 -41 -117 -38zM224 626c23 17 33 37 30 63
c-4 15 -11 29 -25 42c-34 20 -66 4 -85 -18c-8 -15 -10 -31 -7 -47c3 -17 10 -27 23 -37c19 -10 40 -15 64 -3z" />
    <glyph glyph-name="uniFFE5" unicode="&#xffe5;" 
d="M575 -24l-160 -2l-4 136c-78 -4 -130 -4 -187 -4l2 126c60 4 119 8 185 6l-3 76c-99 2 -188 -1 -243 -3v140c66 5 161 9 226 12c-73 80 -201 264 -234 321l169 3c49 -98 107 -172 172 -239c45 53 127 168 171 227h175c-42 -57 -191 -245 -255 -307c47 -4 182 0 233 -1
l-3 -137c-61 -5 -177 -4 -237 -7l-3 -76c54 2 112 0 192 -3v-118c-84 -2 -146 -3 -197 -7z" />
    <glyph glyph-name="uniFF04" unicode="&#xff04;" 
d="M573 -65l-140 2l3 77c-41 10 -83 19 -126 33c-42 13 -77 30 -128 90l87 100c44 -37 128 -75 181 -85v153c-54 10 -93 30 -133 58c-27 19 -51 46 -61 79c-11 38 -18 82 -10 130c7 43 43 77 80 107c30 20 64 34 117 44l3 103h131l-2 -95c27 -1 70 -5 95 -10
c41 -8 73 -26 97 -47l-29 -115c-56 19 -99 24 -161 17l-1 -130c45 -9 76 -19 104 -30c31 -12 53 -31 76 -50c20 -16 40 -50 52 -92c10 -34 5 -62 0 -96c-4 -30 -14 -56 -37 -78c-21 -29 -40 -42 -94 -64c-39 -16 -62 -17 -106 -19zM577 163c26 4 61 13 75 23
c28 21 23 51 19 67c-8 19 -32 38 -95 41zM450 457l3 109c-23 -2 -43 -6 -57 -15c-13 -8 -21 -19 -26 -34c3 -29 13 -40 29 -48c18 -9 39 -18 51 -12z" />
    <glyph glyph-name="uniFFE0" unicode="&#xffe0;" 
d="M467 -44l-114 4l27 102c-31 16 -62 35 -78 61c-20 27 -41 50 -49 86c-13 46 -8 96 -5 144c3 33 8 63 19 93c14 28 27 59 48 83c20 21 46 38 72 49c36 16 54 23 103 21l38 111l113 -18l-18 -96c34 -8 58 -19 81 -43c21 -17 49 -74 49 -140l-105 -17c-1 38 -14 48 -25 54
c-11 7 -24 9 -38 4l-68 -287c19 0 60 1 88 13c39 15 59 48 58 81l98 -5c-2 -47 -18 -111 -64 -164c-23 -26 -55 -39 -90 -47c-42 -9 -77 -15 -118 -10zM405 191l64 258c-27 2 -46 -14 -61 -21c-13 -14 -31 -35 -39 -58c-9 -32 -6 -101 3 -127s23 -38 33 -52z" />
    <glyph glyph-name="uniFFE1" unicode="&#xffe1;" 
d="M311 -30c-45 -4 -81 14 -140 48c-21 27 -33 57 -30 89c6 33 21 57 42 84c45 35 84 44 161 44l-11 66l-157 5l4 114l136 2c-5 47 -9 98 1 155c9 33 18 66 33 99c12 30 33 57 65 80c39 27 81 39 132 36c45 -3 95 -6 131 -30c42 -28 68 -46 89 -93c11 -24 22 -107 23 -131
l-119 -20c-4 32 -7 62 -20 88c-28 46 -60 59 -110 60c-41 -7 -53 -29 -65 -56c-20 -53 -24 -139 -13 -184l212 3l2 -118l-195 -1c-3 -70 3 -127 26 -167c29 -22 71 -33 116 -31c38 5 62 16 96 36c32 19 60 42 87 57l56 -92c-27 -41 -76 -70 -107 -87
c-34 -20 -116 -37 -150 -33c-40 5 -131 23 -152 38c-31 -24 -68 -49 -143 -61zM382 105l-27 23c-24 7 -72 0 -92 -26c0 -13 16 -30 36 -33c19 -4 55 4 83 36z" />
    <glyph glyph-name="uniFF05" unicode="&#xff05;" 
d="M210 -36l-113 91c74 76 214 227 357 378c150 158 303 315 358 363l90 -98c-24 -39 -226 -238 -313 -332c-87 -93 -286 -315 -379 -402zM724 -22c-45 4 -84 19 -115 52c-29 39 -41 69 -37 131c2 37 20 71 40 101c26 22 54 44 83 54c22 8 60 7 99 4c46 -5 93 -29 113 -83
c12 -22 17 -60 11 -97c-15 -74 -29 -101 -71 -135c-33 -23 -80 -27 -123 -27zM781 89c17 13 30 24 35 48c5 20 -7 45 -19 58c-24 16 -56 31 -99 7c-17 -19 -31 -42 -25 -76c16 -22 32 -39 61 -44c23 -4 37 0 47 7zM249 429c-48 6 -92 26 -128 67c-22 40 -26 91 -26 136
c7 29 14 54 31 71c16 26 48 44 77 57c26 12 60 14 92 14c26 -3 57 -14 77 -40c20 -23 29 -44 38 -69c7 -29 11 -65 8 -93c-13 -42 -23 -73 -57 -106c-30 -27 -64 -41 -112 -37zM300 557c11 12 18 22 20 46c2 26 -10 45 -22 51c-22 12 -41 14 -70 2c-23 -19 -34 -42 -31 -76
c11 -19 28 -37 48 -42c24 -1 40 9 55 19z" />
    <glyph glyph-name="uniFF03" unicode="&#xff03;" 
d="M348 -9h-139c11 64 23 128 41 191l-124 -2l3 100l148 3l40 162l-149 -3l6 104l167 5c16 67 38 142 59 226l139 -4c-19 -77 -37 -152 -51 -220l120 -5c16 73 38 148 61 223l123 -6c-17 -73 -32 -145 -39 -209l122 -6l-8 -94l-141 -4l-42 -167l133 -5l-5 -90l-154 -1
c-23 -69 -42 -136 -57 -202l-141 -4c18 66 40 136 63 208l-114 -3c-24 -70 -41 -133 -61 -197zM540 284l44 165l-116 2l-46 -166z" />
    <glyph glyph-name="uniFF06" unicode="&#xff06;" 
d="M300 -42c-42 2 -78 20 -108 54c-15 15 -24 33 -27 54c-3 24 -6 37 -3 51c9 31 21 60 37 87c29 48 95 122 127 147c-30 32 -49 52 -71 104c-18 43 -25 72 -25 120c0 37 13 67 29 98c14 29 33 56 60 81c27 22 48 33 75 43c24 9 50 11 81 8c45 0 84 -18 117 -51
c18 -25 30 -52 39 -79c10 -29 10 -60 6 -93c-9 -45 -20 -88 -33 -112c-22 -48 -50 -86 -106 -144c21 -24 70 -64 93 -79c48 49 76 73 113 112l91 -84c-27 -34 -53 -68 -75 -98c30 -22 88 -48 121 -68l-92 -112c-37 19 -118 57 -142 69c-39 -39 -84 -66 -132 -84
c-48 -22 -102 -27 -175 -24zM425 106l68 44c-39 25 -73 53 -99 88c-33 -30 -60 -63 -81 -103c-2 -30 13 -41 27 -47c34 -6 63 7 85 18zM424 431c41 40 78 113 85 166c-3 23 -15 45 -33 63c-14 6 -34 13 -47 7c-21 -6 -33 -20 -48 -40c-12 -36 -13 -67 -11 -102
c14 -40 22 -63 54 -94z" />
    <glyph glyph-name="uniFF0A" unicode="&#xff0a;" 
d="M566 -23h-149c-1 60 -2 120 -2 188c-67 -45 -120 -82 -169 -116l-101 115c67 65 139 128 215 193c-80 73 -157 138 -230 197l88 128c66 -43 134 -88 204 -138c-2 86 -3 163 3 239l147 -1c0 -75 1 -153 6 -234c61 48 120 96 178 143l99 -137c-82 -70 -154 -134 -227 -198
c85 -64 166 -123 238 -172l-101 -124c-63 40 -123 81 -193 131c-3 -80 -6 -151 -6 -214z" />
    <glyph glyph-name="uniFF20" unicode="&#xff20;" 
d="M473 -63c-50 3 -98 9 -144 25s-82 27 -131 65c-39 31 -67 80 -84 123c-12 40 -21 81 -24 124c-6 45 -9 96 0 147c9 53 30 111 47 146c24 43 52 88 91 122c55 50 103 85 173 108c68 24 138 26 211 20c55 -5 99 -12 143 -36c31 -12 79 -55 106 -89c27 -45 37 -67 45 -108
c10 -49 13 -105 13 -143c-1 -47 -9 -108 -18 -147c-14 -43 -43 -85 -78 -111c-44 -41 -90 -54 -146 -50c-56 17 -86 45 -97 75c-35 -22 -68 -44 -96 -47c-31 -3 -58 -6 -95 1c-22 6 -47 30 -59 43c-15 15 -34 36 -42 65c-10 38 -12 79 -7 115c4 35 17 65 34 92
c16 26 33 53 58 77c48 53 103 69 174 78c57 3 105 -17 143 -62c13 -16 28 -61 28 -85l-98 -36l-13 48c-26 28 -62 37 -106 16c-27 -10 -48 -27 -69 -62c-16 -27 -29 -52 -40 -98c-3 -21 1 -41 15 -62c15 -16 46 -20 68 -11c30 10 61 31 84 56c28 22 37 37 62 84
c15 -8 56 -9 72 -28c-3 -31 -14 -86 -9 -116c9 -10 16 -32 54 -18c16 10 39 28 46 50c24 60 25 115 25 166c-3 36 -1 72 -26 107c-19 41 -43 72 -77 88c-50 24 -112 34 -159 39c-73 -1 -104 -17 -148 -42s-87 -62 -119 -101c-36 -41 -48 -86 -58 -136s-14 -107 -10 -164
c6 -50 24 -101 53 -135c19 -24 61 -53 114 -64c28 -7 66 -11 105 -9c36 1 78 7 123 17c41 10 80 23 125 42l24 -106c-43 -31 -132 -49 -168 -59c-38 -11 -78 -14 -115 -14z" />
    <glyph glyph-name="section" unicode="&#xa7;" 
d="M479 -58c-70 10 -154 46 -177 69c-27 23 -58 54 -74 80l107 63c20 -34 47 -56 80 -70c36 -16 81 -28 152 -20c36 6 54 28 49 54c-21 18 -34 28 -51 35c-34 17 -77 30 -136 53c-33 15 -73 24 -96 43c-20 17 -39 53 -39 92c7 44 24 81 63 106c29 20 86 48 157 64
c-26 3 -60 9 -81 17c-34 20 -60 30 -96 66c-17 25 -20 55 -17 90c9 29 26 53 47 71c28 29 83 61 135 65c46 4 88 1 124 -6c37 -7 68 -17 91 -28l-8 -111c-45 16 -78 21 -118 28c-26 5 -52 1 -71 -4c-24 -7 -39 -18 -46 -27c-2 -13 -5 -26 5 -36c25 -24 93 -34 154 -52
c40 -13 70 -21 100 -57c29 -27 39 -60 37 -82c-5 -57 -6 -84 -36 -118c-31 -34 -55 -51 -93 -76c49 -18 80 -45 111 -88c11 -17 20 -44 18 -64c-4 -32 -21 -63 -44 -87c-27 -29 -62 -43 -99 -58c-46 -18 -74 -11 -148 -12zM577 348c19 10 42 24 61 50c-11 17 -21 38 -35 33
c-37 -3 -110 -32 -160 -68l-7 -18c10 -9 30 -24 47 -21c29 1 61 9 94 24z" />
    <glyph glyph-name="uni2606" unicode="&#x2606;" 
d="M211 -50c14 101 26 212 28 303c-20 26 -155 165 -184 198l3 23c59 26 226 59 282 78c14 35 138 217 167 262l17 -1c29 -41 144 -236 151 -257c67 -19 173 -40 267 -56l6 -18c-30 -47 -145 -178 -168 -211c5 -98 23 -206 26 -304l-12 -14c-90 53 -202 109 -283 150
c-78 -44 -177 -109 -283 -160zM695 119c-3 34 -19 149 -19 177c20 33 92 98 119 132c-41 7 -136 31 -177 35c-41 69 -91 162 -104 192c-47 -77 -82 -148 -109 -196c-80 -10 -147 -31 -196 -37c41 -38 94 -77 143 -121c-9 -46 -22 -156 -25 -194c16 14 150 95 185 114
c32 -21 119 -60 183 -102z" />
    <glyph glyph-name="uni2605" unicode="&#x2605;" 
d="M211 -50c14 101 26 212 28 303c-20 26 -155 165 -184 198l3 23c59 26 226 59 282 78c14 35 136 220 165 265l16 2c26 -40 148 -243 154 -263c67 -19 173 -40 267 -56l6 -18c-30 -47 -145 -178 -168 -211c5 -98 23 -206 26 -304l-12 -14c-90 53 -202 109 -283 150
c-78 -44 -177 -109 -283 -160z" />
    <glyph glyph-name="circle" unicode="&#x25cb;" 
d="M445 -7c-44 9 -86 21 -124 39c-42 18 -80 42 -106 71c-22 23 -39 47 -51 74c-15 26 -34 62 -39 92c-7 37 -12 67 -12 92c0 68 5 106 17 148c24 73 60 123 107 161c44 36 88 61 145 78c52 16 114 26 169 26c66 -5 96 -18 141 -38c45 -21 81 -57 117 -95s49 -75 61 -116
c12 -42 18 -86 18 -134c-4 -50 -12 -101 -24 -149c-15 -47 -36 -96 -75 -132c-29 -33 -63 -56 -99 -73c-39 -18 -70 -30 -111 -37c-44 -8 -91 -13 -134 -7zM645 140c24 16 46 31 67 59c19 34 35 69 45 109c9 39 16 80 8 122c-7 29 -16 59 -29 88c-16 28 -35 53 -57 75
c-29 29 -60 48 -95 54c-37 7 -150 10 -208 -22c-27 -12 -56 -32 -77 -60c-33 -29 -51 -63 -60 -104c-10 -42 -7 -111 11 -177c11 -39 26 -78 47 -100c26 -28 67 -54 110 -69c42 -16 90 -17 141 -12c35 5 68 21 97 37z" />
    <glyph glyph-name="H18533" unicode="&#x25cf;" 
d="M445 -7c-44 9 -86 21 -124 39c-42 18 -80 42 -106 71c-22 23 -39 47 -51 74c-15 26 -34 62 -39 92c-7 37 -12 67 -12 92c0 68 5 106 17 148c24 73 60 123 107 161c44 36 88 61 145 78c52 16 114 26 169 26c66 -5 96 -18 141 -38c45 -21 81 -57 117 -95s49 -75 61 -116
c12 -42 18 -86 18 -134c-4 -50 -12 -101 -24 -149c-15 -47 -36 -96 -75 -132c-29 -33 -63 -56 -99 -73c-39 -18 -70 -30 -111 -37c-44 -8 -91 -13 -134 -7z" />
    <glyph glyph-name="uni25CE" unicode="&#x25ce;" 
d="M446 -38c-54 7 -93 20 -141 39c-45 17 -84 41 -126 89c-28 35 -50 76 -63 117c-12 41 -24 84 -28 126c-6 60 4 135 26 190c25 62 48 99 87 146c44 44 93 73 129 90c38 18 78 24 116 34c35 9 72 8 113 6c66 -4 111 -20 158 -45c45 -29 82 -58 121 -109
c35 -38 52 -87 65 -135c12 -35 15 -91 12 -144c-3 -60 -9 -117 -32 -170c-22 -53 -56 -104 -105 -150c-35 -24 -70 -45 -111 -55c-47 -21 -117 -33 -221 -29zM668 102c22 9 38 17 62 36c26 25 42 60 55 94c9 35 19 69 21 107c4 54 -2 104 -18 151s-41 88 -76 126
c-25 34 -52 48 -91 59c-32 9 -67 16 -102 16c-47 -6 -105 -5 -146 -27c-44 -22 -74 -35 -112 -90c-27 -35 -48 -73 -62 -128c-13 -37 -20 -84 -9 -138c3 -31 13 -58 28 -87c13 -29 37 -64 59 -83c35 -25 58 -36 96 -53c42 -11 78 -20 121 -20c25 0 57 5 92 8
c30 3 53 13 82 29zM476 156c-55 3 -97 25 -131 67c-39 41 -58 90 -61 147c0 40 6 82 28 118c23 39 57 65 93 85c46 25 97 30 149 23c42 -6 74 -36 102 -65c24 -24 40 -54 49 -85c10 -32 13 -64 13 -99c-7 -48 -26 -93 -62 -127c-45 -39 -96 -57 -180 -64zM516 261
c63 26 87 50 96 118c-7 37 -17 70 -47 97c-16 16 -56 14 -86 10c-20 -6 -40 -17 -57 -33c-20 -23 -29 -50 -29 -80c4 -28 9 -51 26 -75c27 -27 60 -40 97 -37z" />
    <glyph glyph-name="uni25C7" unicode="&#x25c7;" 
d="M504 -53c-123 92 -310 306 -425 433c63 85 337 364 422 433c135 -139 289 -278 420 -434c-66 -100 -304 -324 -417 -432zM504 107c57 52 218 208 263 272c-55 57 -220 227 -266 261c-49 -29 -220 -216 -250 -259c94 -92 150 -180 253 -274z" />
    <glyph glyph-name="uni25C6" unicode="&#x25c6;" 
d="M504 -53c-123 92 -310 306 -425 433c63 85 337 364 422 433c135 -139 289 -278 420 -434c-66 -100 -304 -324 -417 -432z" />
    <glyph glyph-name="H22073" unicode="&#x25a1;" 
d="M884 8c-254 -7 -516 -6 -755 -7c-19 94 -12 677 -1 742c240 13 495 17 753 13c6 -254 10 -501 3 -748zM756 119c7 135 1 417 1 524c-170 1 -335 3 -509 -6c-3 -199 -15 -378 -2 -514c169 -9 347 -5 510 -4z" />
    <glyph glyph-name="filledbox" unicode="&#x25a0;" 
d="M884 8c-254 -7 -516 -6 -755 -7c-19 94 -12 677 -1 742c240 13 495 17 753 13c6 -254 10 -501 3 -748z" />
    <glyph glyph-name="uni25B3" unicode="&#x25b3;" 
d="M918 32c-290 -11 -565 -11 -832 -2l-14 16c91 163 352 585 425 694h26c82 -108 358 -583 405 -687zM754 142c-61 107 -205 369 -242 423c-63 -102 -221 -383 -244 -425c140 -4 319 -4 486 2z" />
    <glyph glyph-name="triagup" unicode="&#x25b2;" 
d="M918 32c-290 -11 -565 -11 -832 -2l-14 16c91 163 352 585 425 694h26c82 -108 358 -583 405 -687z" />
    <glyph glyph-name="uni25BD" unicode="&#x25bd;" 
d="M918 729l10 -21c-47 -104 -323 -579 -405 -687h-26c-73 109 -334 531 -425 694l14 16c267 9 542 9 832 -2zM754 619c-167 6 -346 6 -486 2c23 -42 181 -323 244 -425c37 54 181 316 242 423z" />
    <glyph glyph-name="triagdn" unicode="&#x25bc;" 
d="M918 729l10 -21c-47 -104 -323 -579 -405 -687h-26c-73 109 -334 531 -425 694l14 16c267 9 542 9 832 -2z" />
    <glyph glyph-name="uni203B" unicode="&#x203b;" 
d="M259 -18l-99 101c55 59 193 221 250 295c-52 62 -217 245 -268 309l104 87c46 -44 214 -244 253 -291c69 68 206 235 259 287l105 -85c-90 -103 -160 -185 -263 -311c68 -83 220 -247 260 -289l-97 -104c-80 80 -187 218 -260 285c-46 -47 -192 -238 -244 -284zM495 -34
c-22 1 -44 6 -65 21c-15 17 -20 36 -17 60c-3 28 9 52 29 73c17 17 39 25 65 25c28 -8 48 -18 59 -35c15 -18 24 -38 20 -63c-9 -35 -19 -60 -52 -77zM801 289c-12 2 -43 21 -51 37c-12 20 -13 47 -13 64c3 18 12 33 27 47c23 15 44 28 83 28c35 -11 58 -36 56 -57
c7 -32 4 -71 -11 -85c-23 -22 -56 -37 -91 -34zM184 286c-42 7 -66 21 -78 57l-6 40c3 25 15 46 37 65c19 18 44 25 72 22c30 -7 48 -30 58 -59l7 -38c-3 -21 -12 -40 -28 -55c-19 -16 -41 -25 -62 -32zM498 616c-27 -3 -43 9 -57 24c-24 30 -31 63 -22 94l19 31
c21 18 55 29 89 22c42 -6 53 -22 64 -58l-1 -42c0 -22 -6 -37 -19 -49c-22 -19 -41 -24 -73 -22z" />
    <glyph glyph-name="uni3012" unicode="&#x3012;" 
d="M586 -21h-184c-2 94 -4 186 -2 323l-231 3l-4 146c233 2 438 3 671 4l-6 -147l-235 -1c-3 -128 -6 -229 -9 -328zM826 619c-237 -4 -434 -4 -654 -4l-1 147c232 -1 432 0 656 4z" />
    <glyph glyph-name="arrowright" unicode="&#x2192;" 
d="M599 19l-126 120l161 165l-546 -2l5 158l543 -1l-161 156l121 126c51 -57 248 -254 316 -340l-1 -20c-58 -72 -226 -270 -312 -362z" />
    <glyph glyph-name="arrowleft" unicode="&#x2190;" 
d="M401 19c-86 92 -254 286 -312 358l-1 20c68 90 265 287 316 344l121 -126l-161 -156l543 1l5 -158l-546 2l161 -165z" />
    <glyph glyph-name="arrowup" unicode="&#x2191;" 
d="M859 478l-121 -125l-168 162l2 -546l-159 -1v548l-147 -163l-125 122c57 51 252 252 345 318l20 -1c57 -58 262 -227 353 -314z" />
    <glyph glyph-name="arrowdown" unicode="&#x2193;" 
d="M859 283c-91 -87 -296 -256 -353 -314l-20 -1c-93 66 -288 267 -345 318l125 122l147 -163v548l159 -1l-2 -546l168 162z" />
    <glyph glyph-name="uni3013" unicode="&#x3013;" 
d="M860 5c-243 -2 -483 0 -720 -4l3 293c237 6 476 9 714 8zM855 471c-237 0 -475 1 -713 3l5 281c236 3 472 5 710 -3z" />
    <glyph glyph-name="element" unicode="&#x2208;" 
d="M859 34c-46 -5 -116 -7 -264 -7c-71 3 -143 8 -211 18c-69 10 -126 53 -178 107c-25 27 -40 63 -51 100c-17 67 -13 185 13 241c17 37 46 87 81 119c74 67 122 86 202 103c66 14 121 12 191 15c64 3 130 1 196 -1l-4 -152c-112 1 -304 3 -371 -18
c-34 -10 -67 -27 -98 -58c-14 -27 -17 -48 -21 -65l484 7l3 -148l-477 -8c-1 -15 2 -42 22 -57c37 -25 89 -43 177 -50c41 -2 98 -4 307 3z" />
    <glyph glyph-name="suchthat" unicode="&#x220b;" 
d="M140 34l-1 149c209 -7 266 -5 307 -3c88 7 140 25 177 50c20 15 23 42 22 57l-477 8l3 148l484 -7c-4 17 -7 38 -21 65c-31 31 -64 48 -98 58c-67 21 -259 19 -371 18l-4 152c66 2 132 4 196 1c70 -3 125 -1 191 -15c80 -17 128 -36 202 -103c35 -32 64 -82 81 -119
c26 -56 30 -174 13 -241c-11 -37 -26 -73 -51 -100c-52 -54 -109 -97 -178 -107c-68 -10 -140 -15 -211 -18c-148 0 -218 2 -264 7z" />
    <glyph glyph-name="reflexsubset" unicode="&#x2286;" 
d="M869 -20l-733 -7l3 154l731 11zM560 214c-70 3 -138 4 -202 15c-63 10 -126 34 -176 82c-27 26 -37 67 -43 103c-7 23 -8 53 -4 89c2 45 19 88 41 117c20 27 55 59 88 76c78 40 123 46 203 56c89 7 168 6 364 7l1 -141c-166 0 -277 6 -346 -7c-76 -7 -113 -18 -151 -58
c-22 -26 -27 -44 -33 -75c1 -46 21 -67 38 -80c30 -17 77 -26 114 -26c36 -3 77 -3 113 -3c105 0 175 -3 271 2v-146c-52 -7 -228 -5 -278 -11z" />
    <glyph glyph-name="reflexsuperset" unicode="&#x2287;" 
d="M132 -20l-1 158l731 -11l3 -154zM441 214c-50 6 -226 4 -278 11v146c96 -5 166 -2 271 -2c36 0 77 0 113 3c37 0 84 9 114 26c17 13 37 34 38 80c-6 31 -11 49 -33 75c-38 40 -75 51 -151 58c-69 13 -180 7 -346 7l1 141c196 -1 275 0 364 -7c80 -10 125 -16 203 -56
c33 -17 68 -49 88 -76c22 -29 39 -72 41 -117c4 -36 3 -66 -4 -89c-6 -36 -16 -77 -43 -103c-50 -48 -113 -72 -176 -82c-64 -11 -132 -12 -202 -15z" />
    <glyph glyph-name="propersubset" unicode="&#x2282;" 
d="M628 28c-77 3 -160 10 -234 26c-77 17 -144 45 -195 107c-23 30 -37 59 -51 92c-14 32 -20 67 -24 104c-3 43 5 86 20 124c17 44 31 80 62 109c53 49 110 82 172 105c43 16 106 25 202 30c132 7 209 1 294 0l1 -145l-262 -2c-51 -4 -101 -14 -147 -27
c-51 -17 -94 -44 -131 -80c-27 -37 -39 -80 -37 -133c10 -33 27 -63 53 -90c34 -24 71 -37 111 -48c44 -4 98 -11 141 -15l275 5l1 -158z" />
    <glyph glyph-name="propersuperset" unicode="&#x2283;" 
d="M372 28l-251 4l1 158l275 -5c43 4 97 11 141 15c40 11 77 24 111 48c26 27 43 57 53 90c2 53 -10 96 -37 133c-37 36 -80 63 -131 80c-46 13 -96 23 -147 27l-262 2l1 145c85 1 162 7 294 0c96 -5 159 -14 202 -30c62 -23 119 -56 172 -105c31 -29 45 -65 62 -109
c15 -38 23 -81 20 -124c-4 -37 -10 -72 -24 -104c-14 -33 -28 -62 -51 -92c-51 -62 -118 -90 -195 -107c-74 -16 -157 -23 -234 -26z" />
    <glyph glyph-name="union" unicode="&#x222a;" 
d="M510 -4c-37 1 -73 5 -110 15s-78 26 -109 56c-23 23 -45 49 -62 76c-17 26 -33 64 -40 94c-16 60 -24 97 -27 144c-4 43 -9 95 -5 139c-1 70 -5 136 1 224l159 5c-4 -122 -5 -177 -5 -234c3 -56 9 -121 20 -178c8 -68 29 -108 73 -148c27 -24 71 -36 114 -36
c41 4 80 25 101 52c35 45 41 88 54 145s20 118 23 178c1 63 1 132 4 220l147 2c0 -81 1 -304 -11 -409c-10 -70 -29 -125 -57 -179c-21 -41 -49 -70 -85 -105c-20 -20 -68 -41 -95 -48c-30 -10 -52 -14 -90 -13z" />
    <glyph glyph-name="intersection" unicode="&#x2229;" 
d="M510 756c38 1 60 -3 90 -13c27 -7 75 -28 95 -48c36 -35 64 -64 85 -105c28 -54 47 -109 57 -179c12 -105 11 -328 11 -409l-147 2c-3 88 -3 157 -4 220c-3 60 -10 121 -23 178s-19 100 -54 145c-21 27 -60 48 -101 52c-43 0 -87 -12 -114 -36c-44 -40 -65 -80 -73 -148
c-11 -57 -17 -122 -20 -178c0 -57 1 -112 5 -234l-159 5c-6 88 -2 154 -1 224c-4 44 1 96 5 139c3 47 11 84 27 144c7 30 23 68 40 94c17 27 39 53 62 76c31 30 72 46 109 56s73 14 110 15z" />
    <glyph glyph-name="logicaland" unicode="&#x2227;" 
d="M900 15l-179 -7c-48 114 -173 393 -215 507c-48 -121 -170 -408 -215 -514l-191 12c101 196 255 538 350 695l29 29l59 1l28 -27c77 -132 283 -563 334 -696z" />
    <glyph glyph-name="logicalor" unicode="&#x2228;" 
d="M900 723c-51 -133 -257 -564 -334 -696l-28 -27l-59 1l-29 29c-95 157 -249 499 -350 695l191 12c45 -106 167 -393 215 -514c42 114 167 393 215 507z" />
    <glyph glyph-name="uniFFE2" unicode="&#xffe2;" 
d="M920 224l-165 -1l-2 158c-212 4 -441 -3 -677 0v156c272 5 547 7 824 10l24 -24z" />
    <glyph glyph-name="arrowdblright" unicode="&#x21d2;" 
d="M669 -10l-129 71l55 83h-501l4 146l561 2l72 97l-79 74l-555 -9l-3 149l473 5l-80 74l101 89c64 -53 268 -294 318 -355v-44c-40 -61 -196 -322 -237 -382z" />
    <glyph glyph-name="arrowdblboth" unicode="&#x21d4;" 
d="M749 -2l-135 80l64 92l-323 -5l64 -85l-106 -76c-89 109 -181 224 -265 359l-1 38c69 120 128 222 206 357l124 -58l-49 -90l346 3l-45 76l126 73c66 -126 137 -242 197 -353l1 -34c-71 -159 -146 -273 -204 -377zM749 300l52 85l-56 98l-487 -8l-56 -93l64 -83z" />
    <glyph glyph-name="universal" unicode="&#x2200;" 
d="M564 3c-40 -9 -105 -11 -130 -1c-77 111 -145 225 -193 342c-49 119 -91 250 -141 380l183 5l71 -213l278 2l96 208l173 -3c-42 -116 -100 -248 -155 -366c-56 -121 -110 -232 -182 -354zM403 377c11 -31 78 -156 97 -183c10 20 76 165 82 182z" />
    <glyph glyph-name="existential" unicode="&#x2203;" 
d="M199 13l11 163l413 -6l3 130l-366 7l1 144l364 5l7 116l-436 1l6 173c206 6 393 3 596 7c2 -252 1 -495 6 -735c-191 -2 -400 -11 -605 -5z" />
    <glyph glyph-name="angle" unicode="&#x2220;" 
d="M111 20l-8 32c102 135 487 602 581 697l109 -108c-54 -66 -321 -384 -401 -482l506 -6l-2 -141z" />
    <glyph glyph-name="perpendicular" unicode="&#x22a5;" 
d="M104 -2l-2 145l321 8v554h157l-4 -553l321 -3l1 -146c-282 -5 -539 -5 -794 -5z" />
    <glyph glyph-name="uni2312" unicode="&#x2312;" 
d="M949 615c-76 18 -145 42 -220 62c-68 19 -116 31 -232 35c-109 4 -215 -26 -272 -37c-63 -13 -120 -30 -181 -54l-14 132c94 50 195 81 339 95c96 10 212 10 302 -7c78 -14 195 -40 307 -90z" />
    <glyph glyph-name="partialdiff" unicode="&#x2202;" 
d="M418 -34c-42 -4 -88 4 -127 22c-28 14 -52 33 -70 55c-20 20 -31 42 -42 68c-10 56 -12 108 8 161c20 52 41 103 83 140c30 40 100 77 172 90c84 16 146 11 224 -25c6 16 11 36 18 69c6 34 5 56 2 88c-4 17 -18 22 -35 30c-23 12 -50 15 -74 6c-39 -16 -73 -39 -104 -64
c-32 -21 -48 -40 -75 -72l-109 41c40 67 101 142 156 175c56 34 104 44 152 48c31 3 59 1 88 -4c31 -4 73 -24 102 -57c31 -36 42 -71 46 -141c1 -76 -10 -140 -39 -226c-16 -53 -43 -114 -77 -170c-36 -65 -66 -115 -97 -142c-22 -24 -49 -42 -74 -59
c-48 -27 -91 -29 -128 -33zM455 121c26 11 61 32 81 59c36 46 87 118 87 171c-16 14 -50 35 -79 34c-60 -2 -101 -11 -148 -35c-36 -23 -54 -58 -73 -96c-11 -39 -12 -70 2 -103c8 -17 25 -23 39 -29c25 -11 58 -5 91 -1z" />
    <glyph glyph-name="gradient" unicode="&#x2207;" 
d="M497 14c-23 15 -149 206 -224 327c-56 90 -115 202 -174 338l10 13c104 6 734 15 779 9l13 -11c-64 -132 -317 -576 -387 -678zM528 257c46 78 167 280 197 348l-379 -4z" />
    <glyph glyph-name="equivalence" unicode="&#x2261;" 
d="M853 492c-233 -2 -457 3 -710 3l1 118c239 4 472 4 714 0zM853 305c-233 -2 -457 3 -710 3l1 118c239 4 472 4 714 0zM853 114c-233 -2 -457 3 -710 3l1 118c239 4 472 4 714 0z" />
    <glyph glyph-name="uni2252" unicode="&#x2252;" 
d="M144 208l1 120c228 8 456 12 709 15l-5 -121c-255 -9 -483 -14 -705 -14zM851 415c-229 -2 -453 3 -702 3l1 130c235 4 468 4 706 0zM299 572c-34 1 -53 11 -58 22c-23 23 -25 56 -25 85l16 30c23 16 44 29 73 25c22 0 46 -11 66 -32c13 -17 20 -37 23 -59
c-7 -20 -15 -36 -23 -46c-23 -14 -46 -25 -72 -25zM678 26c-20 6 -39 16 -53 36l-9 45c3 32 15 56 33 69c19 11 35 19 48 16c34 -5 64 -8 86 -39c6 -20 9 -40 6 -62c-5 -14 -12 -29 -26 -40c-25 -19 -52 -28 -85 -25z" />
    <glyph glyph-name="uni226A" unicode="&#x226a;" 
d="M402 55c-41 39 -249 213 -311 278l1 31c78 100 307 341 307 341l154 -71c-39 -46 -207 -213 -254 -271c49 -48 213 -191 255 -222zM761 67c-64 54 -267 253 -311 295v25c35 44 232 266 274 308l156 -71c-44 -60 -182 -202 -213 -241c33 -32 156 -156 243 -237z" />
    <glyph glyph-name="uni226B" unicode="&#x226b;" 
d="M599 55l-152 86c42 31 206 174 255 222c-47 58 -215 225 -254 271l154 71s229 -241 307 -341l1 -31c-62 -65 -270 -239 -311 -278zM240 67l-149 79c87 81 210 205 243 237c-31 39 -169 181 -213 241l156 71c42 -42 239 -264 274 -308v-25c-44 -42 -247 -241 -311 -295z
" />
    <glyph glyph-name="radical" unicode="&#x221a;" 
d="M302 -82c-39 -6 -77 -6 -115 9l-45 143l-29 -98l-99 54c10 33 65 185 79 222l91 -1c17 -44 33 -79 47 -114c45 114 199 574 237 710l17 24l509 2l-5 -135l-415 -3c-50 -165 -222 -672 -272 -813z" />
    <glyph glyph-name="uni223D" unicode="&#x223d;" 
d="M701 146c-31 3 -84 20 -152 64l59 117c47 -22 93 -36 134 -39c15 4 33 10 45 24c22 31 26 64 21 107c-24 49 -74 53 -106 36c-87 -48 -148 -108 -227 -177c-45 -38 -82 -74 -131 -97c-40 -19 -72 -21 -118 -24c-42 3 -96 16 -128 53c-28 39 -47 89 -51 142
c4 80 25 141 56 178c30 36 69 56 106 72c43 17 88 22 137 15c59 -9 78 -15 118 -43l-45 -128c-31 12 -79 29 -111 29c-49 -5 -85 -19 -119 -58c-12 -16 -17 -65 13 -81c22 -14 43 -21 72 -18c83 23 162 99 240 162c81 72 127 114 242 129c53 2 86 -13 110 -28
c27 -15 42 -36 60 -73c22 -46 27 -108 20 -172c-3 -29 -9 -61 -23 -89c-13 -26 -38 -50 -67 -67c-41 -32 -95 -44 -155 -34z" />
    <glyph glyph-name="proportional" unicode="&#x221d;" 
d="M713 136c-49 4 -87 10 -126 35c-44 29 -65 55 -99 83c-40 -29 -72 -59 -119 -74c-29 -20 -71 -27 -111 -27c-32 3 -61 10 -90 23c-28 11 -52 34 -74 64c-23 44 -35 94 -32 165c1 48 26 90 50 127c16 22 33 38 57 53c40 25 87 31 139 24c51 -7 84 -25 113 -45
c27 -20 50 -45 75 -78c43 62 110 112 154 124c46 13 111 17 151 11c30 -5 62 -21 84 -47c17 -21 31 -42 46 -71l-119 -85c-16 46 -57 56 -89 56c-44 -2 -101 -19 -164 -106c22 -20 48 -53 77 -63c26 -13 56 -23 88 -19c32 6 69 12 94 64l124 -66c-12 -34 -24 -56 -48 -81
s-50 -33 -78 -46c-29 -14 -67 -24 -103 -21zM283 299c23 4 88 22 111 78c-38 56 -70 75 -131 80c-44 -6 -65 -50 -63 -93c12 -53 43 -66 83 -65z" />
    <glyph glyph-name="uni2235" unicode="&#x2235;" 
d="M762 726c56 1 92 -12 110 -42c15 -20 17 -58 15 -78c-12 -47 -39 -72 -82 -81c-35 2 -55 9 -79 29c-19 18 -35 45 -37 74c-4 30 5 52 19 74c11 8 35 22 54 24zM233 722c29 -4 45 -14 57 -26c19 -13 23 -28 29 -60c2 -27 0 -48 -12 -70c-26 -28 -53 -35 -84 -37
c-30 0 -50 11 -74 30c-25 19 -38 40 -34 75c0 23 6 41 16 58c28 20 58 34 102 30zM466 207c53 4 81 -5 111 -29c14 -20 21 -50 18 -80c-2 -17 -13 -34 -23 -51c-15 -13 -34 -30 -52 -30c-37 0 -61 5 -93 26c-13 8 -20 36 -22 62c-3 33 0 57 17 81c10 11 27 17 44 21z" />
    <glyph glyph-name="integral" unicode="&#x222b;" 
d="M420 -67c-38 4 -71 20 -98 47c-23 22 -39 34 -53 92l94 49c8 -20 26 -35 48 -40c17 -10 41 -6 58 14c-4 85 -6 227 -19 364c-12 130 -11 237 -9 257c11 34 22 69 52 91c32 24 69 30 124 29c38 -1 89 -29 115 -62l-68 -85c-17 19 -54 35 -81 25c-23 -28 -23 -60 -24 -104
c-1 -36 14 -224 24 -282c6 -61 10 -123 13 -185c-3 -32 -1 -56 -9 -95c-6 -31 -23 -60 -47 -83c-27 -33 -76 -42 -120 -32z" />
    <glyph glyph-name="uni222C" unicode="&#x222c;" 
d="M604 -57c-27 -3 -67 11 -93 41c-27 33 -43 72 -50 111l92 43c9 -40 18 -53 31 -57l11 -3c17 37 24 101 17 243l-19 254c-12 82 -15 164 15 208c16 15 45 31 64 33c58 5 92 -7 141 -46l-47 -79c-37 15 -57 17 -72 -14c-2 -19 -2 -59 6 -79c8 -53 35 -264 29 -453
c-3 -23 -6 -58 -12 -88c-9 -35 -18 -64 -45 -89c-17 -18 -46 -25 -68 -25zM301 -49c-30 8 -53 26 -76 49c-15 22 -28 48 -38 79l92 67c10 -25 19 -46 34 -52l11 5c16 13 26 132 29 165c2 31 2 196 -20 392c-1 70 12 99 39 123c23 19 50 33 98 34c31 3 86 -22 108 -39
l-55 -91c-26 16 -56 25 -70 0c6 -63 15 -195 14 -338c0 -99 -7 -196 -13 -264c-3 -37 -27 -66 -58 -92c-30 -29 -66 -43 -95 -38z" />
    <glyph glyph-name="uni212B" unicode="&#x212b;" 
d="M856 -31l-174 -14l-65 131l-219 -3l-67 -139l-187 10c37 81 234 436 291 521c34 9 126 7 166 4c57 -84 227 -442 255 -510zM571 226c-18 38 -33 80 -60 134c-21 -51 -49 -98 -66 -138zM512 524c-45 3 -97 10 -124 46c-28 38 -39 88 -30 141c6 32 21 59 51 80
c43 31 86 37 133 28c32 -6 62 -14 87 -39c34 -37 48 -86 38 -145c-7 -31 -20 -56 -41 -80c-32 -24 -68 -34 -114 -31zM541 626c20 13 33 36 30 57c-7 32 -32 40 -58 50c-24 -4 -44 -14 -58 -34c-2 -17 -4 -33 -2 -47c21 -35 46 -37 88 -26z" />
    <glyph glyph-name="perthousand" unicode="&#x2030;" 
d="M239 -77l-109 72c42 89 119 259 200 430c84 180 158 339 192 396l121 -47c-12 -44 -142 -288 -191 -394c-48 -105 -157 -355 -213 -457zM532 10c-33 4 -60 23 -85 60c-21 44 -29 79 -25 148c1 41 13 81 27 115c19 24 41 51 61 62c18 9 45 8 72 5c35 -6 71 -35 85 -95
c8 -27 11 -69 7 -110c-11 -83 -21 -115 -50 -153c-25 -28 -61 -32 -92 -32zM564 140c9 14 16 27 20 51c2 23 -4 49 -12 63c-13 18 -27 31 -47 8c-10 -21 -17 -45 -14 -83c9 -22 16 -39 32 -45c11 -4 17 0 21 6zM200 393c-44 7 -82 28 -114 74c-20 45 -23 99 -23 147
c7 31 12 60 27 78c13 28 44 49 69 63c21 13 53 15 81 15c24 -3 51 -15 71 -45c17 -24 25 -47 32 -75c7 -31 10 -70 7 -100c-11 -47 -20 -80 -50 -115c-27 -31 -59 -46 -100 -42zM241 536c8 13 15 24 17 47c1 28 -9 46 -18 51c-18 13 -33 15 -56 2c-18 -18 -27 -41 -25 -75
c10 -21 22 -38 38 -43c18 -1 32 9 44 18zM811 10c-33 4 -60 23 -85 60c-21 44 -29 79 -25 148c1 41 13 81 27 115c19 24 41 51 61 62c18 9 45 8 72 5c35 -6 71 -35 85 -95c8 -27 11 -69 7 -110c-11 -83 -21 -115 -50 -153c-25 -28 -61 -32 -92 -32zM843 140
c9 14 16 27 20 51c2 23 -4 49 -12 63c-13 18 -27 31 -47 8c-10 -21 -17 -45 -14 -83c9 -22 16 -39 32 -45c11 -4 17 0 21 6z" />
    <glyph glyph-name="uni266F" unicode="&#x266f;" 
d="M680 -24l-94 1l-2 219l-170 -28l-1 -198l-100 -4l5 185l-138 -32l-3 132l142 35l-1 132l-127 -27l-3 151l130 28c-3 70 1 151 3 218l99 3l4 -197l159 25l1 169l98 6l1 -147l135 18l-5 -130l-132 -30l-2 -139l141 27l3 -135l-139 -30c-2 -93 -6 -172 -4 -252zM582 336
l2 149l-167 -39l1 -137z" />
    <glyph glyph-name="uni266D" unicode="&#x266d;" 
d="M402 -45l-82 -8c-4 63 -4 261 -7 461c-1 86 2 216 4 404l101 2c-1 -143 -8 -286 -1 -417c0 0 61 42 102 59c38 16 83 29 127 36c39 -3 66 -11 89 -42c23 -30 28 -70 32 -111c-4 -32 -12 -64 -24 -94c-15 -29 -32 -55 -56 -82c-37 -38 -76 -76 -117 -108
c-44 -35 -124 -76 -168 -100zM411 53c0 0 96 69 156 137c18 23 33 46 44 73c9 17 12 38 9 61c-11 19 -26 32 -46 31c-25 3 -56 -4 -82 -19c-26 -14 -53 -32 -76 -53c-7 -72 -7 -167 -5 -230z" />
    <glyph glyph-name="musicalnote" unicode="&#x266a;" 
d="M248 -18c-25 5 -51 14 -72 32c-29 33 -40 67 -39 117c5 67 28 105 63 141c31 31 69 41 96 49c26 8 59 10 121 3c-1 83 2 358 4 458l116 1l9 -34c40 -25 94 -45 141 -68c37 -18 74 -32 99 -65c30 -30 48 -71 63 -109c13 -37 15 -71 13 -111c-3 -49 -59 -118 -115 -164
l-15 9c-2 29 -9 62 -13 82c-12 66 -34 95 -68 121c-47 32 -73 38 -112 54c0 -57 -1 -146 -1 -196c16 -46 15 -106 7 -139c-7 -50 -31 -94 -69 -138c-23 -22 -55 -42 -102 -48c-32 -4 -82 -5 -126 5z" />
    <glyph glyph-name="dagger" unicode="&#x2020;" 
d="M622 -51c-98 -5 -181 -9 -263 -2l-6 22l55 97l23 346l-121 -7l-72 -53l-20 1c-6 65 -7 147 -4 240l20 7l79 -40l113 -12l-10 165l-51 65l-5 20c48 16 256 23 293 9l1 -20l-61 -72l-28 -157l129 -2l84 61l14 -14c0 -85 -2 -151 -4 -222l-15 -13l-75 42l-128 -4l10 -336
l51 -102z" />
    <glyph glyph-name="daggerdbl" unicode="&#x2021;" 
d="M592 -51c-83 -7 -164 -6 -210 -1l-3 20l32 67l-3 221l-98 -9l-64 -46l-18 8c2 66 -1 126 3 203l20 12l55 -38l104 6l1 152l-99 -3l-59 -36l-15 5c-4 52 -10 103 -6 168l18 10l64 -28l96 4l-3 82l-24 46l11 16c70 7 139 10 211 2l6 -18l-32 -46l-3 -67l99 1l63 20l12 -12
c5 -53 0 -117 -4 -154l-10 -13l-61 32l-103 -8l-3 -151l83 1l97 54l16 -10c5 -86 8 -167 1 -208l-12 -7l-94 37l-85 -3l-5 -214l37 -75z" />
    <glyph glyph-name="paragraph" unicode="&#xb6;" 
d="M601 -30l-140 6v301c-40 -2 -81 15 -117 27s-69 29 -95 59c-20 21 -37 37 -50 69c-14 29 -25 66 -25 96c0 47 16 104 39 134c63 80 120 100 180 116c55 13 377 11 433 3v-798l-138 -9l-5 701h-69z" />
    <glyph glyph-name="uni25EF" unicode="&#x25ef;" 
d="M463 -86c-56 4 -108 21 -151 37c-50 13 -85 41 -125 77c-47 57 -94 113 -110 179c-23 70 -30 141 -28 209c3 50 15 96 31 146c14 47 41 95 78 131c53 57 115 96 191 120c71 23 147 34 224 31c40 -3 80 -7 117 -17s69 -22 99 -48c26 -17 56 -41 74 -64
c37 -47 59 -83 89 -174c5 -30 11 -77 10 -113c3 -80 -4 -144 -30 -222c-23 -70 -48 -127 -112 -188c-45 -43 -107 -64 -167 -80c-60 -17 -124 -24 -190 -24zM649 28c44 13 96 40 135 83c32 47 58 91 79 152c23 65 17 134 10 185c-3 53 -15 117 -41 158
c-29 52 -70 88 -123 122c-42 18 -85 28 -135 33c-112 0 -163 -11 -216 -32c-54 -24 -99 -56 -141 -99c-29 -46 -58 -88 -65 -137c-12 -57 -17 -106 -11 -167c2 -37 6 -54 18 -98c17 -47 38 -79 66 -107c45 -40 87 -64 133 -89c31 -14 78 -26 129 -28c51 -1 104 9 162 24z
" />
    <glyph glyph-name="uniFF10" unicode="&#xff10;" 
d="M449 -20c-38 8 -74 21 -99 54c-42 57 -62 110 -71 174c-8 63 -17 128 -14 191c2 64 15 127 28 186c13 58 60 134 116 156c52 20 111 26 175 13c37 -5 64 -25 79 -45c30 -37 50 -66 57 -126c17 -71 17 -141 18 -203c0 -70 -11 -131 -24 -195c-10 -39 -25 -79 -50 -115
c-15 -22 -36 -43 -61 -60c-39 -30 -92 -40 -154 -30zM541 150c21 34 26 64 38 105c4 87 8 136 -2 245c-1 21 -6 63 -20 90c-16 22 -46 26 -71 19c-18 -1 -29 -27 -36 -41c-11 -37 -18 -86 -23 -133c-6 -35 -8 -104 -1 -147c10 -63 17 -92 49 -138c14 -14 50 -21 66 0z" />
    <glyph glyph-name="uniFF11" unicode="&#xff11;" 
d="M594 0l-150 1c1 175 -5 323 0 558h-120l6 82c34 34 100 89 125 105c53 8 93 4 143 1c-8 -290 2 -524 -4 -747z" />
    <glyph glyph-name="uniFF12" unicode="&#xff12;" 
d="M725 -7c-150 0 -299 -5 -451 2l6 137c33 22 81 72 104 95c23 17 45 35 66 61c29 33 50 75 67 114c20 45 25 87 22 135c5 18 -7 39 -20 48c-14 9 -27 15 -55 11c-31 -1 -47 -21 -51 -46l-6 -61h-128c4 94 13 153 47 196c25 31 60 52 97 63c38 10 76 13 112 9
c47 -11 73 -22 97 -48c24 -28 40 -55 51 -88c9 -26 13 -59 10 -99c-7 -55 -20 -110 -37 -158c-12 -38 -38 -83 -82 -140c-18 -23 -37 -46 -59 -79l212 -4z" />
    <glyph glyph-name="uniFF13" unicode="&#xff13;" 
d="M512 -3c-46 -1 -94 16 -131 29c-42 14 -58 22 -94 52c-15 12 -30 31 -53 50l94 109c21 -21 48 -44 80 -62c25 -14 53 -26 92 -30c50 -2 75 13 95 38c12 10 17 25 14 42c-2 24 -18 57 -34 76c-45 15 -109 31 -154 41c-13 22 -11 92 0 114c90 11 130 17 180 52
c11 15 16 32 13 48c-4 19 -18 38 -36 47c-42 19 -95 17 -150 5c-27 -9 -55 -16 -80 -24l-26 129c55 24 99 35 127 42c29 7 63 6 92 6l48 -3c47 -4 92 -26 126 -64c29 -39 45 -83 42 -132c-4 -34 -3 -62 -12 -91c-13 -29 -36 -48 -70 -72c27 -19 50 -49 60 -77
c21 -42 31 -86 28 -136c-10 -38 -28 -73 -60 -103c-25 -29 -51 -50 -86 -66c-33 -13 -66 -20 -105 -20z" />
    <glyph glyph-name="uniFF14" unicode="&#xff14;" 
d="M664 -4l-146 -2l-4 157c-131 -1 -216 -1 -314 4v140c32 97 58 168 83 244c25 75 54 146 92 219l144 -15c-28 -82 -50 -142 -69 -206c-22 -65 -45 -125 -80 -235l147 -2c3 116 5 220 7 344l145 -5c-2 -128 1 -223 -3 -332c37 -1 91 -2 143 -6l-3 -149
c-57 -1 -102 0 -143 -6z" />
    <glyph glyph-name="uniFF15" unicode="&#xff15;" 
d="M525 -18c-47 4 -92 15 -136 25c-43 10 -84 23 -166 96l79 99c46 -28 114 -64 177 -68c52 -2 102 12 135 47c15 16 23 39 20 56c6 28 -11 48 -36 64c-38 20 -84 27 -138 24c-81 -11 -143 -18 -189 -33c-9 130 -11 317 -1 472l158 2l2 -41c118 -1 221 -7 324 -12l6 -138
c-109 0 -210 3 -331 -6l1 -120c40 10 94 8 124 8c72 1 128 -18 159 -59c26 -24 44 -55 51 -91c3 -34 11 -69 11 -104c1 -59 -16 -110 -63 -151c-23 -23 -57 -35 -87 -49c-32 -14 -64 -21 -100 -21z" />
    <glyph glyph-name="uniFF16" unicode="&#xff16;" 
d="M437 -7c-27 3 -54 12 -77 28c-24 15 -46 30 -66 52c-16 27 -32 58 -41 92c-9 30 -17 64 -15 102c8 127 40 198 68 275c28 78 71 149 123 213l172 4c-31 -50 -53 -102 -81 -152c-28 -49 -54 -103 -73 -158c43 13 91 19 130 9c26 -7 58 -17 80 -28c24 -12 47 -26 67 -52
c22 -32 35 -65 41 -105v-81c-11 -56 -25 -94 -65 -130c-33 -31 -78 -44 -120 -53c-46 -13 -92 -19 -143 -16zM575 155c32 21 39 50 35 83c0 25 -11 54 -28 64c-26 16 -60 23 -93 26c-36 -17 -57 -30 -74 -56c-6 -20 -9 -64 3 -88c14 -33 37 -54 88 -50c23 2 48 9 69 21z" />
    <glyph glyph-name="uniFF17" unicode="&#xff17;" 
d="M491 0c16 181 33 275 46 354c13 77 27 170 40 250l-189 -6c-10 -50 -18 -113 -22 -163l-139 1c0 57 6 246 17 299c187 15 360 13 515 6c2 -33 -1 -105 -14 -143c-10 -74 -33 -159 -51 -251c-22 -118 -30 -210 -51 -347h-152z" />
    <glyph glyph-name="uniFF18" unicode="&#xff18;" 
d="M466 -8c-38 -3 -69 4 -103 11c-33 3 -65 26 -96 42c-32 36 -51 79 -47 129c11 42 30 86 60 126c27 40 57 80 88 118c-29 19 -56 41 -76 65c-24 23 -42 50 -61 73l-15 56c4 30 11 59 33 80c34 26 79 41 121 51c39 10 85 17 130 21c41 0 81 -10 115 -27
c34 -20 64 -41 94 -73c32 -30 59 -60 75 -96c-30 -36 -54 -49 -88 -65c-34 -17 -71 -47 -89 -78c34 -51 64 -88 82 -128c19 -44 27 -86 23 -137c0 -43 -18 -82 -56 -115c-25 -16 -56 -30 -91 -36c-31 -10 -65 -14 -99 -17zM539 140c22 19 24 40 18 69c-8 37 -40 99 -64 131
c-40 -21 -54 -50 -74 -90c-16 -32 -24 -62 -13 -76c8 -16 24 -31 43 -41c34 -6 52 -4 90 7zM486 506c40 39 66 62 104 93c-24 18 -60 40 -99 39c-34 0 -80 -8 -103 -35c11 -46 70 -74 98 -97z" />
    <glyph glyph-name="uniFF19" unicode="&#xff19;" 
d="M608 -12l-146 13c14 88 33 167 57 277c-33 -9 -66 -16 -96 -12c-56 7 -97 21 -140 61c-24 29 -44 61 -49 101c-5 35 -10 61 -7 100c7 32 8 65 18 98c10 31 44 77 68 98c47 38 88 43 142 46c36 -3 60 -7 90 -13c28 -6 54 -19 74 -36l14 23l144 -39
c-50 -172 -81 -276 -104 -386c-27 -109 -48 -212 -65 -331zM539 423c10 30 26 64 31 120c-3 18 -11 43 -26 53c-28 23 -66 25 -99 21c-25 -5 -44 -16 -57 -40c-11 -18 -19 -44 -23 -80c5 -19 18 -44 41 -64c16 -14 41 -17 64 -20c31 1 45 2 69 10z" />
    <glyph glyph-name="uniFF21" unicode="&#xff21;" 
d="M867 7l-195 -6c-23 59 -43 123 -63 189l-219 -10c-24 -67 -39 -122 -48 -170l-208 -1c39 143 79 264 119 387c41 124 105 236 160 348c59 6 129 7 199 7c41 -90 85 -214 135 -338c47 -124 87 -282 120 -406zM428 330l154 7c-17 69 -45 153 -67 221l-16 -4
c-19 -36 -60 -185 -71 -224z" />
    <glyph glyph-name="uniFF22" unicode="&#xff22;" 
d="M354 8c-44 0 -104 0 -153 1c-4 227 -7 475 1 725c41 16 103 18 153 19c107 5 185 3 225 -6c41 -8 78 -20 112 -42c16 -15 29 -29 38 -48c9 -20 12 -45 9 -72c-6 -42 -25 -80 -59 -111l-38 -41c39 -4 53 -14 90 -34c26 -19 49 -45 62 -73c11 -17 17 -52 18 -76
c-3 -33 -6 -65 -14 -97c-7 -33 -22 -60 -44 -84c-28 -25 -58 -44 -96 -50c-37 -8 -78 -10 -115 -17zM589 173c25 5 35 23 42 43l-2 25c-8 38 -48 66 -97 68c-60 3 -116 -1 -172 -4l-1 -149l84 -1c40 6 119 6 146 18zM539 512c24 23 29 55 17 76l-21 20
c-30 10 -114 9 -176 -1l-3 -118l41 -4c46 0 105 3 142 27z" />
    <glyph glyph-name="uniFF23" unicode="&#xff23;" 
d="M441 9c-30 5 -57 18 -84 31c-26 16 -48 34 -75 51c-34 31 -60 69 -80 108c-20 38 -27 82 -31 126c4 96 15 136 30 190s42 96 71 143c33 34 75 58 121 72c39 15 88 21 137 21c47 -3 74 -2 122 -13c31 -11 51 -23 74 -40c27 -23 42 -41 59 -78c15 -21 31 -58 45 -90
l-144 -66c-12 22 -39 68 -61 87c-32 15 -65 24 -107 17c-50 -4 -92 -22 -120 -60c-15 -30 -34 -51 -43 -85c-10 -44 -9 -85 -5 -120c7 -22 18 -53 34 -61c17 -16 47 -27 73 -36c27 -11 71 -10 103 -7c30 3 56 17 76 39c29 22 52 40 67 58l137 -102c-19 -35 -62 -79 -93 -109
c-44 -38 -96 -56 -144 -68c-54 -13 -96 -13 -162 -8z" />
    <glyph glyph-name="uniFF24" unicode="&#xff24;" 
d="M359 6c-42 -1 -92 1 -155 6c-9 221 -10 505 -2 735c52 5 105 8 149 5c74 -4 145 -12 214 -29c73 -28 116 -58 176 -123c27 -35 41 -78 51 -123c9 -42 13 -86 15 -134c-8 -74 -21 -125 -36 -146s-39 -55 -60 -77c-52 -46 -98 -71 -168 -93c-44 -14 -89 -17 -184 -21z
M546 229c30 21 56 55 74 84c12 30 14 71 7 107c-6 32 -24 62 -49 91c-27 19 -54 33 -88 39c-34 3 -75 14 -122 9c-11 -126 -5 -245 -6 -362c96 -1 139 1 184 32z" />
    <glyph glyph-name="uniFF25" unicode="&#xff25;" 
d="M781 17c-187 -10 -373 -10 -556 -9c-2 243 -7 486 8 733c179 12 387 11 547 11l3 -159c-126 -5 -249 -9 -369 -13c-5 -42 -4 -84 -6 -114l290 -1l2 -145l-295 -9c-3 -48 -7 -94 0 -138c144 -1 256 -1 376 3v-159z" />
    <glyph glyph-name="uniFF26" unicode="&#xff26;" 
d="M388 3l-178 4c5 241 7 463 16 734c188 4 380 3 565 1l-9 -158c-130 -6 -255 -11 -373 -13c-5 -51 -7 -105 -4 -134c85 0 184 -6 291 -7l-1 -154c-113 -6 -206 -4 -294 -9c-10 -91 -12 -178 -13 -264z" />
    <glyph glyph-name="uniFF27" unicode="&#xff27;" 
d="M435 2c-28 5 -52 15 -77 28c-24 11 -41 17 -90 61c-41 36 -77 99 -89 166c-7 39 -11 83 -10 116c2 50 7 106 27 153c21 48 54 102 91 141c42 40 64 53 99 68c22 9 54 17 101 22c81 5 139 6 162 0c55 -8 83 -20 110 -48c19 -18 35 -46 44 -73c16 -42 22 -70 21 -133
l-147 -10c0 34 -7 57 -26 77c-40 39 -70 38 -118 35c-43 0 -84 -14 -106 -26c-31 -17 -51 -46 -61 -73c-14 -33 -25 -62 -26 -99c-6 -34 -4 -58 0 -91c3 -27 12 -51 28 -71c15 -22 30 -43 52 -63c33 -22 74 -27 119 -22c37 0 68 12 92 39c21 17 21 44 24 67l-162 1l-2 125
l196 6c45 4 92 2 135 -7c10 -33 10 -67 6 -102c-6 -38 -15 -78 -24 -114c-13 -39 -36 -78 -67 -108c-21 -21 -53 -37 -83 -49c-32 -14 -69 -14 -103 -20c-46 -8 -80 1 -116 4z" />
    <glyph glyph-name="uniFF28" unicode="&#xff28;" 
d="M339 9l-162 -2c3 245 3 489 20 744l165 -5c-2 -87 -5 -173 3 -286c41 2 227 1 282 0c7 105 1 197 4 293l172 -5c-2 -275 1 -520 -8 -734l-175 -4c3 75 5 155 4 290c-104 -2 -205 -4 -292 -5c-6 -130 -11 -218 -13 -286z" />
    <glyph glyph-name="uniFF29" unicode="&#xff29;" 
d="M670 7c-117 -5 -234 -8 -347 -2l8 158l90 2c0 144 0 287 6 433l-99 -3l2 156c117 3 231 2 349 -2v-147l-86 3c-13 -160 -11 -279 -15 -448l91 -1z" />
    <glyph glyph-name="uniFF2A" unicode="&#xff2a;" 
d="M445 -5c-35 3 -66 9 -94 22c-29 9 -57 29 -78 53c-20 28 -32 56 -39 91c-7 32 -9 62 -12 97l-2 71l158 6c0 -33 5 -61 15 -104c11 -38 29 -50 51 -60c20 -6 39 -12 73 -4c25 3 43 23 58 46c24 35 32 66 38 179c-3 122 -2 216 -5 356l172 -4c1 -168 -1 -338 -2 -434
c-7 -76 -22 -126 -40 -168c-18 -44 -48 -76 -75 -101c-32 -19 -59 -29 -98 -37c-38 -9 -80 -6 -120 -9z" />
    <glyph glyph-name="uniFF2B" unicode="&#xff2b;" 
d="M385 4l-180 -3c0 218 0 584 7 739l174 2c3 -27 3 -204 3 -275c43 47 88 99 136 152c38 42 63 67 100 102l194 -1c-29 -45 -75 -109 -110 -150c-50 -59 -73 -82 -130 -154c33 -49 226 -335 270 -414c-63 0 -126 -1 -185 1c-28 42 -167 237 -192 278
c-37 -33 -59 -51 -85 -84c-3 -62 0 -128 -2 -193z" />
    <glyph glyph-name="uniFF2C" unicode="&#xff2c;" 
d="M785 0c-120 -4 -498 -5 -574 7c-7 325 -1 480 7 733l181 3c4 -180 -10 -373 -2 -556c112 0 258 0 392 2z" />
    <glyph glyph-name="uniFF2D" unicode="&#xff2d;" 
d="M281 2l-153 -2c-3 255 3 501 15 737l147 5c25 -45 54 -114 86 -171c34 -50 70 -138 107 -189l13 -3c37 45 86 139 124 196c51 90 72 129 107 161l140 -4c5 -238 8 -469 8 -719l-160 -6c-2 112 -3 237 -4 369c-40 -53 -151 -211 -177 -247c-27 -8 -48 -8 -64 0
c-49 65 -141 202 -180 249c-3 -140 -6 -265 -9 -376z" />
    <glyph glyph-name="uniFF2E" unicode="&#xff2e;" 
d="M322 14l-172 -4c-6 234 -4 481 0 722l182 5c48 -63 102 -131 160 -199c56 -67 125 -160 190 -246c4 155 2 312 3 450l171 5c-2 -244 -1 -543 -12 -734l-155 4c-43 34 -116 127 -182 207c-56 64 -112 145 -189 244c-3 -179 -2 -332 4 -454z" />
    <glyph glyph-name="uniFF2F" unicode="&#xff2f;" 
d="M443 -3c-44 13 -75 21 -105 37c-32 17 -52 31 -78 62c-35 41 -62 95 -77 144c-14 48 -17 101 -14 157c7 38 12 92 28 127c12 40 32 72 58 105c33 41 63 72 112 96c46 27 81 29 130 32c50 4 98 -2 140 -21c38 -20 79 -40 110 -79c41 -52 63 -113 75 -174
c13 -64 10 -124 3 -202c-4 -45 -16 -91 -32 -133c-24 -38 -50 -74 -86 -102c-36 -24 -72 -37 -121 -45c-46 -9 -83 -11 -143 -4zM529 162c24 0 71 27 89 58c30 47 39 98 36 155c-3 36 -3 73 -16 106c-9 31 -30 60 -60 80c-20 10 -53 26 -80 23c-50 -9 -88 -24 -118 -72
c-21 -44 -36 -89 -37 -131c3 -31 1 -78 14 -107c10 -26 27 -67 52 -81c41 -27 68 -34 120 -31z" />
    <glyph glyph-name="uniFF30" unicode="&#xff30;" 
d="M368 9l-172 -2c6 241 13 487 20 737c199 9 275 5 350 -4c74 -10 141 -44 197 -103c18 -35 34 -62 40 -117l1 -35c-3 -56 -20 -89 -54 -119c-52 -41 -110 -67 -169 -82c-59 -16 -122 -23 -198 -25c-7 -87 -11 -169 -15 -250zM582 453c18 12 31 26 38 42c8 17 7 36 -6 52
c-9 17 -18 23 -31 33c-34 11 -155 15 -200 9l-4 -164s86 3 114 6c29 4 67 9 89 22z" />
    <glyph glyph-name="uniFF31" unicode="&#xff31;" 
d="M723 -31c-14 26 -47 68 -62 88c-28 -19 -66 -37 -94 -48c-30 -9 -76 -24 -158 -10c-34 8 -72 20 -95 31c-34 10 -62 29 -90 54c-28 34 -46 68 -58 110c-13 38 -22 85 -20 200c4 40 8 82 23 125c12 35 33 73 59 106c19 25 46 47 71 68c24 19 49 37 80 49
c45 16 86 19 132 22c40 -3 75 -9 108 -24c34 -17 68 -32 93 -60c31 -35 55 -76 76 -117c23 -40 39 -90 43 -137c-2 -104 -5 -138 -15 -173c-9 -34 -20 -60 -29 -87c20 -34 43 -66 72 -134zM552 207c-25 36 -54 63 -81 96l99 91c24 -15 59 -34 82 -60c9 22 15 71 12 95
c-4 32 -15 51 -23 66c-16 25 -37 50 -60 67c-31 22 -67 25 -110 22c-37 -6 -76 -33 -104 -61c-32 -32 -58 -99 -59 -160c-7 -71 19 -131 47 -160c34 -28 75 -45 126 -32c23 2 48 16 71 36z" />
    <glyph glyph-name="uniFF32" unicode="&#xff32;" 
d="M350 7l-171 1c2 251 2 484 11 731c30 3 148 4 203 7c108 -2 166 -3 229 -15c60 -12 99 -36 135 -83c13 -23 23 -47 26 -76c4 -29 8 -59 5 -88c-6 -40 -20 -81 -49 -116c-27 -33 -56 -55 -86 -72c70 -118 149 -243 169 -279l-191 -10c-47 72 -87 152 -134 259l-137 3z
M591 454c17 17 22 38 19 64c-4 23 -17 46 -38 62c-35 16 -78 22 -204 7l-9 -162l110 2c37 -4 83 4 122 27z" />
    <glyph glyph-name="uniFF33" unicode="&#xff33;" 
d="M516 -13c-45 0 -91 6 -130 20c-41 15 -77 30 -113 61c-27 28 -48 60 -63 95c-14 30 -22 68 -27 114l181 4c4 -40 22 -76 47 -98c36 -23 75 -32 123 -29c26 2 53 15 74 30c14 23 18 46 9 64c-21 32 -47 53 -88 71c-33 11 -66 22 -96 34c-33 14 -65 31 -95 51
c-33 29 -54 54 -67 87c-16 28 -23 63 -22 100c5 38 21 66 54 95c37 29 78 47 123 62c47 11 94 17 145 14c28 -3 60 -9 90 -18c28 -9 54 -22 80 -46c20 -22 36 -45 46 -71c7 -28 14 -46 15 -104l-170 1c-5 53 -26 72 -55 86c-24 11 -53 12 -74 10c-24 -3 -45 -15 -65 -29
c-10 -6 -20 -20 -13 -40c2 -8 17 -24 35 -31c43 -14 72 -24 109 -42c35 -15 70 -32 100 -54c48 -37 81 -73 108 -107c26 -34 31 -77 40 -114c-2 -26 -10 -55 -21 -78c-14 -26 -35 -45 -57 -66c-28 -27 -63 -43 -105 -52c-39 -9 -78 -17 -118 -20z" />
    <glyph glyph-name="uniFF34" unicode="&#xff34;" 
d="M588 9l-180 1c2 160 2 338 6 548c-95 2 -187 0 -249 0l6 175c210 9 437 8 665 13v-182c-81 0 -159 -3 -234 -5c-6 -207 -7 -386 -14 -550z" />
    <glyph glyph-name="uniFF35" unicode="&#xff35;" 
d="M453 -13c-29 6 -65 13 -92 25c-28 12 -50 29 -71 53c-36 44 -57 94 -74 146c-15 53 -24 112 -28 170c-9 122 -5 235 1 357l174 1c-12 -297 -3 -351 4 -403c9 -80 22 -114 50 -149c19 -26 70 -32 109 -27c25 5 55 26 64 39c33 34 35 68 46 125c6 40 12 83 15 126
c0 97 -5 183 -7 295l172 -3c3 -54 5 -113 3 -175c1 -107 -5 -197 -19 -289c-7 -55 -16 -107 -38 -139c-24 -39 -55 -74 -91 -97c-27 -21 -52 -33 -81 -42c-31 -9 -66 -10 -137 -13z" />
    <glyph glyph-name="uniFF36" unicode="&#xff36;" 
d="M610 2c-86 -14 -145 -15 -218 3c-65 95 -107 221 -142 321c-35 99 -53 193 -96 400l165 14c27 -109 50 -182 72 -270c30 -101 55 -190 108 -284h10c39 94 79 191 108 288c27 96 52 181 79 269l176 -11c-26 -119 -75 -243 -117 -359c-41 -117 -86 -253 -145 -371z" />
    <glyph glyph-name="uniFF37" unicode="&#xff37;" 
d="M727 8c-44 -5 -95 -12 -134 0c-22 51 -69 252 -90 365c-25 -88 -84 -293 -122 -367c-49 -10 -110 -6 -152 0c-40 112 -79 241 -104 360c-32 139 -53 256 -70 364l156 11c23 -76 34 -146 55 -217c22 -73 42 -150 65 -245c21 80 90 309 120 367c34 4 79 3 126 1
c13 -72 65 -286 86 -366c31 105 56 174 77 250c21 74 39 129 58 210l147 -4c-16 -126 -48 -235 -89 -354c-41 -120 -81 -259 -129 -375z" />
    <glyph glyph-name="uniFF38" unicode="&#xff38;" 
d="M659 -2c-43 60 -114 193 -148 242h-12c-45 -86 -91 -165 -138 -237l-203 2c21 31 78 124 132 212c45 73 87 143 103 168c-26 40 -68 102 -110 166c-48 74 -95 149 -114 193h182c45 -72 106 -152 155 -241c26 49 120 194 146 245l187 -5c-24 -45 -67 -112 -112 -179
c-46 -68 -93 -136 -122 -177c16 -28 58 -97 105 -176c39 -67 82 -142 112 -200z" />
    <glyph glyph-name="uniFF39" unicode="&#xff39;" 
d="M591 4l-195 -1c0 113 -2 218 -4 340c-37 63 -88 149 -138 206c-50 56 -131 172 -140 193c73 3 143 6 222 -5c55 -83 113 -176 174 -265c34 51 76 112 115 166c34 48 65 89 85 111c67 6 129 -13 185 -31c-34 -42 -90 -108 -144 -177c-57 -73 -115 -150 -152 -210
c-7 -120 -7 -224 -8 -327z" />
    <glyph glyph-name="uniFF3A" unicode="&#xff3a;" 
d="M428 7c-70 0 -148 2 -242 2c-8 31 -7 107 -1 144c103 111 191 194 227 236c47 48 128 134 154 181c-126 -6 -233 -8 -344 -7v176c196 9 395 9 585 3c1 -57 -2 -113 -13 -168c-20 -27 -40 -53 -65 -78c-54 -55 -68 -78 -122 -136c-53 -59 -104 -116 -173 -188
c125 3 267 2 383 1l6 -157c-92 -12 -281 -9 -395 -9z" />
    <glyph glyph-name="uniFF41" unicode="&#xff41;" 
d="M591 -19l-18 53c-41 -23 -80 -40 -123 -37c-57 -3 -107 17 -148 60c-27 39 -45 76 -51 119c-9 59 -13 110 1 179c14 47 40 87 73 117c24 23 54 43 84 53s63 14 100 14c21 1 44 -8 57 -16l2 30l146 -5c5 -106 31 -421 49 -549zM510 166c19 -1 35 30 50 55
c0 47 -7 91 -22 131c-22 18 -47 22 -76 18c-24 -11 -46 -25 -58 -55c-12 -28 -12 -52 -12 -76c4 -25 12 -43 29 -62c19 -14 41 -21 66 -21z" />
    <glyph glyph-name="uniFF42" unicode="&#xff42;" 
d="M416 4l-166 2c-10 233 0 497 2 776h154l-1 -285c56 24 114 30 171 26c37 -10 83 -26 112 -57c28 -29 46 -59 56 -93c10 -37 28 -93 17 -173c-8 -57 -31 -101 -64 -131c-31 -23 -61 -40 -97 -43c-37 -7 -74 -10 -111 -10l-70 12zM569 186c31 35 31 93 20 120
c-2 22 -15 37 -31 50c-15 9 -43 20 -74 15c-30 -5 -57 -14 -75 -40v-154c35 -8 81 -12 130 -7z" />
    <glyph glyph-name="uniFF43" unicode="&#xff43;" 
d="M496 -1c-39 2 -75 9 -108 24c-32 14 -59 37 -87 65c-20 20 -28 36 -40 73c-9 26 -16 60 -15 89c2 40 3 76 12 115c9 33 20 65 41 93c31 38 52 60 78 72c34 18 70 25 113 30c31 4 63 1 103 -4c40 -6 76 -18 111 -56c27 -27 40 -61 47 -112l-133 -38c-15 36 -28 35 -45 49
c-28 10 -56 16 -82 5c-22 -9 -48 -25 -61 -43c-25 -31 -34 -83 -25 -113c10 -40 21 -70 45 -79c20 -15 38 -22 63 -18c32 -5 57 9 77 28c11 19 22 40 34 66l131 -31c-13 -54 -19 -74 -36 -105c-18 -29 -43 -61 -71 -83c-29 -21 -102 -30 -152 -27z" />
    <glyph glyph-name="uniFF44" unicode="&#xff44;" 
d="M735 8l-160 -4l-4 27c-51 -20 -127 -31 -175 -28c-35 3 -65 22 -90 52c-27 22 -45 55 -58 90c-11 27 -15 73 -11 122c4 80 26 119 51 152c23 33 36 44 62 63c23 16 51 37 123 44c46 1 75 -5 113 -28l1 282l158 5c0 -294 -1 -579 -10 -777zM580 182c6 43 5 86 0 130
c-13 17 -34 29 -55 41c-32 15 -53 9 -69 1c-24 -6 -42 -25 -60 -50c-8 -14 -16 -30 -10 -61c7 -27 13 -45 23 -54c19 -23 49 -37 75 -33c34 -5 63 8 96 26z" />
    <glyph glyph-name="uniFF45" unicode="&#xff45;" 
d="M435 -9c-30 6 -58 14 -81 26c-27 15 -50 34 -69 55c-24 36 -41 71 -51 105c-15 37 -17 75 -13 117c3 39 13 77 31 114c21 44 42 72 76 100c26 22 44 29 74 39c45 11 88 16 122 16c27 0 55 -3 84 -10c38 -17 67 -36 88 -63c18 -26 28 -54 36 -82c4 -32 12 -61 8 -95
c2 -23 -5 -43 -22 -55c-43 -12 -108 -13 -152 -14c-44 -2 -106 -5 -181 -4c-1 -29 10 -50 26 -76c16 -14 44 -31 82 -33c51 -9 87 0 113 28c13 13 20 29 22 49l145 -20c-9 -45 -23 -70 -40 -96c-16 -25 -47 -42 -75 -63c-30 -16 -60 -25 -92 -33c-31 -12 -66 -10 -131 -5z
M598 356c-8 48 -40 67 -51 74c-35 5 -60 3 -84 -6c-25 -12 -49 -21 -65 -70c19 -6 155 -4 200 2z" />
    <glyph glyph-name="uniFF46" unicode="&#xff46;" 
d="M568 2l-169 1l-2 392l-123 1l-3 148l130 -5c6 39 9 70 15 100c7 30 21 60 42 83c24 24 57 37 89 40c30 3 62 7 94 7l86 3v-140h-51c-40 5 -69 -5 -85 -19c-9 -10 -20 -57 -17 -74l145 -1l-2 -138l-149 -1v-397z" />
    <glyph glyph-name="uniFF47" unicode="&#xff47;" 
d="M592 -103c-26 -7 -68 -11 -114 -11c-30 0 -57 2 -79 6c-30 6 -61 16 -83 37c-21 20 -30 31 -40 56c-12 30 -16 61 -16 89l144 -2c-1 -20 5 -41 23 -50c11 -5 36 -11 77 -10c25 1 60 19 73 42c13 21 7 38 9 82c-23 -14 -49 -27 -81 -29c-25 -2 -66 -5 -91 0
c-45 9 -73 22 -112 55c-23 24 -35 53 -44 81s-16 75 -12 108c3 28 9 53 21 79c12 21 28 43 50 62c25 19 53 34 81 44c28 9 59 12 94 12c34 -1 67 -3 96 -16l-1 30l165 -14c2 -112 3 -234 4 -364c-3 -47 -10 -112 -23 -153s-29 -63 -63 -94c-22 -22 -51 -32 -78 -40zM586 274
l-4 92c-43 21 -75 22 -100 17c-20 -1 -38 -9 -53 -25c-13 -16 -18 -31 -16 -53c5 -34 19 -41 33 -47c18 -5 40 -8 63 -7c27 1 57 4 77 23z" />
    <glyph glyph-name="uniFF48" unicode="&#xff48;" 
d="M413 6h-162c-5 256 -5 508 0 772l168 4c-3 -117 -4 -217 0 -295c50 25 101 35 144 35c50 -4 96 -27 132 -66c24 -30 40 -60 50 -94c9 -49 9 -298 7 -359l-158 4c1 46 0 92 4 181c-3 50 -6 88 -29 134c-12 23 -46 35 -63 31c-17 -2 -32 -8 -48 -25
c-15 -16 -26 -30 -37 -64c-5 -71 -10 -182 -8 -258z" />
    <glyph glyph-name="uniFF49" unicode="&#xff49;" 
d="M592 4l-188 1c-2 163 -3 309 9 521l186 7c-7 -207 -10 -368 -7 -529zM514 600c-31 0 -61 6 -81 26c-25 27 -28 66 -25 109c8 24 20 42 34 55c29 13 56 20 92 20c15 -3 31 -16 42 -32c19 -27 29 -56 29 -90c-3 -23 -10 -42 -25 -59c-19 -15 -41 -26 -66 -29z" />
    <glyph glyph-name="uniFF4A" unicode="&#xff4a;" 
d="M360 -98c-47 11 -87 32 -122 72c-21 26 -34 50 -45 83c-6 42 -9 89 -7 121l139 3c1 -29 8 -81 27 -110c12 -13 33 -15 47 -10c14 6 23 17 35 38c15 24 18 47 22 70c11 70 -1 205 -1 360l160 4c5 -142 7 -204 5 -265c6 -62 0 -121 -10 -171c-14 -66 -30 -111 -66 -150
c-21 -24 -59 -42 -98 -49c-29 -5 -59 1 -86 4zM551 608c-48 -4 -83 6 -112 35c-11 17 -15 53 -12 77c3 29 17 49 41 71c20 17 51 23 85 19c24 0 39 -14 51 -33c16 -23 26 -56 20 -89c-7 -36 -18 -59 -40 -73z" />
    <glyph glyph-name="uniFF4B" unicode="&#xff4b;" 
d="M413 7l-174 2c1 269 -2 525 8 773h163c3 -126 2 -254 3 -404c74 59 116 98 178 146l186 -6c-29 -36 -126 -131 -170 -198c38 -67 155 -241 206 -316l-177 2c-49 76 -105 158 -140 214l-82 -44c-1 -61 3 -124 -1 -169z" />
    <glyph glyph-name="uniFF4C" unicode="&#xff4c;" 
d="M593 2l-174 6c-12 262 3 515 1 774h170c-13 -262 4 -519 3 -780z" />
    <glyph glyph-name="uniFF4D" unicode="&#xff4d;" 
d="M114 -9c-6 191 1 328 5 550l173 5l6 -48c49 29 85 42 139 42c29 -4 60 -14 79 -43l16 -27c32 35 66 55 100 64c26 7 60 10 90 10c44 0 85 -21 116 -62c31 -47 45 -102 50 -175c3 -60 4 -206 0 -294l-145 -3c1 72 3 142 -3 236c-2 27 -1 55 -17 77c-20 22 -43 28 -65 25
c-21 -5 -32 -12 -43 -31c-10 -17 -18 -46 -23 -85c0 -80 3 -152 6 -219l-160 -6c2 83 3 169 4 261c0 25 -10 52 -28 71l-11 12c-23 9 -43 10 -60 5c-21 -5 -37 -18 -47 -30c-17 -44 -14 -108 -17 -159c1 -56 -8 -114 -6 -161z" />
    <glyph glyph-name="uniFF4E" unicode="&#xff4e;" 
d="M403 4h-176c-5 181 -3 363 -3 533l170 5l5 -41c63 34 110 38 166 34s109 -13 151 -56c31 -32 51 -54 57 -131c5 -58 5 -113 2 -163l2 -180l-179 6c1 62 1 129 3 202c-4 44 -6 87 -30 125c-20 19 -51 29 -80 25c-41 -5 -64 -25 -77 -49c-17 -45 -11 -258 -11 -310z" />
    <glyph glyph-name="uniFF4F" unicode="&#xff4f;" 
d="M494 -14c-45 4 -83 16 -119 30c-39 16 -73 42 -106 69c-25 30 -45 61 -55 96c-9 37 -18 79 -10 121c4 31 13 61 26 91s30 56 55 80c24 23 50 42 77 58c27 17 53 26 83 30c47 7 70 5 119 -1c36 -3 69 -17 98 -33c29 -17 56 -41 82 -71c19 -23 33 -52 39 -81
c8 -39 21 -122 -4 -203c-16 -37 -35 -70 -61 -100c-30 -30 -66 -50 -101 -60c-39 -14 -81 -26 -123 -26zM560 168c33 16 55 36 59 78c5 43 0 87 -33 109c-24 16 -58 23 -89 20c-35 -1 -69 -22 -88 -46c-14 -16 -16 -34 -21 -58c3 -40 14 -63 36 -87c31 -21 64 -25 97 -25z
" />
    <glyph glyph-name="uniFF50" unicode="&#xff50;" 
d="M396 -111l-176 1c-6 222 3 437 14 651l184 6v-26c37 20 92 31 136 35c30 -4 62 -3 88 -17c29 -15 51 -29 75 -49c33 -29 64 -97 69 -172c-3 -82 -11 -120 -23 -149c-12 -31 -29 -59 -60 -82c-45 -33 -99 -56 -159 -52c-48 -4 -104 -2 -147 15zM606 221c18 37 27 78 7 120
c-10 30 -30 59 -62 64c-37 8 -103 -9 -141 -31c-8 -61 -9 -134 -1 -164c30 -18 91 -29 133 -24c38 5 53 15 64 35z" />
    <glyph glyph-name="uniFF51" unicode="&#xff51;" 
d="M775 -114l-167 -1c-1 59 3 119 0 172c-37 -29 -119 -47 -195 -31c-54 12 -96 41 -135 76c-22 24 -42 48 -48 78c-10 30 -14 62 -12 106c3 75 20 110 38 137c16 27 38 54 68 75c27 21 59 35 93 44c31 9 65 13 102 13c29 -1 59 -11 87 -32l2 38l178 -5
c-2 -229 4 -456 -11 -670zM602 216c4 52 1 91 -3 158c-34 21 -74 31 -110 27c-25 -4 -53 -10 -70 -28c-25 -15 -44 -59 -42 -97c2 -40 13 -72 64 -92c25 -8 56 -20 101 -3c17 7 38 20 60 35z" />
    <glyph glyph-name="uniFF52" unicode="&#xff52;" 
d="M266 8c-2 187 -1 366 7 545l163 1c2 -30 5 -62 3 -93c32 19 71 42 114 53c99 24 163 21 183 13l-2 -158c-89 4 -136 -23 -173 -43c-37 -18 -75 -41 -106 -72c0 -60 -9 -154 -8 -246h-181z" />
    <glyph glyph-name="uniFF53" unicode="&#xff53;" 
d="M462 1c-35 2 -83 18 -117 27c-36 8 -78 25 -117 66l73 116l73 -37c34 -15 77 -22 130 -26c39 2 66 7 86 22c8 12 5 31 -14 41c-42 13 -89 24 -129 35c-42 12 -80 34 -112 68c-26 26 -35 58 -29 98c10 39 32 72 68 100c47 34 85 48 134 55c44 7 82 9 133 4
c37 -4 73 -13 111 -35l-44 -135c-15 10 -34 18 -57 23c-45 12 -70 13 -106 8c-36 -9 -55 -32 -58 -54c5 -11 17 -16 37 -16c43 -13 66 -13 104 -24c38 -14 71 -26 100 -58c20 -25 35 -51 38 -82c3 -26 1 -59 -6 -85c-7 -25 -25 -47 -51 -65c-27 -18 -57 -32 -93 -39
c-60 -11 -98 -11 -154 -7z" />
    <glyph glyph-name="uniFF54" unicode="&#xff54;" 
d="M571 1c-35 6 -71 13 -106 38c-22 16 -50 52 -57 83c-8 37 -11 164 -5 254l-130 3v167h130l3 146l170 -4l-7 -141l159 -4l-3 -154l-160 -8c-9 -105 -9 -157 18 -187c33 -20 86 -22 144 -22l-7 -165c-47 -7 -106 -14 -149 -6z" />
    <glyph glyph-name="uniFF55" unicode="&#xff55;" 
d="M373 2c-43 3 -83 23 -117 57c-28 31 -46 60 -57 111c-8 40 -12 89 -13 133c-1 64 1 139 4 236l163 5c4 -134 4 -197 7 -265c3 -69 29 -100 82 -120c41 -21 89 3 109 24c26 24 44 51 45 106c0 78 -1 158 -8 249l172 8l-2 -156c3 -57 8 -110 13 -163c5 -57 33 -129 50 -179
l-137 -56c-24 26 -36 49 -47 77c-43 -35 -82 -56 -120 -66c-46 -12 -99 -4 -144 -1z" />
    <glyph glyph-name="uniFF56" unicode="&#xff56;" 
d="M616 14c-72 -16 -121 -17 -196 -1c-58 75 -99 166 -136 243s-73 194 -98 278l185 12c17 -74 94 -275 128 -358l10 -3c43 91 124 310 138 361l167 -4c-27 -102 -54 -183 -78 -260c-26 -77 -87 -201 -120 -268z" />
    <glyph glyph-name="uniFF57" unicode="&#xff57;" 
d="M400 9c-60 -6 -113 -14 -171 -3c-27 79 -52 174 -69 250c-16 77 -30 154 -45 288l162 -3c8 -43 19 -90 26 -134c6 -43 20 -91 39 -162c33 96 86 218 103 255c26 13 59 13 89 5c21 -30 38 -145 70 -273c31 68 63 146 79 195c16 43 28 75 45 118l155 2
c-30 -117 -61 -197 -91 -280c-30 -84 -60 -171 -87 -258c-35 -8 -92 -8 -141 0c-10 27 -23 54 -33 84c-10 26 -24 53 -34 80l-13 3c-17 -27 -30 -53 -44 -80c-16 -30 -30 -57 -40 -87z" />
    <glyph glyph-name="uniFF58" unicode="&#xff58;" 
d="M408 13l-187 -5c31 66 110 211 155 270c-40 46 -131 191 -170 263l169 6l108 -159c30 43 81 105 111 153l166 -3c-34 -51 -135 -215 -154 -257c34 -45 157 -223 188 -276l-171 1c-27 33 -86 110 -120 162c-49 -74 -67 -111 -95 -155z" />
    <glyph glyph-name="uniFF59" unicode="&#xff59;" 
d="M443 -105l-196 4l129 231c-46 100 -187 367 -206 406l175 11c20 -44 99 -186 137 -257c37 56 132 212 154 254h194c-86 -160 -147 -246 -203 -332c-55 -88 -110 -169 -184 -317z" />
    <glyph glyph-name="uniFF5A" unicode="&#xff5a;" 
d="M763 3c-181 1 -356 2 -525 -2c-1 54 3 93 9 141c90 95 200 186 284 262l-251 3l-5 133c155 3 317 6 479 8c5 -52 1 -87 0 -138c-38 -41 -248 -229 -280 -266c84 4 197 10 289 11v-152z" />
    <glyph glyph-name="uni3041" unicode="&#x3041;" 
d="M504 -21l-104 -32l-9 27c-41 -8 -67 -13 -95 -10c-28 2 -55 13 -74 35c-20 18 -27 50 -23 92c3 37 9 63 24 89c15 24 28 51 53 75c20 20 45 40 80 54c-2 32 -3 64 -1 92c-20 2 -103 -9 -134 -12v122c32 7 106 12 137 16c-3 18 4 56 7 87l117 5c-7 -37 -8 -69 -5 -87
c62 5 130 3 193 0v-107c-41 -6 -122 -15 -194 -20c-4 -21 -4 -55 -2 -67c38 8 85 14 123 8l21 44l105 -42c-2 -25 -17 -47 -17 -47c26 -8 43 -28 58 -46c16 -35 26 -71 22 -110c-2 -32 -7 -63 -19 -92c-14 -29 -31 -54 -53 -79l-103 46c13 19 23 36 32 54c13 21 20 35 23 56
c2 15 0 26 -5 40c-3 8 -9 15 -17 19c-39 -54 -98 -130 -142 -163zM370 88c-3 28 -5 57 -5 81c-26 -16 -50 -44 -55 -71c15 -20 41 -17 60 -10zM479 141c23 26 54 65 67 93c-17 6 -49 -10 -65 -16c-7 -33 -7 -57 -2 -77z" />
    <glyph glyph-name="uni3042" unicode="&#x3042;" 
d="M509 -11l-127 -38l-11 35c-56 -10 -89 -16 -127 -13c-36 3 -68 17 -93 43c-23 23 -32 62 -27 116c4 48 20 84 38 118c20 31 40 60 70 91c26 27 48 52 96 73c-3 43 -4 84 -1 127c-31 2 -140 -13 -175 -16v148c37 10 133 16 178 21c-4 28 5 78 10 113l141 6
c-9 -43 -10 -84 -7 -113c86 6 174 3 251 0v-128c-48 -8 -154 -20 -252 -27c-5 -32 -5 -76 -2 -96c54 10 116 17 167 10l28 54l128 -50c-3 -27 -25 -61 -25 -61c39 -12 59 -35 79 -59c21 -45 33 -90 28 -141c-3 -41 -10 -78 -25 -116c-19 -38 -40 -70 -66 -100l-124 57
c15 20 27 42 40 65c16 27 26 46 29 75c3 19 1 37 -7 55c-4 10 -14 21 -28 26c-54 -72 -129 -170 -188 -214zM347 127c-4 38 -8 77 -7 117c-42 -26 -76 -64 -82 -105c23 -28 59 -24 89 -12zM479 187c39 41 79 92 97 134c-28 11 -73 -10 -97 -21c-8 -46 -8 -76 0 -113z" />
    <glyph glyph-name="uni3043" unicode="&#x3043;" 
d="M799 150c-47 -19 -81 -28 -136 -40c-7 58 -20 122 -34 177c-14 56 -28 111 -50 196c35 14 101 46 126 50c30 -55 47 -120 59 -187c14 -66 25 -136 35 -196zM302 2c-25 17 -42 51 -55 85c-30 89 -59 248 -61 388l125 39c6 -39 18 -153 25 -198c5 -48 21 -108 33 -149
c32 24 62 44 95 62l49 -109c-26 -30 -94 -89 -120 -101c-22 -14 -57 -22 -91 -17z" />
    <glyph glyph-name="uni3044" unicode="&#x3044;" 
d="M249 30c-30 18 -53 64 -70 109c-32 113 -73 318 -81 510l151 44c7 -41 23 -193 33 -252c7 -65 28 -149 48 -211c50 36 91 63 127 83l61 -134c-31 -36 -122 -110 -156 -126c-30 -19 -72 -30 -113 -23zM899 223l-165 -49c-10 69 -27 154 -45 228c-19 74 -38 152 -67 257
l156 63c36 -69 59 -152 75 -242c18 -87 33 -181 46 -257z" />
    <glyph glyph-name="uni3045" unicode="&#x3045;" 
d="M538 -34l-113 64c29 39 63 79 91 121c32 35 52 72 65 114c1 17 -8 29 -32 40c-27 10 -57 15 -92 12c-33 -2 -68 -7 -102 -12c-34 -8 -76 -18 -106 -32l-5 131c35 14 93 28 126 34c66 14 136 21 190 14c37 -8 86 -18 115 -39c28 -22 39 -41 49 -73c9 -24 8 -57 4 -92
c-5 -50 -44 -108 -71 -146c-26 -38 -79 -91 -119 -136zM573 477c-91 31 -142 42 -227 65l43 110c48 -5 199 -45 226 -62z" />
    <glyph glyph-name="uni3046" unicode="&#x3046;" 
d="M562 -75l-137 90c35 47 82 103 121 159c45 49 71 101 90 160c1 30 -16 50 -48 64c-39 14 -84 21 -131 17c-47 -3 -94 -10 -142 -17c-45 -10 -107 -24 -137 -38l-6 162c44 15 119 33 166 44c90 18 185 27 261 18c50 -11 114 -24 154 -54c34 -25 50 -52 62 -95
c13 -30 12 -74 6 -124c-8 -63 -59 -143 -96 -195c-37 -53 -113 -138 -163 -191zM612 626c-116 38 -191 53 -296 80l52 129c62 -6 266 -54 298 -72z" />
    <glyph glyph-name="uni3047" unicode="&#x3047;" 
d="M292 -26l-75 61c39 47 98 113 126 147c34 39 83 91 115 133c-24 0 -120 -7 -191 -12l-3 122c38 4 104 10 199 19c69 6 122 6 199 13l-2 -114c-34 -21 -120 -104 -148 -132c25 12 37 11 51 10c18 -2 31 -12 30 -28c4 -21 2 -46 4 -72c14 -5 33 -4 62 0c28 4 74 16 101 25
l-3 -128c-35 -13 -79 -23 -119 -25c-48 -7 -77 -8 -118 -8c-17 0 -29 10 -39 22c-8 8 -11 19 -8 33l3 22c-7 9 -13 13 -22 5c-27 -14 -136 -82 -162 -93zM566 487c-38 15 -157 50 -205 54l34 105c59 -1 175 -35 205 -51z" />
    <glyph glyph-name="uni3048" unicode="&#x3048;" 
d="M249 -55l-93 77c48 61 124 149 159 194c43 52 108 120 151 180c-36 0 -159 -11 -247 -17l-4 156c46 5 131 13 252 24c88 8 156 8 253 18l-3 -146c-42 -27 -152 -138 -195 -182c39 20 55 19 74 16c14 -10 28 -20 35 -34c3 -39 -4 -63 6 -97c20 -8 45 -13 81 -1
c30 10 96 21 127 33l-4 -164c-44 -16 -98 -29 -150 -32c-62 -9 -98 -11 -150 -11c-21 1 -37 13 -48 28c-11 11 -14 24 -11 42l4 30c-10 14 -19 19 -32 9c-34 -19 -174 -109 -205 -123zM598 618c-46 18 -200 63 -258 68l41 129c74 -1 222 -45 259 -64z" />
    <glyph glyph-name="uni3049" unicode="&#x3049;" 
d="M318 -34c-40 8 -87 17 -117 48c-20 23 -30 53 -32 81c2 24 10 47 20 68c9 21 21 39 40 58c18 19 36 34 57 44c21 11 57 21 75 26l-1 72l-165 -8v121l163 11l-2 128l119 -2l4 -119l127 -2l-1 -117l-122 -9l2 -56c33 -3 85 -6 125 -16c33 -11 67 -29 96 -57
c34 -30 46 -63 48 -114c-3 -25 -14 -59 -24 -81s-18 -45 -40 -73l-123 42c21 37 38 79 44 112c1 23 -6 39 -20 45c-28 15 -69 28 -100 18l-4 -94c-6 -52 -19 -92 -48 -107c-33 -16 -74 -21 -121 -19zM358 90c8 8 6 40 5 72c-16 -1 -29 -6 -41 -16c-8 -12 -17 -27 -13 -50
c5 -9 36 -16 49 -6zM695 279c-4 54 -13 137 -27 215l124 19c6 -36 21 -147 23 -210z" />
    <glyph glyph-name="uni304A" unicode="&#x304a;" 
d="M297 -31c-51 10 -110 21 -146 59c-26 30 -39 66 -42 102c3 31 13 59 26 86c11 27 27 50 49 74c24 25 47 42 74 55c27 14 73 27 98 35l-2 99l-212 -10v147l210 15l-2 164l145 -2l5 -154l163 -2l-1 -143l-157 -11l3 -80c46 -4 113 -8 162 -21c43 -13 87 -37 124 -72
c42 -37 57 -78 59 -143c-3 -33 -17 -75 -30 -103s-23 -58 -50 -91l-151 52c26 44 47 97 55 142c2 29 -8 53 -27 61c-37 20 -91 36 -134 21l-6 -122c-7 -67 -24 -116 -59 -134c-43 -21 -94 -27 -154 -24zM350 122c12 11 10 53 8 99c-24 -2 -43 -8 -58 -23
c-12 -16 -23 -36 -18 -68c8 -14 49 -23 68 -8zM785 371c-5 65 -16 172 -35 269l153 24c7 -43 26 -185 29 -263z" />
    <glyph glyph-name="uni304B" unicode="&#x304b;" 
d="M317 -14l-150 13c17 108 40 307 52 395c-47 -10 -83 -23 -117 -33l-17 136c47 23 99 48 150 66l21 186l154 -3c-9 -57 -13 -112 -19 -162c58 -1 105 1 130 -5c40 -3 76 -17 106 -39c19 -30 36 -60 46 -94c10 -32 13 -69 10 -109c-7 -62 -15 -118 -30 -171
c-14 -57 -28 -117 -47 -170l-140 33c15 48 37 116 47 164c13 62 19 108 20 155c-2 30 -11 45 -20 54c-24 32 -120 34 -138 16c-7 -72 -40 -340 -58 -432zM916 283l-154 -52c-19 71 -36 157 -55 240c-20 89 -37 174 -60 247l151 57c27 -82 42 -160 63 -236
c20 -80 39 -174 55 -256z" />
    <glyph glyph-name="uni304C" unicode="&#x304c;" 
d="M285 -14l-150 13c17 108 40 307 52 395c-47 -10 -83 -23 -117 -33l-17 136c47 23 99 48 150 66l21 186l154 -3c-9 -57 -13 -112 -19 -162c58 -1 105 1 130 -5c40 -3 76 -17 106 -39c19 -30 36 -60 46 -94c10 -32 13 -69 10 -109c-7 -62 -15 -118 -30 -171
c-14 -57 -28 -117 -47 -170l-140 33c15 48 37 116 47 164c13 62 19 108 20 155c-2 30 -11 45 -20 54c-24 32 -120 34 -138 16c-7 -72 -40 -340 -58 -432zM813 634c-11 56 -30 123 -47 167l75 35c14 -39 42 -135 47 -178zM914 673c-9 61 -37 134 -51 163l77 33
c20 -46 41 -116 46 -169zM866 276l-148 -51c-19 71 -36 157 -55 240c-20 89 -37 174 -60 247l145 56c27 -82 42 -160 63 -236c20 -80 39 -174 55 -256z" />
    <glyph glyph-name="uni304D" unicode="&#x304d;" 
d="M549 -66c-158 7 -172 21 -211 32c-33 11 -62 31 -86 62c-43 46 -63 111 -54 157c50 6 108 7 153 5c2 -16 27 -57 45 -68c42 -28 102 -44 165 -43l158 10c4 -56 2 -104 -3 -148c-43 -3 -104 -10 -167 -7zM556 186c-16 39 -36 89 -53 127l-204 -51l-51 131
c25 12 161 48 203 59l-28 82c-84 -19 -159 -38 -221 -54l-40 140c54 14 166 46 218 54l-33 97l157 45l36 -101l198 40l47 -123c-54 -16 -114 -31 -194 -55l31 -76l170 39l46 -135l-168 -48l39 -122z" />
    <glyph glyph-name="uni304E" unicode="&#x304e;" 
d="M799 630c-11 56 -30 123 -47 167l75 35c14 -39 42 -135 47 -178zM900 669c-9 61 -37 134 -51 163l77 33c20 -46 41 -116 46 -169zM540 -66c-158 7 -172 21 -211 32c-33 11 -62 31 -86 62c-43 46 -63 111 -54 157c50 6 108 7 153 5c2 -16 27 -57 45 -68
c42 -28 102 -44 165 -43l158 10c4 -56 2 -104 -3 -148c-43 -3 -104 -10 -167 -7zM547 186c-16 39 -36 89 -53 127l-204 -51l-51 131c25 12 161 48 203 59l-28 82c-84 -19 -159 -38 -221 -54l-40 140c54 14 166 46 218 54l-33 97l157 45l36 -101l198 40l47 -123
c-54 -16 -114 -31 -194 -55l31 -76l170 39l46 -135l-168 -48l39 -122z" />
    <glyph glyph-name="uni304F" unicode="&#x304f;" 
d="M684 -41c-68 40 -172 97 -236 140c-63 42 -127 90 -190 142l-37 42c-15 7 -23 37 -13 55c17 29 45 80 77 115c49 69 124 148 327 348l129 -99c-45 -52 -273 -293 -319 -356c68 -61 298 -205 355 -242z" />
    <glyph glyph-name="uni3050" unicode="&#x3050;" 
d="M668 -41c-68 40 -172 97 -236 140c-63 42 -127 90 -190 142l-37 42c-15 7 -23 37 -13 55c17 29 45 80 77 115c49 69 124 148 327 348l129 -99c-45 -52 -273 -293 -319 -356c68 -61 298 -205 355 -242zM702 363c-11 56 -30 123 -47 167l75 35c14 -39 42 -135 47 -178z
M811 402c-9 61 -37 134 -51 163l77 33c20 -46 41 -116 46 -169z" />
    <glyph glyph-name="uni3051" unicode="&#x3051;" 
d="M672 -23l-160 29c19 60 39 132 50 218c10 68 22 143 25 222c-52 3 -112 -1 -186 -2l1 148c25 1 142 4 191 5c5 68 3 130 0 177l167 9c4 -51 4 -113 5 -181l127 1l-2 -157l-130 -4c-4 -73 -14 -151 -30 -242c-19 -95 -32 -153 -58 -223zM279 40l-142 -18
c-13 28 -22 215 -25 322c-3 105 5 240 9 307l152 6c-3 -117 -6 -233 -7 -329c-2 -101 10 -204 13 -288z" />
    <glyph glyph-name="uni3052" unicode="&#x3052;" 
d="M664 -23l-160 29c19 60 39 132 50 218c10 68 22 143 25 222c-52 3 -112 -1 -186 -2l1 148c25 1 142 4 191 5c5 68 3 130 0 177l167 9c4 -51 4 -113 5 -181l127 1l-2 -157l-130 -4c-4 -73 -14 -151 -30 -242c-19 -95 -32 -153 -58 -223zM271 40l-142 -18
c-13 28 -22 215 -25 322c-3 105 5 240 9 307l152 6c-3 -117 -6 -233 -7 -329c-2 -101 10 -204 13 -288zM809 634c-11 56 -30 123 -47 167l75 35c14 -39 42 -135 47 -178zM914 673c-9 61 -37 134 -51 163l77 33c20 -46 41 -116 46 -169z" />
    <glyph glyph-name="uni3053" unicode="&#x3053;" 
d="M570 -1c-74 6 -145 20 -213 43c-68 24 -144 50 -208 131l100 123c60 -48 125 -76 197 -93c67 -19 139 -27 218 -24c61 0 116 6 153 9l4 -173c-55 -12 -164 -23 -251 -16zM789 528c-123 9 -329 28 -515 34l22 163c186 1 385 -13 515 -38z" />
    <glyph glyph-name="uni3054" unicode="&#x3054;" 
d="M780 315c-11 56 -30 123 -47 167l75 35c14 -39 42 -135 47 -178zM881 354c-9 61 -37 134 -51 163l77 33c20 -46 41 -116 46 -169zM562 -1c-74 6 -145 20 -213 43c-68 24 -144 50 -208 131l100 123c60 -48 125 -76 197 -93c67 -19 139 -27 218 -24c61 0 116 6 153 9
l4 -173c-55 -12 -164 -23 -251 -16zM781 528c-123 9 -329 28 -515 34l22 163c186 1 385 -13 515 -38z" />
    <glyph glyph-name="uni3055" unicode="&#x3055;" 
d="M530 -53c-56 6 -108 15 -157 32c-51 14 -79 25 -120 57c-39 30 -73 63 -86 112l115 100c31 -54 82 -96 113 -112c70 -37 176 -47 217 -44l74 5l3 -147c-55 -7 -99 -7 -159 -3zM714 284l-156 -51c-15 49 -68 169 -82 204c-71 -17 -239 -54 -267 -61l-40 139
c33 16 209 60 262 77c-18 30 -63 142 -70 168l155 58c15 -47 45 -140 64 -178c67 15 140 34 212 51l41 -151c-41 -13 -130 -43 -189 -53c13 -55 50 -132 70 -203z" />
    <glyph glyph-name="uni3056" unicode="&#x3056;" 
d="M514 -53c-56 6 -108 15 -157 32c-51 14 -79 25 -120 57c-39 30 -73 63 -86 112l115 100c31 -54 82 -96 113 -112c70 -37 176 -47 217 -44l74 5l3 -147c-55 -7 -99 -7 -159 -3zM698 284l-156 -51c-15 49 -68 169 -82 204c-71 -17 -239 -54 -267 -61l-40 139
c33 16 209 60 262 77c-18 30 -63 142 -70 168l155 58c15 -47 45 -140 64 -178c67 15 140 34 212 51l41 -151c-41 -13 -130 -43 -189 -53c13 -55 50 -132 70 -203zM801 635c-11 56 -30 123 -47 167l75 35c14 -39 42 -135 47 -178zM902 674c-9 61 -37 134 -51 163l77 33
c20 -46 41 -116 46 -169z" />
    <glyph glyph-name="uni3057" unicode="&#x3057;" 
d="M478 8c-33 3 -67 13 -97 26c-30 14 -60 34 -83 61c-30 40 -66 80 -76 130c-14 42 -23 90 -18 154l5 375l169 6c-3 -93 -13 -315 -7 -375c6 -102 31 -144 81 -188c23 -13 47 -20 70 -23c40 6 74 23 104 53c35 36 53 74 76 149l159 -66c-18 -62 -33 -93 -56 -130
c-23 -38 -52 -75 -85 -104c-35 -31 -67 -41 -117 -59c-36 -17 -81 -13 -125 -9z" />
    <glyph glyph-name="uni3058" unicode="&#x3058;" 
d="M478 8c-33 3 -67 13 -97 26c-30 14 -60 34 -83 61c-30 40 -66 80 -76 130c-14 42 -23 90 -18 154l5 375l169 6c-3 -93 -13 -315 -7 -375c6 -102 31 -144 81 -188c23 -13 47 -20 70 -23c40 6 74 23 104 53c35 36 53 74 76 149l159 -66c-18 -62 -33 -93 -56 -130
c-23 -38 -52 -75 -85 -104c-35 -31 -67 -41 -117 -59c-36 -17 -81 -13 -125 -9zM588 552c-11 56 -30 123 -47 167l75 35c14 -39 42 -135 47 -178zM701 591c-9 61 -37 134 -51 163l77 33c20 -46 41 -116 46 -169z" />
    <glyph glyph-name="uni3059" unicode="&#x3059;" 
d="M563 -60l-159 46c25 35 54 101 64 139l-87 -3c-30 3 -58 21 -82 45c-31 38 -41 86 -38 138c3 44 20 86 48 120c24 21 49 38 77 49c23 10 54 10 89 7l24 -4l8 36c-42 0 -212 -4 -375 -6v155c123 7 238 7 370 12c3 40 2 90 0 146h172c3 -52 0 -97 0 -146h194v-159
c-66 -2 -131 -3 -196 -5c-5 -47 -7 -90 -26 -127l1 -19l-4 -18c15 -31 21 -65 21 -103c-6 -52 -17 -100 -27 -148c-14 -49 -46 -114 -74 -155zM456 234c34 14 40 56 45 87c-15 23 -30 23 -45 29c-28 -5 -39 -10 -48 -25c-9 -19 -15 -41 -9 -66l5 -15z" />
    <glyph glyph-name="uni305A" unicode="&#x305a;" 
d="M806 674c-11 56 -26 94 -43 138l75 35c14 -39 39 -110 44 -153zM911 684c-9 61 -37 134 -51 163l77 33c20 -46 41 -116 46 -169zM549 -71l-159 46c25 35 54 101 64 139l-87 -3c-30 3 -58 21 -82 45c-31 38 -41 86 -38 138c3 44 20 86 48 120c24 21 49 38 77 49
c23 10 54 10 89 7l24 -4l8 36c-42 0 -212 -4 -375 -6v155c123 7 238 7 370 12c3 40 2 90 0 146h172c3 -52 0 -97 0 -146h194v-159c-66 -2 -131 -3 -196 -5c-5 -47 -7 -90 -26 -127l1 -19l-4 -18c15 -31 21 -65 21 -103c-6 -52 -17 -100 -27 -148c-14 -49 -46 -114 -74 -155z
M442 223c34 14 40 56 45 87c-15 23 -30 23 -45 29c-28 -5 -39 -10 -48 -25c-9 -19 -15 -41 -9 -66l5 -15z" />
    <glyph glyph-name="uni305B" unicode="&#x305b;" 
d="M518 -6c-41 -3 -81 -1 -109 10c-36 10 -62 29 -76 44c-33 36 -55 89 -61 131c-7 45 -10 105 -11 233c-65 -1 -103 0 -139 0l-1 152c33 2 95 9 136 12v146l160 14l1 -149c52 2 106 4 164 6l7 168l145 8l-2 -166l147 1l-3 -146l-137 -6c0 -69 -1 -100 -3 -146l-152 -11
c-3 31 -3 68 -3 139c-62 -1 -117 -5 -170 -9l-2 -66c-5 -70 3 -121 21 -147c14 -20 39 -38 60 -44c26 -12 56 -13 90 -9c47 3 172 22 251 36l8 -155c-53 -19 -159 -36 -321 -46z" />
    <glyph glyph-name="uni305C" unicode="&#x305c;" 
d="M518 -6c-41 -3 -81 -1 -109 10c-36 10 -62 29 -76 44c-33 36 -55 89 -61 131c-7 45 -10 105 -11 233c-65 -1 -103 0 -139 0l-1 152c33 2 95 9 136 12v146l160 14l1 -149c52 2 106 4 164 6l7 168l145 8l-2 -166l147 1l-3 -146l-137 -6c0 -69 -1 -100 -3 -146l-152 -11
c-3 31 -3 68 -3 139c-62 -1 -117 -5 -170 -9l-2 -66c-5 -70 3 -121 21 -147c14 -20 39 -38 60 -44c26 -12 56 -13 90 -9c47 3 172 22 251 36l8 -155c-53 -19 -159 -36 -321 -46zM798 615c-11 56 -30 123 -47 167l75 35c14 -39 42 -135 47 -178zM899 654
c-9 61 -37 134 -51 163l77 33c20 -46 41 -116 46 -169z" />
    <glyph glyph-name="uni305D" unicode="&#x305d;" 
d="M742 -27c-47 9 -102 25 -137 40c-35 16 -69 39 -101 66c-22 22 -39 43 -48 71c-10 26 -19 55 -21 84c0 29 11 56 30 86c-59 -10 -267 -20 -307 -26l-21 107c54 41 231 159 317 224l-213 -17c-5 46 -9 94 -5 146c156 12 450 24 571 25l4 -103l-309 -194
c121 13 263 24 362 34l-12 -150c-26 -7 -144 -24 -170 -40c-36 -26 -62 -84 -67 -108c0 -23 15 -38 29 -52c25 -17 47 -32 75 -41s59 -17 85 -29z" />
    <glyph glyph-name="uni305E" unicode="&#x305e;" 
d="M710 -27c-47 9 -102 25 -137 40c-35 16 -69 39 -101 66c-22 22 -39 43 -48 71c-10 26 -19 55 -21 84c0 29 11 56 30 86c-59 -10 -267 -20 -307 -26l-21 107c54 41 231 159 317 224l-213 -17c-5 46 -9 94 -5 146c156 12 433 22 554 23l6 -109l-294 -186
c121 13 263 24 362 34l-12 -150c-26 -7 -144 -24 -170 -40c-36 -26 -62 -84 -67 -108c0 -23 15 -38 29 -52c25 -17 47 -32 75 -41s59 -17 85 -29zM813 628c-11 56 -30 123 -47 167l75 35c14 -39 42 -135 47 -178zM914 667c-9 61 -37 134 -51 163l77 33
c20 -46 41 -116 46 -169z" />
    <glyph glyph-name="uni305F" unicode="&#x305f;" 
d="M334 -20l-159 1c11 80 27 193 42 273c13 80 26 172 36 252l-146 -14l1 146c46 6 102 19 155 24c11 51 15 95 29 143l163 -13l-19 -117c87 8 173 11 259 10l-1 -147c-106 -9 -212 -8 -276 -17c0 0 -17 -101 -48 -301c-10 -60 -19 -181 -36 -240zM892 -12
c-124 -17 -242 -11 -314 6c-50 16 -104 37 -159 75l74 122c74 -46 122 -62 197 -67c58 -4 117 -4 202 4v-140zM874 312c-67 -3 -271 -11 -373 -6l-3 138c62 7 284 15 372 10z" />
    <glyph glyph-name="uni3060" unicode="&#x3060;" 
d="M334 -20l-159 1c11 80 27 193 42 273c13 80 26 172 36 252l-146 -14l1 146c46 6 102 19 155 24c11 51 15 95 29 143l163 -13l-19 -117c87 8 173 11 259 10l-1 -147c-106 -9 -212 -8 -276 -17c0 0 -17 -101 -48 -301c-10 -60 -19 -181 -36 -240zM892 -12
c-124 -17 -242 -11 -314 6c-50 16 -104 37 -159 75l74 122c74 -46 122 -62 197 -67c58 -4 117 -4 202 4v-140zM874 312c-67 -3 -271 -11 -373 -6l-3 138c62 7 284 15 372 10zM751 582c-11 56 -30 123 -47 167l75 35c14 -39 42 -135 47 -178zM860 621c-9 61 -37 134 -51 163
l77 33c20 -46 41 -116 46 -169z" />
    <glyph glyph-name="uni3061" unicode="&#x3061;" 
d="M688 -46l-143 40c22 38 50 86 73 123c24 36 37 81 40 132c-14 14 -32 21 -48 18c-44 0 -82 -10 -142 -27c-37 -17 -74 -40 -104 -68l-27 -36c-44 11 -93 39 -122 55c33 121 69 240 89 308l-135 -9v152c36 4 108 12 163 18c15 38 36 100 45 146l172 -3
c-6 -40 -25 -100 -30 -135c89 5 199 17 291 16l10 -143c-122 -13 -219 -21 -339 -33c-14 -38 -29 -88 -43 -129c47 15 106 29 145 30c112 12 173 -16 212 -52c23 -33 37 -72 33 -116c-3 -43 -13 -91 -30 -127c-21 -42 -50 -95 -110 -160z" />
    <glyph glyph-name="uni3062" unicode="&#x3062;" 
d="M660 -46l-143 40c22 38 50 86 73 123c24 36 37 81 40 132c-14 14 -32 21 -48 18c-44 0 -82 -10 -142 -27c-37 -17 -74 -40 -104 -68l-27 -36c-44 11 -93 39 -122 55c33 121 69 240 89 308l-135 -9v152c36 4 108 12 163 18c15 38 36 100 45 146l172 -3
c-6 -40 -25 -100 -30 -135c90 8 198 15 283 16l10 -143c-114 -13 -211 -21 -331 -33c-14 -38 -29 -88 -43 -129c47 15 106 29 145 30c112 12 173 -16 212 -52c23 -33 37 -72 33 -116c-3 -43 -13 -91 -30 -127c-21 -42 -50 -95 -110 -160zM806 626c-11 56 -30 123 -47 167
l75 35c14 -39 42 -135 47 -178zM907 665c-9 61 -37 134 -51 163l77 33c20 -46 41 -116 46 -169z" />
    <glyph glyph-name="uni3063" unicode="&#x3063;" 
d="M538 -32l-88 106c28 24 105 84 125 101c17 19 33 40 50 60c14 18 23 32 20 50c-3 15 -8 27 -23 32c-42 15 -95 20 -225 13c-73 -8 -154 -18 -197 -33l-13 133c43 16 109 26 150 30c38 4 124 12 149 11c75 -1 114 -6 163 -18c44 -10 83 -26 111 -71c21 -32 30 -67 26 -108
c-3 -56 -21 -88 -47 -121c-23 -32 -66 -72 -103 -103c-46 -37 -84 -73 -98 -82z" />
    <glyph glyph-name="uni3064" unicode="&#x3064;" 
d="M570 -40l-108 130c29 28 140 126 166 151c27 26 49 56 73 88c13 25 27 50 20 76c-2 26 -15 49 -36 55c-61 24 -135 30 -313 19c-100 -11 -211 -26 -261 -43l-20 174c51 20 141 32 197 39c52 7 169 17 204 16c103 -2 157 -7 225 -25c56 -15 109 -39 145 -98
c28 -48 41 -93 37 -153c-5 -77 -28 -124 -64 -170c-31 -46 -85 -99 -137 -145c-61 -54 -113 -105 -128 -114z" />
    <glyph glyph-name="uni3065" unicode="&#x3065;" 
d="M776 624c-11 56 -30 123 -47 167l75 35c14 -39 42 -135 47 -178zM885 663c-9 61 -37 134 -51 163l77 33c20 -46 41 -116 46 -169zM570 -58l-108 130c29 28 140 126 166 151c27 26 49 56 73 88c13 25 27 50 20 76c-2 26 -15 49 -36 55c-61 24 -135 30 -313 19
c-100 -11 -211 -26 -261 -43l-20 174c51 20 141 32 197 39c52 7 169 17 204 16c103 -2 157 -7 225 -25c56 -15 109 -39 145 -98c28 -48 41 -93 37 -153c-5 -77 -28 -124 -64 -170c-31 -46 -85 -99 -137 -145c-61 -54 -113 -105 -128 -114z" />
    <glyph glyph-name="uni3066" unicode="&#x3066;" 
d="M668 -27c-58 8 -107 21 -147 45c-36 21 -58 38 -87 70c-34 37 -48 66 -66 117c-18 44 -17 102 -8 156c6 37 22 81 44 113c19 30 35 53 77 94c-101 -14 -280 -27 -339 -31l-10 147c276 38 507 56 729 72l7 -134l-95 -25c-44 -11 -69 -25 -101 -56
c-33 -37 -56 -68 -96 -127c-20 -39 -34 -78 -31 -125c-6 -46 18 -92 67 -126c46 -25 92 -50 119 -56z" />
    <glyph glyph-name="uni3067" unicode="&#x3067;" 
d="M668 -27c-58 8 -107 21 -147 45c-36 21 -58 38 -87 70c-34 37 -48 66 -66 117c-18 44 -17 102 -8 156c6 37 22 81 44 113c19 30 35 53 77 94c-101 -14 -280 -27 -339 -31l-10 147c276 38 507 56 729 72l7 -134l-95 -25c-44 -11 -69 -25 -101 -56
c-33 -37 -56 -68 -96 -127c-20 -39 -34 -78 -31 -125c-6 -46 18 -92 67 -126c46 -25 92 -50 119 -56zM751 345c-11 56 -30 123 -47 167l75 35c14 -39 42 -135 47 -178zM860 384c-9 61 -37 134 -51 163l77 33c20 -46 41 -116 46 -169z" />
    <glyph glyph-name="uni3068" unicode="&#x3068;" 
d="M509 -25c-47 -3 -90 4 -131 14c-39 10 -76 29 -108 59c-30 28 -46 74 -41 167c7 64 31 107 75 155c-37 109 -98 297 -117 371l165 48c11 -55 70 -209 92 -285c59 33 223 121 287 158l81 -138c-46 -36 -144 -92 -188 -126c-51 -27 -141 -85 -166 -108
c-23 -24 -43 -61 -48 -99c4 -23 14 -41 34 -47c29 -10 63 -13 97 -10c41 3 150 27 258 44l16 -153c-49 -16 -111 -26 -175 -38c-41 -10 -83 -8 -131 -12z" />
    <glyph glyph-name="uni3069" unicode="&#x3069;" 
d="M485 -29c-47 -3 -90 4 -131 14c-39 10 -76 29 -108 59c-30 28 -46 74 -41 167c7 64 31 107 75 155c-37 109 -98 297 -117 371l165 48c11 -55 70 -209 92 -285c59 33 223 121 287 158l81 -138c-46 -36 -144 -92 -188 -126c-51 -27 -141 -85 -166 -108
c-23 -24 -43 -61 -48 -99c4 -23 14 -41 34 -47c29 -10 63 -13 97 -10c41 3 150 27 258 44l16 -153c-49 -16 -111 -26 -175 -38c-41 -10 -83 -8 -131 -12zM750 618c-11 56 -30 123 -47 167l75 35c14 -39 42 -135 47 -178zM867 657c-9 61 -37 134 -51 163l77 33
c20 -46 41 -116 46 -169z" />
    <glyph glyph-name="uni306A" unicode="&#x306a;" 
d="M567 -52c-30 3 -60 10 -90 17c-27 10 -51 24 -74 47c-34 37 -52 83 -44 144s31 96 69 126c30 23 57 38 99 44c39 6 72 11 116 8l14 146l141 -6l-14 -152c44 -7 80 -12 110 -22l-22 -149c-36 7 -71 11 -106 11c-1 -39 -10 -74 -20 -101c-10 -30 -27 -58 -51 -81
c-27 -27 -85 -31 -128 -32zM601 86c20 23 30 53 27 87c-10 13 -33 19 -50 16c-36 -3 -65 -11 -89 -39c-5 -13 -11 -24 -3 -37c14 -20 30 -33 50 -40c23 1 45 2 65 13zM311 167l-159 -11c3 59 53 295 63 345l-116 -19l-5 146c47 11 100 15 145 21c11 43 19 97 34 154l157 10
c-8 -53 -15 -98 -22 -134c40 5 71 6 101 4l-1 -143c-28 -8 -80 -11 -129 -20c-15 -55 -52 -263 -68 -353zM902 513c-97 8 -210 16 -304 15l17 142c94 13 212 -6 291 -20z" />
    <glyph glyph-name="uni306B" unicode="&#x306b;" 
d="M672 35c-34 2 -73 9 -102 19c-31 7 -69 23 -92 45c-31 24 -62 60 -75 90l87 113c24 -31 88 -78 125 -88c56 -12 109 -23 158 -24c29 0 67 4 100 6v-162c-65 -6 -104 -8 -201 1zM327 15l-166 -4c-5 16 -34 211 -31 385c3 168 5 284 24 353l169 -2
c-2 -28 -20 -177 -18 -360c3 -166 13 -298 22 -372zM467 525l-15 156c137 24 281 28 420 19l-5 -153c-153 -7 -238 1 -400 -22z" />
    <glyph glyph-name="uni306C" unicode="&#x306c;" 
d="M239 -18c-39 11 -70 17 -110 50c-23 21 -38 52 -50 76c-18 41 -18 86 -18 140c0 46 10 85 29 125c18 36 63 113 134 163c-18 81 -33 145 -43 197l147 32c11 -48 19 -94 30 -156c82 30 156 39 212 27c30 56 62 120 72 146l138 -64c-14 -38 -28 -75 -40 -103
c33 -23 62 -45 86 -75c23 -29 41 -61 57 -102c13 -54 5 -130 -9 -187c34 -20 66 -29 83 -55l-34 -133c-23 13 -57 32 -89 40c-29 -53 -53 -84 -91 -103c-25 -17 -62 -21 -87 -13c-40 10 -79 32 -112 67c-10 21 -17 42 -20 68c7 46 26 88 56 124c43 39 97 47 164 40
c7 26 7 53 2 83c-5 38 -23 78 -62 111c-18 -27 -51 -88 -60 -113c-31 -67 -101 -176 -140 -223l24 -58l-92 -89l-39 45c-51 -37 -89 -55 -138 -60zM641 114c38 -27 76 2 101 53c-21 12 -54 10 -74 5c-22 -5 -40 -36 -27 -58zM235 147c27 -7 65 3 89 30
c-19 40 -40 111 -50 155h-12c-33 -30 -63 -96 -60 -145c5 -18 8 -37 33 -40zM420 330c38 40 74 114 89 165l-27 -3c-34 -11 -70 -29 -91 -63z" />
    <glyph glyph-name="uni306D" unicode="&#x306d;" 
d="M657 -14c-24 2 -62 4 -89 14c-37 6 -60 28 -78 54c-34 37 -41 80 -31 130c4 46 17 93 44 121c20 18 75 47 108 51c33 5 66 0 95 -6c3 42 -8 71 -25 101c-10 14 -36 24 -81 20c-33 -13 -61 -25 -91 -41c-31 -17 -73 -46 -99 -76c0 -62 -3 -277 -6 -362l-169 1l2 118
c-27 -11 -65 -45 -95 -61l-62 157c49 53 117 132 158 192v32l-138 -4l5 166l134 3c-3 59 -2 115 0 170l179 8c-3 -60 -2 -117 0 -174c41 21 83 37 118 46c33 13 70 15 108 16c53 -10 109 -23 147 -64c27 -30 47 -60 60 -97c13 -36 17 -73 18 -172c30 -10 65 -30 95 -46
l-30 -141c-26 12 -52 25 -81 23c0 -56 -16 -99 -52 -132c-44 -30 -90 -43 -144 -47zM587 166c9 -14 34 -24 60 -27c23 -2 47 3 59 17l9 57l-35 12c-35 4 -58 -4 -83 -29z" />
    <glyph glyph-name="uni306E" unicode="&#x306e;" 
d="M322 38c-41 3 -67 4 -96 17c-37 18 -60 39 -81 74c-29 46 -45 114 -31 196c3 46 18 81 40 120c21 40 50 75 82 109c48 50 109 92 175 119c65 27 137 33 219 24c32 -9 65 -21 96 -36c27 -15 64 -42 85 -68c30 -34 42 -64 58 -104c15 -38 20 -79 24 -124
c0 -61 -6 -123 -20 -173c-20 -69 -45 -125 -83 -176l-139 55c15 32 41 77 57 128c12 38 25 75 30 132c-1 49 -5 81 -12 116c-21 52 -48 76 -80 77c-11 -55 -20 -131 -40 -189c-16 -56 -28 -81 -52 -119c-44 -71 -89 -117 -162 -156c-21 -12 -43 -18 -70 -22zM341 216
c48 28 70 57 91 97c13 30 24 65 35 95c14 51 22 98 33 132l-46 -6c-39 -12 -80 -45 -117 -85c-23 -25 -42 -54 -51 -81c-19 -51 -21 -84 -21 -118c6 -28 21 -42 45 -45z" />
    <glyph glyph-name="uni306F" unicode="&#x306f;" 
d="M492 -11c-34 3 -72 22 -95 54c-31 35 -47 81 -45 127c-4 57 20 101 63 137c30 25 86 44 177 36c2 38 0 75 2 121c-51 -1 -128 -3 -207 1l-2 139c59 4 112 7 199 11c0 51 2 105 3 156l161 11c5 -50 8 -107 5 -164c48 -1 96 -2 148 0l2 -150c-55 -1 -108 -3 -152 -5
c2 -38 5 -86 2 -135c38 -7 94 -14 137 -34l-4 -144c-37 9 -106 18 -138 25c-10 -47 -25 -123 -69 -152c-23 -21 -47 -31 -77 -34c-34 -9 -77 -10 -110 0zM288 12l-160 -19c-16 37 -31 301 -30 384c1 61 6 285 20 315l166 -2c-9 -73 -21 -252 -18 -358
c4 -130 14 -189 22 -320zM573 118c16 15 22 51 24 86c-35 7 -64 2 -87 -3c-19 -10 -26 -34 -23 -62c20 -26 52 -27 86 -21z" />
    <glyph glyph-name="uni3070" unicode="&#x3070;" 
d="M472 -11c-34 3 -72 22 -95 54c-31 35 -47 81 -45 127c-4 57 20 101 63 137c30 25 86 44 177 36c2 38 0 75 2 121c-51 -1 -128 -3 -207 1l-2 139c59 4 112 7 199 11c0 51 2 105 3 156l161 11c5 -50 8 -107 5 -164c48 -1 96 -2 148 0l2 -150c-55 -1 -108 -3 -152 -5
c2 -38 5 -86 2 -135c38 -7 94 -14 137 -34l-4 -144c-37 9 -106 18 -138 25c-10 -47 -25 -123 -69 -152c-23 -21 -47 -31 -77 -34c-34 -9 -77 -10 -110 0zM268 12l-160 -19c-16 37 -31 301 -30 384c1 61 6 285 20 315l166 -2c-9 -73 -21 -252 -18 -358
c4 -130 14 -189 22 -320zM553 118c16 15 22 51 24 86c-35 7 -64 2 -87 -3c-19 -10 -26 -34 -23 -62c20 -26 52 -27 86 -21zM790 632c-11 56 -30 123 -47 167l75 35c14 -39 42 -135 47 -178zM895 671c-9 61 -37 134 -51 163l77 33c20 -46 41 -116 46 -169z" />
    <glyph glyph-name="uni3071" unicode="&#x3071;" 
d="M472 -11c-34 3 -72 22 -95 54c-31 35 -47 81 -45 127c-4 57 20 101 63 137c30 25 86 44 177 36c2 38 0 75 2 121c-51 -1 -128 -3 -207 1l-2 139c59 4 112 7 199 11c0 51 2 105 3 156l161 11c5 -50 8 -107 5 -164c48 -1 96 -2 148 0l2 -150c-55 -1 -108 -3 -152 -5
c2 -38 5 -86 2 -135c38 -7 94 -14 137 -34l-4 -144c-37 9 -106 18 -138 25c-10 -47 -25 -123 -69 -152c-23 -21 -47 -31 -77 -34c-34 -9 -77 -10 -110 0zM268 12l-160 -19c-16 37 -31 301 -30 384c1 61 6 285 20 315l166 -2c-9 -73 -21 -252 -18 -358
c4 -130 14 -189 22 -320zM553 118c16 15 22 51 24 86c-35 7 -64 2 -87 -3c-19 -10 -26 -34 -23 -62c20 -26 52 -27 86 -21zM833 648c-27 4 -54 23 -68 45c-9 14 -14 39 -14 60c0 47 17 72 48 91c17 11 41 13 59 16c35 0 69 -8 86 -27c18 -18 33 -60 23 -104
c-3 -23 -16 -43 -33 -61c-30 -17 -61 -26 -101 -20zM884 723c17 34 10 57 -19 68c-10 -1 -20 -5 -30 -10c-8 -13 -13 -32 -11 -44c5 -18 33 -25 60 -14z" />
    <glyph glyph-name="uni3072" unicode="&#x3072;" 
d="M385 -4c-30 3 -57 10 -87 20s-54 23 -77 43c-24 24 -42 55 -52 88c-10 30 -22 79 -12 150c7 43 21 74 30 100c10 33 32 76 51 107c-50 -10 -118 -21 -162 -26l-9 160c72 12 139 29 213 39c80 17 161 22 222 24l16 -164c-34 -4 -70 -23 -97 -43c-30 -37 -50 -77 -63 -120
c-13 -44 -23 -81 -25 -132c3 -23 8 -54 32 -69c16 -10 33 -13 53 -13c37 3 72 20 108 54c44 51 63 99 86 163c24 60 31 112 51 176c30 25 65 51 108 55c34 -30 162 -155 197 -202c-22 -53 -54 -100 -78 -141c-42 29 -73 54 -109 75c-11 -55 -32 -97 -55 -134
c-24 -40 -50 -77 -80 -113c-34 -30 -71 -54 -107 -71c-41 -16 -84 -26 -154 -26z" />
    <glyph glyph-name="uni3073" unicode="&#x3073;" 
d="M373 -12c-30 3 -57 10 -87 20s-54 23 -77 43c-24 24 -42 55 -52 88c-10 30 -22 79 -12 150c7 43 21 74 30 100c10 33 32 76 51 107c-50 -10 -118 -21 -162 -26l-9 160c72 12 139 29 213 39c80 17 161 22 222 24l16 -164c-34 -4 -70 -23 -97 -43c-30 -37 -50 -77 -63 -120
c-13 -44 -23 -81 -25 -132c3 -23 8 -54 32 -69c16 -10 33 -13 53 -13c37 3 72 20 108 54c44 51 63 99 86 163c24 60 31 112 51 176c30 25 65 51 108 55c34 -30 162 -155 197 -202c-22 -53 -54 -100 -78 -141c-42 29 -73 54 -109 75c-11 -55 -32 -97 -55 -134
c-24 -40 -50 -77 -80 -113c-34 -30 -71 -54 -107 -71c-41 -16 -84 -26 -154 -26zM807 572c-11 56 -30 123 -47 167l75 35c14 -39 42 -135 47 -178zM908 611c-9 61 -37 134 -51 163l77 33c20 -46 41 -116 46 -169z" />
    <glyph glyph-name="uni3074" unicode="&#x3074;" 
d="M373 -4c-30 3 -57 10 -87 20s-54 23 -77 43c-24 24 -42 55 -52 88c-10 30 -22 79 -12 150c7 43 21 74 30 100c10 33 32 76 51 107c-50 -10 -118 -21 -162 -26l-9 160c72 12 139 29 213 39c80 17 161 22 222 24l16 -164c-34 -4 -70 -23 -97 -43c-30 -37 -50 -77 -63 -120
c-13 -44 -23 -81 -25 -132c3 -23 8 -54 32 -69c16 -10 33 -13 53 -13c37 3 72 20 108 54c44 51 63 99 86 163c24 60 31 112 51 176c30 25 65 51 108 55c34 -30 162 -155 197 -202c-22 -53 -54 -100 -78 -141c-42 29 -73 54 -109 75c-11 -55 -32 -97 -55 -134
c-24 -40 -50 -77 -80 -113c-34 -30 -71 -54 -107 -71c-41 -16 -84 -26 -154 -26zM844 583c-27 4 -54 23 -68 45c-9 14 -18 42 -18 63c0 47 19 67 50 86c17 11 43 15 61 18c35 0 69 -8 86 -27c18 -18 33 -60 23 -104c-3 -23 -16 -43 -33 -61c-30 -17 -61 -26 -101 -20z
M895 658c17 34 10 57 -19 68c-10 -1 -20 -5 -30 -10c-8 -13 -13 -32 -11 -44c5 -18 33 -25 60 -14z" />
    <glyph glyph-name="uni3075" unicode="&#x3075;" 
d="M449 -38c-48 3 -95 15 -175 79l82 127c40 -28 75 -39 117 -44c25 -2 36 4 43 17c8 13 6 38 -1 66c-13 41 -32 82 -57 121c-26 35 -45 64 -72 111l128 74c26 -33 56 -61 78 -90c22 -32 41 -63 57 -95c12 -29 22 -57 28 -87c7 -29 10 -60 7 -94c-4 -42 -12 -89 -43 -119
c-35 -40 -87 -59 -141 -66h-51zM230 83l-158 33c3 58 19 118 28 162c10 39 26 81 50 116l160 -38c-29 -61 -79 -230 -80 -273zM926 126l-151 -40c-10 128 -29 209 -40 277l144 29c28 -67 50 -198 47 -266zM612 506c-37 21 -223 126 -288 162l86 131
c93 -54 191 -107 270 -166z" />
    <glyph glyph-name="uni3076" unicode="&#x3076;" 
d="M449 -38c-48 3 -95 15 -175 79l82 127c40 -28 75 -39 117 -44c25 -2 36 4 43 17c8 13 6 38 -1 66c-13 41 -32 82 -57 121c-26 35 -45 64 -72 111l128 74c26 -33 56 -61 78 -90c22 -32 41 -63 57 -95c12 -29 22 -57 28 -87c7 -29 10 -60 7 -94c-4 -42 -12 -89 -43 -119
c-35 -40 -87 -59 -141 -66h-51zM230 83l-158 33c3 58 19 118 28 162c10 39 26 81 50 116l160 -38c-29 -61 -79 -230 -80 -273zM926 126l-151 -40c-10 128 -29 209 -40 277l144 29c28 -67 50 -198 47 -266zM612 506c-37 21 -223 126 -288 162l86 131
c93 -54 191 -107 270 -166zM746 485c-11 56 -30 123 -47 167l75 35c14 -39 42 -135 47 -178zM859 524c-9 61 -37 134 -51 163l77 33c20 -46 41 -116 46 -169z" />
    <glyph glyph-name="uni3077" unicode="&#x3077;" 
d="M449 -38c-48 3 -95 15 -175 79l82 127c40 -28 75 -39 117 -44c25 -2 36 4 43 17c8 13 6 38 -1 66c-13 41 -32 82 -57 121c-26 35 -45 64 -72 111l128 74c26 -33 56 -61 78 -90c22 -32 41 -63 57 -95c12 -29 22 -57 28 -87c7 -29 10 -60 7 -94c-4 -42 -12 -89 -43 -119
c-35 -40 -87 -59 -141 -66h-51zM230 83l-158 33c3 58 19 118 28 162c10 39 26 81 50 116l160 -38c-29 -61 -79 -230 -80 -273zM926 126l-151 -40c-10 128 -29 209 -40 277l144 29c28 -67 50 -198 47 -266zM612 506c-37 21 -223 126 -288 162l86 131
c93 -54 191 -107 270 -166zM803 518c-27 4 -54 23 -68 45c-9 14 -18 42 -18 63c0 47 19 67 50 86c17 11 43 15 61 18c35 0 69 -8 86 -27c18 -18 33 -60 23 -104c-3 -23 -16 -43 -33 -61c-30 -17 -61 -26 -101 -20zM854 593c17 34 10 57 -19 68c-10 -1 -20 -5 -30 -10
c-8 -13 -13 -32 -11 -44c5 -18 33 -25 60 -14z" />
    <glyph glyph-name="uni3078" unicode="&#x3078;" 
d="M851 31c-78 58 -385 295 -460 333c-53 -24 -178 -162 -228 -214l-115 138c41 55 97 108 142 158c48 53 118 109 181 149c89 -46 193 -115 256 -162c50 -37 260 -193 325 -254z" />
    <glyph glyph-name="uni3079" unicode="&#x3079;" 
d="M851 31c-78 58 -385 295 -460 333c-53 -24 -178 -162 -228 -214l-115 138c41 55 97 108 142 158c48 53 118 109 181 149c89 -46 193 -115 256 -162c50 -37 260 -193 325 -254zM664 466c-11 56 -30 123 -47 167l75 35c14 -39 42 -135 47 -178zM781 505
c-9 61 -37 134 -51 163l77 33c20 -46 41 -116 46 -169z" />
    <glyph glyph-name="uni307A" unicode="&#x307a;" 
d="M851 31c-78 58 -385 295 -460 333c-53 -24 -178 -162 -228 -214l-115 138c41 55 97 108 142 158c48 53 118 109 181 149c89 -46 193 -115 256 -162c50 -37 260 -193 325 -254zM700 479c-27 4 -54 23 -68 45c-9 14 -18 42 -18 63c0 47 19 67 50 86c17 11 43 15 61 18
c35 0 69 -8 86 -27c18 -18 33 -60 23 -104c-3 -23 -16 -43 -33 -61c-30 -17 -61 -26 -101 -20zM751 554c17 34 10 57 -19 68c-10 -1 -20 -5 -30 -10c-8 -13 -13 -32 -11 -44c5 -18 33 -25 60 -14z" />
    <glyph glyph-name="uni307B" unicode="&#x307b;" 
d="M575 -9c-29 3 -55 10 -80 19c-29 10 -52 22 -74 46c-36 41 -49 89 -46 144c10 43 29 78 61 107c29 22 55 28 90 37c33 7 73 7 107 10l1 55l-194 2l-1 136l193 9l1 56c-87 2 -171 1 -239 -2l-5 150c86 7 173 11 261 12c87 2 190 -2 253 -2l2 -147c-41 -1 -91 -2 -127 1
l-2 -66l110 -4l1 -134l-106 -6l-5 -69c41 -6 96 -18 120 -30c-1 -52 -3 -102 -8 -148c-46 10 -78 19 -110 22c-12 -51 -23 -111 -66 -150c-36 -36 -82 -52 -137 -48zM301 54l-168 -4c-11 90 -25 222 -27 344c-2 129 -3 256 15 351l167 -2c-11 -116 -9 -223 -9 -334
c1 -109 8 -233 22 -355zM623 136c13 12 16 59 13 81c-11 3 -25 7 -39 5c-37 -5 -53 -17 -61 -27c-18 -24 -13 -44 -3 -50c7 -13 29 -16 44 -20z" />
    <glyph glyph-name="uni307C" unicode="&#x307c;" 
d="M551 -9c-29 3 -55 10 -80 19c-29 10 -52 22 -74 46c-36 41 -49 89 -46 144c10 43 29 78 61 107c29 22 55 28 90 37c33 7 73 7 107 10l1 55l-194 2l-1 136l193 9l1 56c-87 2 -171 1 -239 -2l-5 150c86 7 173 11 261 12c75 2 133 -3 158 -3c-4 12 -8 23 -12 33l75 35
c14 -39 42 -135 47 -178l-75 -24c-7 34 -16 71 -26 105l-1 -113l-38 -3l-2 -66l110 -4l1 -134l-106 -6l-5 -69c41 -6 96 -18 120 -30c-1 -52 -3 -102 -8 -148c-46 10 -78 19 -110 22c-12 -51 -23 -111 -66 -150c-36 -36 -82 -52 -137 -48zM277 54l-168 -4
c-11 90 -25 222 -27 344c-2 129 -3 256 15 351l167 -2c-11 -116 -9 -223 -9 -334c1 -109 8 -233 22 -355zM599 136c13 12 16 59 13 81c-11 3 -25 7 -39 5c-37 -5 -53 -17 -61 -27c-18 -24 -13 -44 -3 -50c7 -13 29 -16 44 -20zM920 674c-9 61 -37 134 -51 163l77 33
c20 -46 41 -116 46 -169z" />
    </font>
</defs>
</svg>
